M48
; DRILL file {KiCad 6.0.2+dfsg-1} date Wed 25 Jan 2023 11:44:14 AM
; FORMAT={-:-/ absolute / metric / decimal}
; #@! TF.CreationDate,2023-01-25T11:44:14-08:00
; #@! TF.GenerationSoftware,Kicad,Pcbnew,6.0.2+dfsg-1
; #@! TF.FileFunction,Plated,1,2,PTH
FMAT,2
METRIC
; #@! TA.AperFunction,Plated,PTH,ComponentDrill
T1C0.950
; #@! TA.AperFunction,Plated,PTH,ComponentDrill
T2C1.020
%
G90
G05
T1
X234.75Y-44.468
X237.25Y-44.468
X239.75Y-44.468
X242.25Y-44.468
T2
X181.87Y-66.61
X181.87Y-84.39
X184.41Y-66.61
X184.41Y-84.39
X186.95Y-66.61
X186.95Y-84.39
X189.49Y-66.61
X189.49Y-84.39
X192.03Y-66.61
X192.03Y-84.39
X194.57Y-66.61
X194.57Y-84.39
X197.11Y-66.61
X197.11Y-84.39
X199.65Y-66.61
X199.65Y-84.39
X202.19Y-66.61
X202.19Y-84.39
X204.73Y-66.61
X204.73Y-84.39
X207.27Y-66.61
X207.27Y-84.39
X209.81Y-66.61
X209.81Y-84.39
X212.35Y-66.61
X212.35Y-84.39
X214.89Y-66.61
X214.89Y-84.39
X217.43Y-66.61
X217.43Y-84.39
X219.97Y-66.61
X219.97Y-84.39
X222.51Y-66.61
X222.51Y-84.39
X225.05Y-66.61
X225.05Y-84.39
X227.59Y-66.61
X227.59Y-84.39
X230.13Y-66.61
X230.13Y-84.39
T0
M30
