%TF.GenerationSoftware,KiCad,Pcbnew,6.0.2+dfsg-1*%
%TF.CreationDate,2023-01-25T11:44:22-08:00*%
%TF.ProjectId,buttons,62757474-6f6e-4732-9e6b-696361645f70,rev?*%
%TF.SameCoordinates,Original*%
%TF.FileFunction,Soldermask,Top*%
%TF.FilePolarity,Negative*%
%FSLAX46Y46*%
G04 Gerber Fmt 4.6, Leading zero omitted, Abs format (unit mm)*
G04 Created by KiCad (PCBNEW 6.0.2+dfsg-1) date 2023-01-25 11:44:22*
%MOMM*%
%LPD*%
G01*
G04 APERTURE LIST*
G04 Aperture macros list*
%AMRoundRect*
0 Rectangle with rounded corners*
0 $1 Rounding radius*
0 $2 $3 $4 $5 $6 $7 $8 $9 X,Y pos of 4 corners*
0 Add a 4 corners polygon primitive as box body*
4,1,4,$2,$3,$4,$5,$6,$7,$8,$9,$2,$3,0*
0 Add four circle primitives for the rounded corners*
1,1,$1+$1,$2,$3*
1,1,$1+$1,$4,$5*
1,1,$1+$1,$6,$7*
1,1,$1+$1,$8,$9*
0 Add four rect primitives between the rounded corners*
20,1,$1+$1,$2,$3,$4,$5,0*
20,1,$1+$1,$4,$5,$6,$7,0*
20,1,$1+$1,$6,$7,$8,$9,0*
20,1,$1+$1,$8,$9,$2,$3,0*%
G04 Aperture macros list end*
%ADD10R,1.500000X1.000000*%
%ADD11R,1.700000X1.000000*%
%ADD12RoundRect,0.140000X0.170000X-0.140000X0.170000X0.140000X-0.170000X0.140000X-0.170000X-0.140000X0*%
%ADD13C,3.500000*%
%ADD14RoundRect,0.250000X0.375000X0.625000X-0.375000X0.625000X-0.375000X-0.625000X0.375000X-0.625000X0*%
%ADD15O,1.700000X1.700000*%
%ADD16R,1.700000X1.700000*%
%ADD17RoundRect,0.250000X-0.600000X-0.725000X0.600000X-0.725000X0.600000X0.725000X-0.600000X0.725000X0*%
%ADD18O,1.700000X1.950000*%
G04 APERTURE END LIST*
D10*
%TO.C,D3*%
X240950000Y-56600000D03*
X240950000Y-53400000D03*
X236050000Y-53400000D03*
X236050000Y-56600000D03*
%TD*%
D11*
%TO.C,SW9*%
X192560000Y-96500000D03*
X184260000Y-96500000D03*
X192560000Y-101000000D03*
X184260000Y-101000000D03*
%TD*%
%TO.C,SW15*%
X234300000Y-121500000D03*
X242600000Y-121500000D03*
X242600000Y-126000000D03*
X234300000Y-126000000D03*
%TD*%
%TO.C,SW6*%
X209300000Y-71500000D03*
X217600000Y-71500000D03*
X217600000Y-76000000D03*
X209300000Y-76000000D03*
%TD*%
D12*
%TO.C,C11*%
X242500000Y-105480000D03*
X242500000Y-104520000D03*
%TD*%
D11*
%TO.C,SW5*%
X184260000Y-71500000D03*
X192560000Y-71500000D03*
X184260000Y-76000000D03*
X192560000Y-76000000D03*
%TD*%
D10*
%TO.C,D11*%
X240950000Y-106600000D03*
X240950000Y-103400000D03*
X236050000Y-103400000D03*
X236050000Y-106600000D03*
%TD*%
%TO.C,D13*%
X190950000Y-131600000D03*
X190950000Y-128400000D03*
X186050000Y-128400000D03*
X186050000Y-131600000D03*
%TD*%
%TO.C,D2*%
X215950000Y-56600000D03*
X215950000Y-53400000D03*
X211050000Y-53400000D03*
X211050000Y-56600000D03*
%TD*%
D12*
%TO.C,C16*%
X267500000Y-130480000D03*
X267500000Y-129520000D03*
%TD*%
%TO.C,C14*%
X217500000Y-130480000D03*
X217500000Y-129520000D03*
%TD*%
D10*
%TO.C,D16*%
X265950000Y-131600000D03*
X265950000Y-128400000D03*
X261050000Y-128400000D03*
X261050000Y-131600000D03*
%TD*%
D12*
%TO.C,C2*%
X217500000Y-55460000D03*
X217500000Y-54500000D03*
%TD*%
D10*
%TO.C,D8*%
X265950000Y-81600000D03*
X265950000Y-78400000D03*
X261050000Y-78400000D03*
X261050000Y-81600000D03*
%TD*%
%TO.C,D6*%
X215950000Y-81600000D03*
X215950000Y-78400000D03*
X211050000Y-78400000D03*
X211050000Y-81600000D03*
%TD*%
D12*
%TO.C,C3*%
X242500000Y-55460000D03*
X242500000Y-54500000D03*
%TD*%
D13*
%TO.C,H2*%
X251000000Y-59500000D03*
%TD*%
D10*
%TO.C,D10*%
X215950000Y-106600000D03*
X215950000Y-103400000D03*
X211050000Y-103400000D03*
X211050000Y-106600000D03*
%TD*%
D11*
%TO.C,SW1*%
X184260000Y-46500000D03*
X192560000Y-46500000D03*
X192560000Y-51000000D03*
X184260000Y-51000000D03*
%TD*%
%TO.C,SW7*%
X242600000Y-71500000D03*
X234300000Y-71500000D03*
X234300000Y-76000000D03*
X242600000Y-76000000D03*
%TD*%
%TO.C,SW14*%
X217600000Y-121500000D03*
X209300000Y-121500000D03*
X209300000Y-126000000D03*
X217600000Y-126000000D03*
%TD*%
%TO.C,SW12*%
X267600000Y-96500000D03*
X259300000Y-96500000D03*
X267600000Y-101000000D03*
X259300000Y-101000000D03*
%TD*%
D12*
%TO.C,C1*%
X192500000Y-55480000D03*
X192500000Y-54520000D03*
%TD*%
D10*
%TO.C,D12*%
X265950000Y-106600000D03*
X265950000Y-103400000D03*
X261050000Y-103400000D03*
X261050000Y-106600000D03*
%TD*%
D12*
%TO.C,C7*%
X242500000Y-80480000D03*
X242500000Y-79520000D03*
%TD*%
%TO.C,C15*%
X242500000Y-130460000D03*
X242500000Y-129500000D03*
%TD*%
D10*
%TO.C,D1*%
X190950000Y-56600000D03*
X190950000Y-53400000D03*
X186050000Y-53400000D03*
X186050000Y-56600000D03*
%TD*%
D12*
%TO.C,C8*%
X259000000Y-80480000D03*
X259000000Y-79520000D03*
%TD*%
D10*
%TO.C,D4*%
X265950000Y-56600000D03*
X265950000Y-53400000D03*
X261050000Y-53400000D03*
X261050000Y-56600000D03*
%TD*%
%TO.C,D5*%
X190950000Y-81600000D03*
X190950000Y-78400000D03*
X186050000Y-78400000D03*
X186050000Y-81600000D03*
%TD*%
D13*
%TO.C,H3*%
X201000000Y-116500000D03*
%TD*%
D11*
%TO.C,SW8*%
X267600000Y-71500000D03*
X259300000Y-71500000D03*
X267600000Y-76000000D03*
X259300000Y-76000000D03*
%TD*%
D14*
%TO.C,D17*%
X266900000Y-43500000D03*
X264100000Y-43500000D03*
%TD*%
D10*
%TO.C,D14*%
X215950000Y-131600000D03*
X215950000Y-128400000D03*
X211050000Y-128400000D03*
X211050000Y-131600000D03*
%TD*%
D11*
%TO.C,SW11*%
X242600000Y-96500000D03*
X234300000Y-96500000D03*
X242600000Y-101000000D03*
X234300000Y-101000000D03*
%TD*%
D10*
%TO.C,D15*%
X240950000Y-131600000D03*
X240950000Y-128400000D03*
X236050000Y-128400000D03*
X236050000Y-131600000D03*
%TD*%
D13*
%TO.C,H1*%
X201000000Y-59500000D03*
%TD*%
D11*
%TO.C,SW16*%
X267600000Y-121500000D03*
X259300000Y-121500000D03*
X259300000Y-126000000D03*
X267600000Y-126000000D03*
%TD*%
D12*
%TO.C,C10*%
X217500000Y-105480000D03*
X217500000Y-104520000D03*
%TD*%
%TO.C,C6*%
X217500000Y-80480000D03*
X217500000Y-79520000D03*
%TD*%
%TO.C,C5*%
X192500000Y-80480000D03*
X192500000Y-79520000D03*
%TD*%
D11*
%TO.C,SW4*%
X267600000Y-46500000D03*
X259300000Y-46500000D03*
X267600000Y-51000000D03*
X259300000Y-51000000D03*
%TD*%
%TO.C,SW10*%
X217600000Y-96500000D03*
X209300000Y-96500000D03*
X217600000Y-101000000D03*
X209300000Y-101000000D03*
%TD*%
D12*
%TO.C,C12*%
X259500000Y-105480000D03*
X259500000Y-104520000D03*
%TD*%
%TO.C,C13*%
X192500000Y-130480000D03*
X192500000Y-129520000D03*
%TD*%
%TO.C,C4*%
X267500000Y-55460000D03*
X267500000Y-54500000D03*
%TD*%
D13*
%TO.C,H4*%
X251000000Y-116500000D03*
%TD*%
D11*
%TO.C,SW3*%
X242600000Y-46500000D03*
X234300000Y-46500000D03*
X234300000Y-51000000D03*
X242600000Y-51000000D03*
%TD*%
D10*
%TO.C,D9*%
X190950000Y-106600000D03*
X190950000Y-103400000D03*
X186050000Y-103400000D03*
X186050000Y-106600000D03*
%TD*%
D11*
%TO.C,SW2*%
X209300000Y-46500000D03*
X217600000Y-46500000D03*
X217600000Y-51000000D03*
X209300000Y-51000000D03*
%TD*%
D12*
%TO.C,C9*%
X192500000Y-105480000D03*
X192500000Y-104520000D03*
%TD*%
D10*
%TO.C,D7*%
X240950000Y-81600000D03*
X240950000Y-78400000D03*
X236050000Y-78400000D03*
X236050000Y-81600000D03*
%TD*%
D11*
%TO.C,SW13*%
X192560000Y-121500000D03*
X184260000Y-121500000D03*
X192560000Y-126000000D03*
X184260000Y-126000000D03*
%TD*%
D15*
%TO.C,U1*%
X181870000Y-66610000D03*
X184410000Y-66610000D03*
D16*
X186950000Y-66610000D03*
D15*
X189490000Y-66610000D03*
X192030000Y-66610000D03*
X194570000Y-66610000D03*
X197110000Y-66610000D03*
D16*
X199650000Y-66610000D03*
D15*
X202190000Y-66610000D03*
X204730000Y-66610000D03*
X207270000Y-66610000D03*
X209810000Y-66610000D03*
D16*
X212350000Y-66610000D03*
D15*
X214890000Y-66610000D03*
X217430000Y-66610000D03*
X219970000Y-66610000D03*
X222510000Y-66610000D03*
D16*
X225050000Y-66610000D03*
D15*
X227590000Y-66610000D03*
X230130000Y-66610000D03*
X230130000Y-84390000D03*
X227590000Y-84390000D03*
D16*
X225050000Y-84390000D03*
D15*
X222510000Y-84390000D03*
X219970000Y-84390000D03*
X217430000Y-84390000D03*
X214890000Y-84390000D03*
D16*
X212350000Y-84390000D03*
D15*
X209810000Y-84390000D03*
X207270000Y-84390000D03*
X204730000Y-84390000D03*
X202190000Y-84390000D03*
D16*
X199650000Y-84390000D03*
D15*
X197110000Y-84390000D03*
X194570000Y-84390000D03*
X192030000Y-84390000D03*
X189490000Y-84390000D03*
D16*
X186950000Y-84390000D03*
D15*
X184410000Y-84390000D03*
X181870000Y-84390000D03*
%TD*%
D17*
%TO.C,J1*%
X234750000Y-44467500D03*
D18*
X237250000Y-44467500D03*
X239750000Y-44467500D03*
X242250000Y-44467500D03*
%TD*%
M02*
