M48
; DRILL file {KiCad 7.0.8-7.0.8~ubuntu22.04.1} date Mon 30 Oct 2023 07:30:03 PM
; FORMAT={-:-/ absolute / metric / decimal}
; #@! TF.CreationDate,2023-10-30T19:30:03-07:00
; #@! TF.GenerationSoftware,Kicad,Pcbnew,7.0.8-7.0.8~ubuntu22.04.1
; #@! TF.FileFunction,NonPlated,1,2,NPTH
FMAT,2
METRIC
; #@! TA.AperFunction,NonPlated,NPTH,ComponentDrill
T1C0.600
; #@! TA.AperFunction,NonPlated,NPTH,ComponentDrill
T2C3.200
; #@! TA.AperFunction,NonPlated,NPTH,ComponentDrill
T3C5.200
%
G90
G05
T1
X147.11Y-66.725
X152.89Y-66.725
T2
X130.0Y-80.0
X130.0Y-120.0
X170.0Y-80.0
X170.0Y-120.0
T3
X120.0Y-70.0
X120.0Y-90.0
X120.0Y-110.0
X120.0Y-130.0
X140.0Y-70.0
X140.0Y-90.0
X140.0Y-110.0
X140.0Y-130.0
X160.0Y-70.0
X160.0Y-90.0
X160.0Y-110.0
X160.0Y-130.0
X180.0Y-70.0
X180.0Y-90.0
X180.0Y-110.0
X180.0Y-130.0
T0
M30
