%TF.GenerationSoftware,KiCad,Pcbnew,7.0.8-7.0.8~ubuntu22.04.1*%
%TF.CreationDate,2023-10-30T19:30:10-07:00*%
%TF.ProjectId,buttons,62757474-6f6e-4732-9e6b-696361645f70,rev?*%
%TF.SameCoordinates,Original*%
%TF.FileFunction,Profile,NP*%
%FSLAX46Y46*%
G04 Gerber Fmt 4.6, Leading zero omitted, Abs format (unit mm)*
G04 Created by KiCad (PCBNEW 7.0.8-7.0.8~ubuntu22.04.1) date 2023-10-30 19:30:10*
%MOMM*%
%LPD*%
G01*
G04 APERTURE LIST*
%ADD10C,0.150000*%
%TA.AperFunction,Profile*%
%ADD11C,0.100000*%
%TD*%
%TA.AperFunction,Profile*%
%ADD12C,0.120000*%
%TD*%
G04 APERTURE END LIST*
D10*
X184969819Y-73877506D02*
X185684104Y-73877506D01*
X185684104Y-73877506D02*
X185826961Y-73925125D01*
X185826961Y-73925125D02*
X185922200Y-74020363D01*
X185922200Y-74020363D02*
X185969819Y-74163220D01*
X185969819Y-74163220D02*
X185969819Y-74258458D01*
X185969819Y-72925125D02*
X185969819Y-73401315D01*
X185969819Y-73401315D02*
X184969819Y-73401315D01*
X185874580Y-72020363D02*
X185922200Y-72067982D01*
X185922200Y-72067982D02*
X185969819Y-72210839D01*
X185969819Y-72210839D02*
X185969819Y-72306077D01*
X185969819Y-72306077D02*
X185922200Y-72448934D01*
X185922200Y-72448934D02*
X185826961Y-72544172D01*
X185826961Y-72544172D02*
X185731723Y-72591791D01*
X185731723Y-72591791D02*
X185541247Y-72639410D01*
X185541247Y-72639410D02*
X185398390Y-72639410D01*
X185398390Y-72639410D02*
X185207914Y-72591791D01*
X185207914Y-72591791D02*
X185112676Y-72544172D01*
X185112676Y-72544172D02*
X185017438Y-72448934D01*
X185017438Y-72448934D02*
X184969819Y-72306077D01*
X184969819Y-72306077D02*
X184969819Y-72210839D01*
X184969819Y-72210839D02*
X185017438Y-72067982D01*
X185017438Y-72067982D02*
X185065057Y-72020363D01*
X184969819Y-71306077D02*
X185684104Y-71306077D01*
X185684104Y-71306077D02*
X185826961Y-71353696D01*
X185826961Y-71353696D02*
X185922200Y-71448934D01*
X185922200Y-71448934D02*
X185969819Y-71591791D01*
X185969819Y-71591791D02*
X185969819Y-71687029D01*
X185969819Y-70353696D02*
X185969819Y-70829886D01*
X185969819Y-70829886D02*
X184969819Y-70829886D01*
X185874580Y-69448934D02*
X185922200Y-69496553D01*
X185922200Y-69496553D02*
X185969819Y-69639410D01*
X185969819Y-69639410D02*
X185969819Y-69734648D01*
X185969819Y-69734648D02*
X185922200Y-69877505D01*
X185922200Y-69877505D02*
X185826961Y-69972743D01*
X185826961Y-69972743D02*
X185731723Y-70020362D01*
X185731723Y-70020362D02*
X185541247Y-70067981D01*
X185541247Y-70067981D02*
X185398390Y-70067981D01*
X185398390Y-70067981D02*
X185207914Y-70020362D01*
X185207914Y-70020362D02*
X185112676Y-69972743D01*
X185112676Y-69972743D02*
X185017438Y-69877505D01*
X185017438Y-69877505D02*
X184969819Y-69734648D01*
X184969819Y-69734648D02*
X184969819Y-69639410D01*
X184969819Y-69639410D02*
X185017438Y-69496553D01*
X185017438Y-69496553D02*
X185065057Y-69448934D01*
X184969819Y-68734648D02*
X185684104Y-68734648D01*
X185684104Y-68734648D02*
X185826961Y-68782267D01*
X185826961Y-68782267D02*
X185922200Y-68877505D01*
X185922200Y-68877505D02*
X185969819Y-69020362D01*
X185969819Y-69020362D02*
X185969819Y-69115600D01*
X185969819Y-67782267D02*
X185969819Y-68258457D01*
X185969819Y-68258457D02*
X184969819Y-68258457D01*
X185874580Y-66877505D02*
X185922200Y-66925124D01*
X185922200Y-66925124D02*
X185969819Y-67067981D01*
X185969819Y-67067981D02*
X185969819Y-67163219D01*
X185969819Y-67163219D02*
X185922200Y-67306076D01*
X185922200Y-67306076D02*
X185826961Y-67401314D01*
X185826961Y-67401314D02*
X185731723Y-67448933D01*
X185731723Y-67448933D02*
X185541247Y-67496552D01*
X185541247Y-67496552D02*
X185398390Y-67496552D01*
X185398390Y-67496552D02*
X185207914Y-67448933D01*
X185207914Y-67448933D02*
X185112676Y-67401314D01*
X185112676Y-67401314D02*
X185017438Y-67306076D01*
X185017438Y-67306076D02*
X184969819Y-67163219D01*
X184969819Y-67163219D02*
X184969819Y-67067981D01*
X184969819Y-67067981D02*
X185017438Y-66925124D01*
X185017438Y-66925124D02*
X185065057Y-66877505D01*
X184969819Y-66163219D02*
X185684104Y-66163219D01*
X185684104Y-66163219D02*
X185826961Y-66210838D01*
X185826961Y-66210838D02*
X185922200Y-66306076D01*
X185922200Y-66306076D02*
X185969819Y-66448933D01*
X185969819Y-66448933D02*
X185969819Y-66544171D01*
X185969819Y-65210838D02*
X185969819Y-65687028D01*
X185969819Y-65687028D02*
X184969819Y-65687028D01*
X185874580Y-64306076D02*
X185922200Y-64353695D01*
X185922200Y-64353695D02*
X185969819Y-64496552D01*
X185969819Y-64496552D02*
X185969819Y-64591790D01*
X185969819Y-64591790D02*
X185922200Y-64734647D01*
X185922200Y-64734647D02*
X185826961Y-64829885D01*
X185826961Y-64829885D02*
X185731723Y-64877504D01*
X185731723Y-64877504D02*
X185541247Y-64925123D01*
X185541247Y-64925123D02*
X185398390Y-64925123D01*
X185398390Y-64925123D02*
X185207914Y-64877504D01*
X185207914Y-64877504D02*
X185112676Y-64829885D01*
X185112676Y-64829885D02*
X185017438Y-64734647D01*
X185017438Y-64734647D02*
X184969819Y-64591790D01*
X184969819Y-64591790D02*
X184969819Y-64496552D01*
X184969819Y-64496552D02*
X185017438Y-64353695D01*
X185017438Y-64353695D02*
X185065057Y-64306076D01*
D11*
X186000000Y-62000000D02*
X114000000Y-62000000D01*
X188000000Y-135000000D02*
X188000000Y-64000000D01*
X114000000Y-138000000D02*
X185000000Y-138000000D01*
X112000000Y-64000000D02*
X112000000Y-136000000D01*
X185000000Y-138000000D02*
G75*
G03*
X188000000Y-135000000I0J3000000D01*
G01*
X112000000Y-136000000D02*
G75*
G03*
X114000000Y-138000000I1999999J-1D01*
G01*
X114000000Y-62000000D02*
G75*
G03*
X112000000Y-64000000I-1J-1999999D01*
G01*
X188000000Y-64000000D02*
G75*
G03*
X186000000Y-62000000I-2000000J0D01*
G01*
D12*
%TO.C,D3*%
X158300000Y-64500000D02*
X158300000Y-65500000D01*
X160300000Y-64500000D02*
X160300000Y-65500000D01*
X160300000Y-64500000D02*
G75*
G03*
X158300000Y-64500000I-1000000J0D01*
G01*
X158300000Y-65500000D02*
G75*
G03*
X160300000Y-65500000I1000000J0D01*
G01*
%TO.C,D11*%
X158300000Y-104500000D02*
X158300000Y-105500000D01*
X160300000Y-104500000D02*
X160300000Y-105500000D01*
X160300000Y-104500000D02*
G75*
G03*
X158300000Y-104500000I-1000000J0D01*
G01*
X158300000Y-105500000D02*
G75*
G03*
X160300000Y-105500000I1000000J0D01*
G01*
%TO.C,D13*%
X118300000Y-124500000D02*
X118300000Y-125500000D01*
X120300000Y-124500000D02*
X120300000Y-125500000D01*
X120300000Y-124500000D02*
G75*
G03*
X118300000Y-124500000I-1000000J0D01*
G01*
X118300000Y-125500000D02*
G75*
G03*
X120300000Y-125500000I1000000J0D01*
G01*
%TO.C,D2*%
X138300000Y-64500000D02*
X138300000Y-65500000D01*
X140300000Y-64500000D02*
X140300000Y-65500000D01*
X140300000Y-64500000D02*
G75*
G03*
X138300000Y-64500000I-1000000J0D01*
G01*
X138300000Y-65500000D02*
G75*
G03*
X140300000Y-65500000I1000000J0D01*
G01*
%TO.C,D16*%
X178300000Y-124500000D02*
X178300000Y-125500000D01*
X180300000Y-124500000D02*
X180300000Y-125500000D01*
X180300000Y-124500000D02*
G75*
G03*
X178300000Y-124500000I-1000000J0D01*
G01*
X178300000Y-125500000D02*
G75*
G03*
X180300000Y-125500000I1000000J0D01*
G01*
%TO.C,D8*%
X178300000Y-84500000D02*
X178300000Y-85500000D01*
X180300000Y-84500000D02*
X180300000Y-85500000D01*
X180300000Y-84500000D02*
G75*
G03*
X178300000Y-84500000I-1000000J0D01*
G01*
X178300000Y-85500000D02*
G75*
G03*
X180300000Y-85500000I1000000J0D01*
G01*
%TO.C,D6*%
X138300000Y-84500000D02*
X138300000Y-85500000D01*
X140300000Y-84500000D02*
X140300000Y-85500000D01*
X140300000Y-84500000D02*
G75*
G03*
X138300000Y-84500000I-1000000J0D01*
G01*
X138300000Y-85500000D02*
G75*
G03*
X140300000Y-85500000I1000000J0D01*
G01*
%TO.C,D10*%
X138300000Y-104500000D02*
X138300000Y-105500000D01*
X140300000Y-104500000D02*
X140300000Y-105500000D01*
X140300000Y-104500000D02*
G75*
G03*
X138300000Y-104500000I-1000000J0D01*
G01*
X138300000Y-105500000D02*
G75*
G03*
X140300000Y-105500000I1000000J0D01*
G01*
%TO.C,D12*%
X178300000Y-104500000D02*
X178300000Y-105500000D01*
X180300000Y-104500000D02*
X180300000Y-105500000D01*
X180300000Y-104500000D02*
G75*
G03*
X178300000Y-104500000I-1000000J0D01*
G01*
X178300000Y-105500000D02*
G75*
G03*
X180300000Y-105500000I1000000J0D01*
G01*
%TO.C,D1*%
X118300000Y-64500000D02*
X118300000Y-65500000D01*
X120300000Y-64500000D02*
X120300000Y-65500000D01*
X120300000Y-64500000D02*
G75*
G03*
X118300000Y-64500000I-1000000J0D01*
G01*
X118300000Y-65500000D02*
G75*
G03*
X120300000Y-65500000I1000000J0D01*
G01*
%TO.C,D4*%
X178300000Y-64500000D02*
X178300000Y-65500000D01*
X180300000Y-64500000D02*
X180300000Y-65500000D01*
X180300000Y-64500000D02*
G75*
G03*
X178300000Y-64500000I-1000000J0D01*
G01*
X178300000Y-65500000D02*
G75*
G03*
X180300000Y-65500000I1000000J0D01*
G01*
%TO.C,D5*%
X118300000Y-84500000D02*
X118300000Y-85500000D01*
X120300000Y-84500000D02*
X120300000Y-85500000D01*
X120300000Y-84500000D02*
G75*
G03*
X118300000Y-84500000I-1000000J0D01*
G01*
X118300000Y-85500000D02*
G75*
G03*
X120300000Y-85500000I1000000J0D01*
G01*
%TO.C,D14*%
X138300000Y-124500000D02*
X138300000Y-125500000D01*
X140300000Y-124500000D02*
X140300000Y-125500000D01*
X140300000Y-124500000D02*
G75*
G03*
X138300000Y-124500000I-1000000J0D01*
G01*
X138300000Y-125500000D02*
G75*
G03*
X140300000Y-125500000I1000000J0D01*
G01*
%TO.C,D15*%
X158300000Y-124500000D02*
X158300000Y-125500000D01*
X160300000Y-124500000D02*
X160300000Y-125500000D01*
X160300000Y-124500000D02*
G75*
G03*
X158300000Y-124500000I-1000000J0D01*
G01*
X158300000Y-125500000D02*
G75*
G03*
X160300000Y-125500000I1000000J0D01*
G01*
%TO.C,D9*%
X118300000Y-104500000D02*
X118300000Y-105500000D01*
X120300000Y-104500000D02*
X120300000Y-105500000D01*
X120300000Y-104500000D02*
G75*
G03*
X118300000Y-104500000I-1000000J0D01*
G01*
X118300000Y-105500000D02*
G75*
G03*
X120300000Y-105500000I1000000J0D01*
G01*
%TO.C,D7*%
X158300000Y-84500000D02*
X158300000Y-85500000D01*
X160300000Y-84500000D02*
X160300000Y-85500000D01*
X160300000Y-84500000D02*
G75*
G03*
X158300000Y-84500000I-1000000J0D01*
G01*
X158300000Y-85500000D02*
G75*
G03*
X160300000Y-85500000I1000000J0D01*
G01*
%TD*%
M02*
