%TF.GenerationSoftware,KiCad,Pcbnew,7.0.8-7.0.8~ubuntu22.04.1*%
%TF.CreationDate,2023-10-30T19:30:09-07:00*%
%TF.ProjectId,buttons,62757474-6f6e-4732-9e6b-696361645f70,rev?*%
%TF.SameCoordinates,Original*%
%TF.FileFunction,Paste,Bot*%
%TF.FilePolarity,Positive*%
%FSLAX46Y46*%
G04 Gerber Fmt 4.6, Leading zero omitted, Abs format (unit mm)*
G04 Created by KiCad (PCBNEW 7.0.8-7.0.8~ubuntu22.04.1) date 2023-10-30 19:30:09*
%MOMM*%
%LPD*%
G01*
G04 APERTURE LIST*
G04 Aperture macros list*
%AMRoundRect*
0 Rectangle with rounded corners*
0 $1 Rounding radius*
0 $2 $3 $4 $5 $6 $7 $8 $9 X,Y pos of 4 corners*
0 Add a 4 corners polygon primitive as box body*
4,1,4,$2,$3,$4,$5,$6,$7,$8,$9,$2,$3,0*
0 Add four circle primitives for the rounded corners*
1,1,$1+$1,$2,$3*
1,1,$1+$1,$4,$5*
1,1,$1+$1,$6,$7*
1,1,$1+$1,$8,$9*
0 Add four rect primitives between the rounded corners*
20,1,$1+$1,$2,$3,$4,$5,0*
20,1,$1+$1,$4,$5,$6,$7,0*
20,1,$1+$1,$6,$7,$8,$9,0*
20,1,$1+$1,$8,$9,$2,$3,0*%
%AMFreePoly0*
4,1,51,0.532219,0.614745,0.539696,0.609939,0.548497,0.608674,0.568109,0.591679,0.589937,0.577652,0.593629,0.569566,0.600348,0.563745,0.607658,0.538848,0.618438,0.515244,0.617172,0.506443,0.619677,0.497915,0.619677,-0.497915,0.614745,-0.532219,0.609939,-0.539696,0.608674,-0.548497,0.591679,-0.568109,0.577652,-0.589937,0.569566,-0.593629,0.563745,-0.600348,0.538848,-0.607658,
0.515244,-0.618438,0.506443,-0.617172,0.497915,-0.619677,-0.497915,-0.619677,-0.532219,-0.614745,-0.539696,-0.609939,-0.548497,-0.608674,-0.568109,-0.591679,-0.589937,-0.577652,-0.593629,-0.569566,-0.600348,-0.563745,-0.607658,-0.538848,-0.618438,-0.515244,-0.617172,-0.506443,-0.619677,-0.497915,-0.619677,0.397045,-0.616582,0.418565,-0.616895,0.422927,-0.615620,0.425261,-0.614745,0.431349,
-0.598456,0.456693,-0.584014,0.483144,-0.483144,0.584014,-0.465738,0.597042,-0.462875,0.600348,-0.460322,0.601097,-0.455399,0.604783,-0.425958,0.611187,-0.397045,0.619677,0.497915,0.619677,0.532219,0.614745,0.532219,0.614745,$1*%
%AMFreePoly1*
4,1,51,0.532219,0.614745,0.539696,0.609939,0.548497,0.608674,0.568109,0.591679,0.589937,0.577652,0.593629,0.569566,0.600348,0.563745,0.607658,0.538848,0.618438,0.515244,0.617172,0.506443,0.619677,0.497915,0.619677,-0.497915,0.614745,-0.532219,0.609939,-0.539696,0.608674,-0.548497,0.591679,-0.568109,0.577652,-0.589937,0.569566,-0.593629,0.563745,-0.600348,0.538848,-0.607658,
0.515244,-0.618438,0.506443,-0.617172,0.497915,-0.619677,-0.397045,-0.619677,-0.418564,-0.616583,-0.422927,-0.616895,-0.425261,-0.615620,-0.431349,-0.614745,-0.456693,-0.598456,-0.483144,-0.584014,-0.584014,-0.483144,-0.597044,-0.465737,-0.600348,-0.462875,-0.601097,-0.460323,-0.604783,-0.455400,-0.611187,-0.425956,-0.619677,-0.397045,-0.619677,0.497915,-0.614745,0.532219,-0.609939,0.539696,
-0.608674,0.548497,-0.591679,0.568109,-0.577652,0.589937,-0.569566,0.593629,-0.563745,0.600348,-0.538848,0.607658,-0.515244,0.618438,-0.506443,0.617172,-0.497915,0.619677,0.497915,0.619677,0.532219,0.614745,0.532219,0.614745,$1*%
%AMFreePoly2*
4,1,51,0.418565,0.616582,0.422927,0.616895,0.425261,0.615620,0.431349,0.614745,0.456693,0.598456,0.483144,0.584014,0.584014,0.483144,0.597042,0.465738,0.600348,0.462875,0.601097,0.460322,0.604783,0.455399,0.611187,0.425958,0.619677,0.397045,0.619677,-0.497915,0.614745,-0.532219,0.609939,-0.539696,0.608674,-0.548497,0.591679,-0.568109,0.577652,-0.589937,0.569566,-0.593629,
0.563745,-0.600348,0.538848,-0.607658,0.515244,-0.618438,0.506443,-0.617172,0.497915,-0.619677,-0.497915,-0.619677,-0.532219,-0.614745,-0.539696,-0.609939,-0.548497,-0.608674,-0.568109,-0.591679,-0.589937,-0.577652,-0.593629,-0.569566,-0.600348,-0.563745,-0.607658,-0.538848,-0.618438,-0.515244,-0.617172,-0.506443,-0.619677,-0.497915,-0.619677,0.497915,-0.614745,0.532219,-0.609939,0.539696,
-0.608674,0.548497,-0.591679,0.568109,-0.577652,0.589937,-0.569566,0.593629,-0.563745,0.600348,-0.538848,0.607658,-0.515244,0.618438,-0.506443,0.617172,-0.497915,0.619677,0.397045,0.619677,0.418565,0.616582,0.418565,0.616582,$1*%
%AMFreePoly3*
4,1,51,0.532219,0.614745,0.539696,0.609939,0.548497,0.608674,0.568109,0.591679,0.589937,0.577652,0.593629,0.569566,0.600348,0.563745,0.607658,0.538848,0.618438,0.515244,0.617172,0.506443,0.619677,0.497915,0.619677,-0.397045,0.616583,-0.418564,0.616895,-0.422927,0.615620,-0.425261,0.614745,-0.431349,0.598456,-0.456693,0.584014,-0.483144,0.483144,-0.584014,0.465737,-0.597044,
0.462875,-0.600348,0.460323,-0.601097,0.455400,-0.604783,0.425956,-0.611187,0.397045,-0.619677,-0.497915,-0.619677,-0.532219,-0.614745,-0.539696,-0.609939,-0.548497,-0.608674,-0.568109,-0.591679,-0.589937,-0.577652,-0.593629,-0.569566,-0.600348,-0.563745,-0.607658,-0.538848,-0.618438,-0.515244,-0.617172,-0.506443,-0.619677,-0.497915,-0.619677,0.497915,-0.614745,0.532219,-0.609939,0.539696,
-0.608674,0.548497,-0.591679,0.568109,-0.577652,0.589937,-0.569566,0.593629,-0.563745,0.600348,-0.538848,0.607658,-0.515244,0.618438,-0.506443,0.617172,-0.497915,0.619677,0.497915,0.619677,0.532219,0.614745,0.532219,0.614745,$1*%
G04 Aperture macros list end*
%ADD10RoundRect,0.100000X-0.150000X-0.100000X0.150000X-0.100000X0.150000X0.100000X-0.150000X0.100000X0*%
%ADD11FreePoly0,180.000000*%
%ADD12FreePoly1,180.000000*%
%ADD13FreePoly2,180.000000*%
%ADD14FreePoly3,180.000000*%
%ADD15RoundRect,0.050000X0.387500X0.050000X-0.387500X0.050000X-0.387500X-0.050000X0.387500X-0.050000X0*%
%ADD16RoundRect,0.050000X0.050000X0.387500X-0.050000X0.387500X-0.050000X-0.387500X0.050000X-0.387500X0*%
%ADD17R,0.700000X0.510000*%
%ADD18R,1.550000X1.300000*%
%ADD19RoundRect,0.225000X0.250000X-0.225000X0.250000X0.225000X-0.250000X0.225000X-0.250000X-0.225000X0*%
%ADD20RoundRect,0.225000X-0.225000X-0.250000X0.225000X-0.250000X0.225000X0.250000X-0.225000X0.250000X0*%
%ADD21R,0.600000X1.160000*%
%ADD22R,0.300000X1.160000*%
%ADD23RoundRect,0.225000X0.225000X0.250000X-0.225000X0.250000X-0.225000X-0.250000X0.225000X-0.250000X0*%
%ADD24RoundRect,0.200000X-0.275000X0.200000X-0.275000X-0.200000X0.275000X-0.200000X0.275000X0.200000X0*%
%ADD25RoundRect,0.225000X-0.250000X0.225000X-0.250000X-0.225000X0.250000X-0.225000X0.250000X0.225000X0*%
%ADD26RoundRect,0.200000X0.275000X-0.200000X0.275000X0.200000X-0.275000X0.200000X-0.275000X-0.200000X0*%
%ADD27R,1.300000X1.550000*%
%ADD28R,2.000000X1.500000*%
%ADD29R,2.000000X3.800000*%
%ADD30RoundRect,0.218750X-0.256250X0.218750X-0.256250X-0.218750X0.256250X-0.218750X0.256250X0.218750X0*%
%ADD31RoundRect,0.050000X0.075000X-0.100000X0.075000X0.100000X-0.075000X0.100000X-0.075000X-0.100000X0*%
%ADD32RoundRect,0.250000X-0.250000X-1.500000X0.250000X-1.500000X0.250000X1.500000X-0.250000X1.500000X0*%
%ADD33RoundRect,0.250001X-0.499999X-1.449999X0.499999X-1.449999X0.499999X1.449999X-0.499999X1.449999X0*%
%ADD34R,1.400000X1.200000*%
%ADD35RoundRect,0.200000X0.200000X0.275000X-0.200000X0.275000X-0.200000X-0.275000X0.200000X-0.275000X0*%
G04 APERTURE END LIST*
D10*
%TO.C,D3*%
X160650000Y-65300000D03*
X160650000Y-64700000D03*
X157950000Y-64700000D03*
X157950000Y-65300000D03*
%TD*%
D11*
%TO.C,U1*%
X150675000Y-100675000D03*
D12*
X150675000Y-99325000D03*
D13*
X149325000Y-100675000D03*
D14*
X149325000Y-99325000D03*
D15*
X153437500Y-97400000D03*
X153437500Y-97800000D03*
X153437500Y-98200000D03*
X153437500Y-98600000D03*
X153437500Y-99000000D03*
X153437500Y-99400000D03*
X153437500Y-99800000D03*
X153437500Y-100200000D03*
X153437500Y-100600000D03*
X153437500Y-101000000D03*
X153437500Y-101400000D03*
X153437500Y-101800000D03*
X153437500Y-102200000D03*
X153437500Y-102600000D03*
D16*
X152600000Y-103437500D03*
X152200000Y-103437500D03*
X151800000Y-103437500D03*
X151400000Y-103437500D03*
X151000000Y-103437500D03*
X150600000Y-103437500D03*
X150200000Y-103437500D03*
X149800000Y-103437500D03*
X149400000Y-103437500D03*
X149000000Y-103437500D03*
X148600000Y-103437500D03*
X148200000Y-103437500D03*
X147800000Y-103437500D03*
X147400000Y-103437500D03*
D15*
X146562500Y-102600000D03*
X146562500Y-102200000D03*
X146562500Y-101800000D03*
X146562500Y-101400000D03*
X146562500Y-101000000D03*
X146562500Y-100600000D03*
X146562500Y-100200000D03*
X146562500Y-99800000D03*
X146562500Y-99400000D03*
X146562500Y-99000000D03*
X146562500Y-98600000D03*
X146562500Y-98200000D03*
X146562500Y-97800000D03*
X146562500Y-97400000D03*
D16*
X147400000Y-96562500D03*
X147800000Y-96562500D03*
X148200000Y-96562500D03*
X148600000Y-96562500D03*
X149000000Y-96562500D03*
X149400000Y-96562500D03*
X149800000Y-96562500D03*
X150200000Y-96562500D03*
X150600000Y-96562500D03*
X151000000Y-96562500D03*
X151400000Y-96562500D03*
X151800000Y-96562500D03*
X152200000Y-96562500D03*
X152600000Y-96562500D03*
%TD*%
D17*
%TO.C,U3*%
X151160000Y-71550000D03*
X151160000Y-72500000D03*
X151160000Y-73450000D03*
X148840000Y-73450000D03*
X148840000Y-72500000D03*
X148840000Y-71550000D03*
%TD*%
D18*
%TO.C,SW17*%
X133975000Y-112250000D03*
X133975000Y-107750000D03*
X126025000Y-112250000D03*
X126025000Y-107750000D03*
%TD*%
D19*
%TO.C,C11*%
X162700000Y-107000000D03*
X162700000Y-105450000D03*
%TD*%
D20*
%TO.C,C28*%
X155925000Y-101400000D03*
X157475000Y-101400000D03*
%TD*%
D10*
%TO.C,D11*%
X160650000Y-105300000D03*
X160650000Y-104700000D03*
X157950000Y-104700000D03*
X157950000Y-105300000D03*
%TD*%
D21*
%TO.C,J2*%
X146800000Y-67785000D03*
X147600000Y-67785000D03*
D22*
X148750000Y-67785000D03*
X149750000Y-67785000D03*
X150250000Y-67785000D03*
X151250000Y-67785000D03*
D21*
X152400000Y-67785000D03*
X153200000Y-67785000D03*
X153200000Y-67785000D03*
X152400000Y-67785000D03*
D22*
X151750000Y-67785000D03*
X150750000Y-67785000D03*
X149250000Y-67785000D03*
X148250000Y-67785000D03*
D21*
X147600000Y-67785000D03*
X146800000Y-67785000D03*
%TD*%
D10*
%TO.C,D13*%
X120650000Y-125300000D03*
X120650000Y-124700000D03*
X117950000Y-124700000D03*
X117950000Y-125300000D03*
%TD*%
D23*
%TO.C,C17*%
X145375000Y-73800000D03*
X143825000Y-73800000D03*
%TD*%
D24*
%TO.C,R7*%
X147100000Y-84050000D03*
X147100000Y-85700000D03*
%TD*%
D10*
%TO.C,D2*%
X140650000Y-65300000D03*
X140650000Y-64700000D03*
X137950000Y-64700000D03*
X137950000Y-65300000D03*
%TD*%
D20*
%TO.C,C16*%
X175200000Y-126200000D03*
X176750000Y-126200000D03*
%TD*%
D19*
%TO.C,C14*%
X142700000Y-127050000D03*
X142700000Y-125500000D03*
%TD*%
D10*
%TO.C,D16*%
X180650000Y-125300000D03*
X180650000Y-124700000D03*
X177950000Y-124700000D03*
X177950000Y-125300000D03*
%TD*%
D25*
%TO.C,C21*%
X149300000Y-107025000D03*
X149300000Y-108575000D03*
%TD*%
D19*
%TO.C,C2*%
X142600000Y-67200000D03*
X142600000Y-65650000D03*
%TD*%
D20*
%TO.C,C27*%
X155125000Y-96900000D03*
X156675000Y-96900000D03*
%TD*%
D10*
%TO.C,D8*%
X180650000Y-85300000D03*
X180650000Y-84700000D03*
X177950000Y-84700000D03*
X177950000Y-85300000D03*
%TD*%
%TO.C,D6*%
X140650000Y-85300000D03*
X140650000Y-84700000D03*
X137950000Y-84700000D03*
X137950000Y-85300000D03*
%TD*%
D19*
%TO.C,C3*%
X162600000Y-67075000D03*
X162600000Y-65525000D03*
%TD*%
D10*
%TO.C,D10*%
X140650000Y-105300000D03*
X140650000Y-104700000D03*
X137950000Y-104700000D03*
X137950000Y-105300000D03*
%TD*%
D26*
%TO.C,R4*%
X144800000Y-95125000D03*
X144800000Y-93475000D03*
%TD*%
D19*
%TO.C,C20*%
X155100000Y-108575000D03*
X155100000Y-107025000D03*
%TD*%
%TO.C,C1*%
X122800000Y-67000000D03*
X122800000Y-65450000D03*
%TD*%
D10*
%TO.C,D12*%
X180650000Y-105300000D03*
X180650000Y-104700000D03*
X177950000Y-104700000D03*
X177950000Y-105300000D03*
%TD*%
D20*
%TO.C,C25*%
X144825000Y-92000000D03*
X146375000Y-92000000D03*
%TD*%
D27*
%TO.C,SW18*%
X167750000Y-93975000D03*
X172250000Y-93975000D03*
X167750000Y-86025000D03*
X172250000Y-86025000D03*
%TD*%
D19*
%TO.C,C7*%
X162700000Y-87175000D03*
X162700000Y-85625000D03*
%TD*%
%TO.C,C15*%
X162700000Y-127050000D03*
X162700000Y-125500000D03*
%TD*%
D10*
%TO.C,D1*%
X120650000Y-65300000D03*
X120650000Y-64700000D03*
X117950000Y-64700000D03*
X117950000Y-65300000D03*
%TD*%
D20*
%TO.C,C8*%
X175225000Y-86200000D03*
X176775000Y-86200000D03*
%TD*%
D10*
%TO.C,D4*%
X180650000Y-65300000D03*
X180650000Y-64700000D03*
X177950000Y-64700000D03*
X177950000Y-65300000D03*
%TD*%
D25*
%TO.C,C29*%
X147700000Y-107025000D03*
X147700000Y-108575000D03*
%TD*%
D10*
%TO.C,D5*%
X120650000Y-85300000D03*
X120650000Y-84700000D03*
X117950000Y-84700000D03*
X117950000Y-85300000D03*
%TD*%
D25*
%TO.C,C19*%
X156100000Y-90825000D03*
X156100000Y-92375000D03*
%TD*%
D23*
%TO.C,C24*%
X150975000Y-89900000D03*
X149425000Y-89900000D03*
%TD*%
D28*
%TO.C,U4*%
X145350000Y-82000000D03*
D29*
X151650000Y-79700000D03*
D28*
X145350000Y-77400000D03*
X145350000Y-79700000D03*
%TD*%
D30*
%TO.C,D17*%
X141650000Y-97862500D03*
X141650000Y-99437500D03*
%TD*%
D31*
%TO.C,U2*%
X153950000Y-94100000D03*
X153450000Y-94100000D03*
X152950000Y-94100000D03*
X152450000Y-94100000D03*
X152450000Y-91700000D03*
X152950000Y-91700000D03*
X153450000Y-91700000D03*
X153950000Y-91700000D03*
%TD*%
D10*
%TO.C,D14*%
X140650000Y-125300000D03*
X140650000Y-124700000D03*
X137950000Y-124700000D03*
X137950000Y-125300000D03*
%TD*%
D25*
%TO.C,C23*%
X146100000Y-107025000D03*
X146100000Y-108575000D03*
%TD*%
D10*
%TO.C,D15*%
X160650000Y-125300000D03*
X160650000Y-124700000D03*
X157950000Y-124700000D03*
X157950000Y-125300000D03*
%TD*%
D24*
%TO.C,R2*%
X147300000Y-71675000D03*
X147300000Y-73325000D03*
%TD*%
D19*
%TO.C,C26*%
X149400000Y-93875000D03*
X149400000Y-92325000D03*
%TD*%
D20*
%TO.C,C10*%
X135725000Y-107250000D03*
X137275000Y-107250000D03*
%TD*%
%TO.C,C6*%
X135225000Y-86200000D03*
X136775000Y-86200000D03*
%TD*%
D23*
%TO.C,C31*%
X144775000Y-97850000D03*
X143225000Y-97850000D03*
%TD*%
D19*
%TO.C,C5*%
X123000000Y-87025000D03*
X123000000Y-85475000D03*
%TD*%
D23*
%TO.C,C30*%
X143875000Y-100950000D03*
X142325000Y-100950000D03*
%TD*%
D20*
%TO.C,C12*%
X175200000Y-106200000D03*
X176750000Y-106200000D03*
%TD*%
D24*
%TO.C,R1*%
X152700000Y-71675000D03*
X152700000Y-73325000D03*
%TD*%
%TO.C,R6*%
X148650000Y-84050000D03*
X148650000Y-85700000D03*
%TD*%
D32*
%TO.C,J1*%
X127000000Y-103650000D03*
X129000000Y-103650000D03*
X131000000Y-103650000D03*
X133000000Y-103650000D03*
D33*
X124650000Y-97900000D03*
X135350000Y-97900000D03*
%TD*%
D34*
%TO.C,Y1*%
X151100000Y-106950000D03*
X153300000Y-106950000D03*
X153300000Y-108650000D03*
X151100000Y-108650000D03*
%TD*%
D19*
%TO.C,C13*%
X122700000Y-127075000D03*
X122700000Y-125525000D03*
%TD*%
D35*
%TO.C,R3*%
X152225000Y-105300000D03*
X150575000Y-105300000D03*
%TD*%
D20*
%TO.C,C4*%
X175200000Y-66200000D03*
X176750000Y-66200000D03*
%TD*%
D19*
%TO.C,C22*%
X146400000Y-95075000D03*
X146400000Y-93525000D03*
%TD*%
D20*
%TO.C,C18*%
X155500000Y-79700000D03*
X157050000Y-79700000D03*
%TD*%
D35*
%TO.C,R5*%
X144825000Y-99400000D03*
X143175000Y-99400000D03*
%TD*%
D10*
%TO.C,D9*%
X120650000Y-105300000D03*
X120650000Y-104700000D03*
X117950000Y-104700000D03*
X117950000Y-105300000D03*
%TD*%
D19*
%TO.C,C9*%
X123200000Y-108225000D03*
X123200000Y-106675000D03*
%TD*%
D10*
%TO.C,D7*%
X160650000Y-85300000D03*
X160650000Y-84700000D03*
X157950000Y-84700000D03*
X157950000Y-85300000D03*
%TD*%
M02*
