M48
; DRILL file {KiCad 7.0.8-7.0.8~ubuntu22.04.1} date Mon 30 Oct 2023 07:30:03 PM
; FORMAT={-:-/ absolute / metric / decimal}
; #@! TF.CreationDate,2023-10-30T19:30:03-07:00
; #@! TF.GenerationSoftware,Kicad,Pcbnew,7.0.8-7.0.8~ubuntu22.04.1
; #@! TF.FileFunction,Plated,1,2,PTH
FMAT,2
METRIC
; #@! TA.AperFunction,Plated,PTH,ComponentDrill
T1C0.300
; #@! TA.AperFunction,Plated,PTH,ViaDrill
T2C0.400
; #@! TA.AperFunction,Plated,PTH,ComponentDrill
T3C0.600
; #@! TA.AperFunction,Plated,PTH,ComponentDrill
T4C1.000
; #@! TA.AperFunction,Plated,PTH,ComponentDrill
T5C1.500
%
G90
G05
T1
X148.65Y-98.65
X148.65Y-101.35
X151.35Y-98.65
X151.35Y-101.35
T2
X116.7Y-104.7
X117.1Y-124.7
X118.0Y-82.7
X121.5Y-125.6
X121.6Y-65.5
X121.6Y-85.4
X121.6Y-105.5
X125.7Y-103.2
X125.7Y-104.2
X141.209Y-100.491
X141.5Y-85.4
X141.5Y-125.7
X141.6Y-65.6
X141.8Y-105.6
X142.1Y-84.3
X142.551Y-64.6
X143.4Y-104.7
X143.5Y-82.0
X144.935Y-100.979
X145.25Y-96.65
X145.8Y-69.0
X145.95Y-83.55
X145.95Y-85.1
X146.4Y-90.9
X146.7Y-69.0
X147.3Y-74.5
X147.7Y-109.7
X149.3Y-82.55
X149.4Y-91.1
X149.409Y-105.809
X149.725Y-85.842
X151.2Y-84.3
X152.1Y-74.3
X153.249Y-69.0
X153.3Y-79.7
X153.3Y-104.5
X153.895Y-95.495
X153.9Y-72.5
X154.2Y-69.0
X154.2Y-79.7
X154.25Y-90.35
X154.4Y-85.4
X154.5Y-96.1
X154.9Y-91.0
X154.9Y-92.5
X155.9Y-62.95
X156.2Y-64.7
X156.6Y-111.6
X157.7Y-96.7
X158.6Y-101.4
X160.603Y-106.603
X161.5Y-65.5
X161.5Y-125.8
X161.6Y-85.5
X161.6Y-105.4
X177.25Y-67.7
X181.5Y-85.6
X181.5Y-125.3
X181.6Y-105.8
X182.0Y-84.7
X182.0Y-104.7
X182.3Y-64.7
T4
X147.475Y-114.0
X150.015Y-114.0
X152.555Y-114.0
T5
X115.6Y-74.7
X115.6Y-94.7
X115.6Y-114.7
X115.6Y-134.7
X122.6Y-75.75
X122.6Y-95.75
X122.6Y-115.75
X122.6Y-135.75
X135.6Y-74.7
X135.6Y-94.7
X135.6Y-114.7
X135.6Y-134.7
X142.6Y-75.75
X142.6Y-95.75
X142.6Y-115.75
X142.6Y-135.75
X155.6Y-74.7
X155.6Y-94.7
X155.6Y-114.7
X155.6Y-134.7
X162.6Y-75.75
X162.6Y-95.75
X162.6Y-115.75
X162.6Y-135.75
X175.6Y-74.7
X175.6Y-94.7
X175.6Y-114.7
X175.6Y-134.7
X182.6Y-75.75
X182.6Y-95.75
X182.6Y-115.75
X182.6Y-135.75
T3
G00X145.68Y-62.635
M15
G01X145.68Y-63.435
M16
G05
G00X145.68Y-66.655
M15
G01X145.68Y-67.755
M16
G05
G00X154.32Y-62.635
M15
G01X154.32Y-63.435
M16
G05
G00X154.32Y-66.655
M15
G01X154.32Y-67.755
M16
G05
T0
M30
