%TF.GenerationSoftware,KiCad,Pcbnew,7.0.8-7.0.8~ubuntu22.04.1*%
%TF.CreationDate,2023-10-30T19:30:10-07:00*%
%TF.ProjectId,buttons,62757474-6f6e-4732-9e6b-696361645f70,rev?*%
%TF.SameCoordinates,Original*%
%TF.FileFunction,Soldermask,Top*%
%TF.FilePolarity,Negative*%
%FSLAX46Y46*%
G04 Gerber Fmt 4.6, Leading zero omitted, Abs format (unit mm)*
G04 Created by KiCad (PCBNEW 7.0.8-7.0.8~ubuntu22.04.1) date 2023-10-30 19:30:10*
%MOMM*%
%LPD*%
G01*
G04 APERTURE LIST*
%ADD10C,5.200000*%
%ADD11C,2.200000*%
%ADD12C,3.200000*%
%ADD13R,1.700000X1.700000*%
%ADD14O,1.700000X1.700000*%
%ADD15C,0.600000*%
%ADD16O,0.900000X1.700000*%
%ADD17O,0.900000X2.000000*%
G04 APERTURE END LIST*
D10*
%TO.C,SW9*%
X120000000Y-110000000D03*
D11*
X115600000Y-114700000D03*
X122600000Y-115750000D03*
%TD*%
D10*
%TO.C,SW15*%
X160000000Y-130000000D03*
D11*
X155600000Y-134700000D03*
X162600000Y-135750000D03*
%TD*%
D10*
%TO.C,SW6*%
X140000000Y-90000000D03*
D11*
X135600000Y-94700000D03*
X142600000Y-95750000D03*
%TD*%
D10*
%TO.C,SW5*%
X120000000Y-90000000D03*
D11*
X115600000Y-94700000D03*
X122600000Y-95750000D03*
%TD*%
D12*
%TO.C,H2*%
X170000000Y-80000000D03*
%TD*%
D10*
%TO.C,SW1*%
X120000000Y-70000000D03*
D11*
X115600000Y-74700000D03*
X122600000Y-75750000D03*
%TD*%
D10*
%TO.C,SW7*%
X160000000Y-90000000D03*
D11*
X155600000Y-94700000D03*
X162600000Y-95750000D03*
%TD*%
D10*
%TO.C,SW14*%
X140000000Y-130000000D03*
D11*
X135600000Y-134700000D03*
X142600000Y-135750000D03*
%TD*%
D10*
%TO.C,SW12*%
X180000000Y-110000000D03*
D11*
X175600000Y-114700000D03*
X182600000Y-115750000D03*
%TD*%
D12*
%TO.C,H3*%
X130000000Y-120000000D03*
%TD*%
D10*
%TO.C,SW8*%
X180000000Y-90000000D03*
D11*
X175600000Y-94700000D03*
X182600000Y-95750000D03*
%TD*%
D10*
%TO.C,SW11*%
X160000000Y-110000000D03*
D11*
X155600000Y-114700000D03*
X162600000Y-115750000D03*
%TD*%
D12*
%TO.C,H1*%
X130000000Y-80000000D03*
%TD*%
D10*
%TO.C,SW16*%
X180000000Y-130000000D03*
D11*
X175600000Y-134700000D03*
X182600000Y-135750000D03*
%TD*%
D10*
%TO.C,SW4*%
X180000000Y-70000000D03*
D11*
X175600000Y-74700000D03*
X182600000Y-75750000D03*
%TD*%
D10*
%TO.C,SW10*%
X140000000Y-110000000D03*
D11*
X135600000Y-114700000D03*
X142600000Y-115750000D03*
%TD*%
D12*
%TO.C,H4*%
X170000000Y-120000000D03*
%TD*%
D10*
%TO.C,SW3*%
X160000000Y-70000000D03*
D11*
X155600000Y-74700000D03*
X162600000Y-75750000D03*
%TD*%
D10*
%TO.C,SW2*%
X140000000Y-70000000D03*
D11*
X135600000Y-74700000D03*
X142600000Y-75750000D03*
%TD*%
D10*
%TO.C,SW13*%
X120000000Y-130000000D03*
D11*
X115600000Y-134700000D03*
X122600000Y-135750000D03*
%TD*%
D13*
%TO.C,J3*%
X147475000Y-114000000D03*
D14*
X150015000Y-114000000D03*
X152555000Y-114000000D03*
%TD*%
D15*
%TO.C,J2*%
X147110000Y-66725000D03*
X152890000Y-66725000D03*
D16*
X145680000Y-63035000D03*
D17*
X145680000Y-67205000D03*
D16*
X154320000Y-63035000D03*
D17*
X154320000Y-67205000D03*
%TD*%
M02*
