%TF.GenerationSoftware,KiCad,Pcbnew,7.0.8-7.0.8~ubuntu22.04.1*%
%TF.CreationDate,2023-10-30T19:30:08-07:00*%
%TF.ProjectId,buttons,62757474-6f6e-4732-9e6b-696361645f70,rev?*%
%TF.SameCoordinates,Original*%
%TF.FileFunction,Copper,L1,Top*%
%TF.FilePolarity,Positive*%
%FSLAX46Y46*%
G04 Gerber Fmt 4.6, Leading zero omitted, Abs format (unit mm)*
G04 Created by KiCad (PCBNEW 7.0.8-7.0.8~ubuntu22.04.1) date 2023-10-30 19:30:08*
%MOMM*%
%LPD*%
G01*
G04 APERTURE LIST*
%TA.AperFunction,ComponentPad*%
%ADD10C,2.200000*%
%TD*%
%TA.AperFunction,ComponentPad*%
%ADD11C,0.500000*%
%TD*%
%TA.AperFunction,SMDPad,CuDef*%
%ADD12R,3.200000X3.200000*%
%TD*%
%TA.AperFunction,ComponentPad*%
%ADD13R,1.700000X1.700000*%
%TD*%
%TA.AperFunction,ComponentPad*%
%ADD14O,1.700000X1.700000*%
%TD*%
%TA.AperFunction,ComponentPad*%
%ADD15O,0.900000X1.700000*%
%TD*%
%TA.AperFunction,ComponentPad*%
%ADD16O,0.900000X2.000000*%
%TD*%
%TA.AperFunction,ViaPad*%
%ADD17C,0.800000*%
%TD*%
%TA.AperFunction,Conductor*%
%ADD18C,0.200000*%
%TD*%
%TA.AperFunction,Conductor*%
%ADD19C,0.700000*%
%TD*%
%TA.AperFunction,Conductor*%
%ADD20C,0.500000*%
%TD*%
G04 APERTURE END LIST*
D10*
%TO.P,SW9,1,A*%
%TO.N,SW9*%
X115600000Y-114700000D03*
%TO.P,SW9,2,B*%
%TO.N,GND*%
X122600000Y-115750000D03*
%TD*%
%TO.P,SW15,1,A*%
%TO.N,SW15*%
X155600000Y-134700000D03*
%TO.P,SW15,2,B*%
%TO.N,GND*%
X162600000Y-135750000D03*
%TD*%
%TO.P,SW6,1,A*%
%TO.N,SW6*%
X135600000Y-94700000D03*
%TO.P,SW6,2,B*%
%TO.N,GND*%
X142600000Y-95750000D03*
%TD*%
%TO.P,SW5,1,A*%
%TO.N,SW5*%
X115600000Y-94700000D03*
%TO.P,SW5,2,B*%
%TO.N,GND*%
X122600000Y-95750000D03*
%TD*%
%TO.P,SW1,1,A*%
%TO.N,SW1*%
X115600000Y-74700000D03*
%TO.P,SW1,2,B*%
%TO.N,GND*%
X122600000Y-75750000D03*
%TD*%
%TO.P,SW7,1,A*%
%TO.N,SW7*%
X155600000Y-94700000D03*
%TO.P,SW7,2,B*%
%TO.N,GND*%
X162600000Y-95750000D03*
%TD*%
%TO.P,SW14,1,A*%
%TO.N,SW14*%
X135600000Y-134700000D03*
%TO.P,SW14,2,B*%
%TO.N,GND*%
X142600000Y-135750000D03*
%TD*%
%TO.P,SW12,1,A*%
%TO.N,SW12*%
X175600000Y-114700000D03*
%TO.P,SW12,2,B*%
%TO.N,GND*%
X182600000Y-115750000D03*
%TD*%
%TO.P,SW8,1,A*%
%TO.N,SW8*%
X175600000Y-94700000D03*
%TO.P,SW8,2,B*%
%TO.N,GND*%
X182600000Y-95750000D03*
%TD*%
%TO.P,SW11,1,A*%
%TO.N,SW11*%
X155600000Y-114700000D03*
%TO.P,SW11,2,B*%
%TO.N,GND*%
X162600000Y-115750000D03*
%TD*%
%TO.P,SW16,1,A*%
%TO.N,SW16*%
X175600000Y-134700000D03*
%TO.P,SW16,2,B*%
%TO.N,GND*%
X182600000Y-135750000D03*
%TD*%
%TO.P,SW4,1,A*%
%TO.N,SW4*%
X175600000Y-74700000D03*
%TO.P,SW4,2,B*%
%TO.N,GND*%
X182600000Y-75750000D03*
%TD*%
%TO.P,SW10,1,A*%
%TO.N,SW10*%
X135600000Y-114700000D03*
%TO.P,SW10,2,B*%
%TO.N,GND*%
X142600000Y-115750000D03*
%TD*%
%TO.P,SW3,1,A*%
%TO.N,SW3*%
X155600000Y-74700000D03*
%TO.P,SW3,2,B*%
%TO.N,GND*%
X162600000Y-75750000D03*
%TD*%
%TO.P,SW2,1,A*%
%TO.N,SW2*%
X135600000Y-74700000D03*
%TO.P,SW2,2,B*%
%TO.N,GND*%
X142600000Y-75750000D03*
%TD*%
%TO.P,SW13,1,A*%
%TO.N,SW13*%
X115600000Y-134700000D03*
%TO.P,SW13,2,B*%
%TO.N,GND*%
X122600000Y-135750000D03*
%TD*%
D11*
%TO.P,U1,57,GND*%
%TO.N,GND*%
X151350000Y-101350000D03*
X151350000Y-98650000D03*
D12*
X150000000Y-100000000D03*
D11*
X148650000Y-101350000D03*
X148650000Y-98650000D03*
%TD*%
D13*
%TO.P,J3,1,Pin_1*%
%TO.N,/microcontroller/SWDIO*%
X147475000Y-114000000D03*
D14*
%TO.P,J3,2,Pin_2*%
%TO.N,GND*%
X150015000Y-114000000D03*
%TO.P,J3,3,Pin_3*%
%TO.N,/microcontroller/SWDCLK*%
X152555000Y-114000000D03*
%TD*%
D15*
%TO.P,J2,S1,SHIELD*%
%TO.N,unconnected-(J2-SHIELD-PadS1)*%
X145680000Y-63035000D03*
D16*
X145680000Y-67205000D03*
D15*
X154320000Y-63035000D03*
D16*
X154320000Y-67205000D03*
%TD*%
D17*
%TO.N,+3V3*%
X154500000Y-96100000D03*
X154250000Y-90350000D03*
%TO.N,GND*%
X143500000Y-82000000D03*
%TO.N,+5V*%
X160602593Y-106602593D03*
X154400000Y-85400000D03*
%TO.N,GND*%
X161600000Y-85500000D03*
X149724500Y-85842164D03*
X121600000Y-65500000D03*
X141600000Y-65600000D03*
X181600000Y-105800000D03*
X141500000Y-125700000D03*
X147700000Y-109700000D03*
X153900000Y-72500000D03*
X181500000Y-85600000D03*
X141500000Y-85400000D03*
X146400000Y-90900000D03*
X141208836Y-100491164D03*
X141800000Y-105600000D03*
X153300000Y-104500000D03*
X125700000Y-103200000D03*
X161500000Y-65500000D03*
X161500000Y-125800000D03*
X158600000Y-101400000D03*
X146700000Y-69000000D03*
X149400000Y-91100000D03*
X161600000Y-105400000D03*
X125700000Y-104200000D03*
X145950000Y-85100000D03*
X121600000Y-85400000D03*
X181500000Y-125300000D03*
X147300000Y-74500000D03*
X154200000Y-69000000D03*
X152100000Y-74300000D03*
X157700000Y-96700000D03*
X155900000Y-62950000D03*
X177250000Y-67700000D03*
X149300000Y-82550000D03*
X154900000Y-92500000D03*
X145800000Y-69000000D03*
X145950000Y-83550000D03*
X121500000Y-125600000D03*
X153249500Y-69000000D03*
X121600000Y-105500000D03*
%TO.N,Net-(D2-DOUT)*%
X156200000Y-64700000D03*
X142551012Y-64600500D03*
%TO.N,Net-(D4-DOUT)*%
X118000000Y-82700000D03*
X182300000Y-64700000D03*
%TO.N,Net-(D6-DOUT)*%
X142100000Y-84300000D03*
X151200000Y-84300000D03*
%TO.N,Net-(D8-DOUT)*%
X116700000Y-104700000D03*
X182000000Y-84700000D03*
%TO.N,Net-(D10-DOUT)*%
X143400000Y-104700000D03*
X156600000Y-111600000D03*
%TO.N,Net-(D12-DOUT)*%
X117100000Y-124700000D03*
X182000000Y-104700000D03*
%TO.N,+3V3*%
X145250000Y-96650000D03*
X149408835Y-105808835D03*
X154200000Y-79700000D03*
X153300000Y-79700000D03*
X154900000Y-91000000D03*
X153894622Y-95494622D03*
X144934947Y-100978753D03*
%TD*%
D18*
%TO.N,Net-(D2-DOUT)*%
X142551012Y-64600500D02*
X142650512Y-64700000D01*
X142650512Y-64700000D02*
X156200000Y-64700000D01*
%TO.N,Net-(D4-DOUT)*%
X118000000Y-82700000D02*
X115300000Y-82700000D01*
X113400000Y-68400000D02*
X115000000Y-66800000D01*
X156950000Y-66800000D02*
X180200000Y-66800000D01*
X115300000Y-82700000D02*
X113400000Y-80800000D01*
X113400000Y-80800000D02*
X113400000Y-68400000D01*
X115000000Y-66800000D02*
X142550000Y-66800000D01*
X142550000Y-66800000D02*
X144250000Y-65100000D01*
X144250000Y-65100000D02*
X155250000Y-65100000D01*
X155250000Y-65100000D02*
X156950000Y-66800000D01*
X180200000Y-66800000D02*
X182300000Y-64700000D01*
D19*
%TO.N,+3V3*%
X154500000Y-96100000D02*
X154800000Y-96400000D01*
X154250000Y-90350000D02*
X153300000Y-89400000D01*
D20*
%TO.N,+5V*%
X160602593Y-106602593D02*
X160602593Y-98802593D01*
X160602593Y-98802593D02*
X159500000Y-97700000D01*
X159500000Y-94200000D02*
X154400000Y-89100000D01*
X154400000Y-89100000D02*
X154400000Y-85400000D01*
X159500000Y-97700000D02*
X159500000Y-94200000D01*
D18*
%TO.N,Net-(D6-DOUT)*%
X142100000Y-84300000D02*
X151200000Y-84300000D01*
%TO.N,Net-(D8-DOUT)*%
X184400000Y-87100000D02*
X184400000Y-126165686D01*
X114200000Y-107200000D02*
X116700000Y-104700000D01*
X117784314Y-127050000D02*
X114200000Y-123465686D01*
X183415686Y-127150000D02*
X183315686Y-127050000D01*
X183315686Y-127050000D02*
X117784314Y-127050000D01*
X182000000Y-84700000D02*
X184400000Y-87100000D01*
X184400000Y-126165686D02*
X183415686Y-127150000D01*
X114200000Y-123465686D02*
X114200000Y-107200000D01*
%TO.N,Net-(D10-DOUT)*%
X151300000Y-111600000D02*
X151100000Y-111400000D01*
X151100000Y-111400000D02*
X146800000Y-111400000D01*
X146800000Y-111400000D02*
X143400000Y-108000000D01*
X143400000Y-108000000D02*
X143400000Y-104700000D01*
X156600000Y-111600000D02*
X151300000Y-111600000D01*
%TO.N,Net-(D12-DOUT)*%
X183350000Y-126650000D02*
X184000000Y-126000000D01*
X184000000Y-106700000D02*
X182000000Y-104700000D01*
X117100000Y-125800000D02*
X117950000Y-126650000D01*
X184000000Y-126000000D02*
X184000000Y-106700000D01*
X117100000Y-124700000D02*
X117100000Y-125800000D01*
X117950000Y-126650000D02*
X183350000Y-126650000D01*
D19*
%TO.N,+3V3*%
X154900000Y-91000000D02*
X154250000Y-90350000D01*
X144934947Y-100978753D02*
X145000000Y-101043806D01*
X153300000Y-89400000D02*
X153300000Y-79700000D01*
X157200000Y-95700000D02*
X158700000Y-95700000D01*
X158700000Y-95700000D02*
X158700000Y-94800000D01*
X144350000Y-98300000D02*
X145250000Y-97400000D01*
X150950000Y-110650000D02*
X152600000Y-109000000D01*
X156500000Y-96400000D02*
X157200000Y-95700000D01*
X140815333Y-101441164D02*
X140258836Y-100884667D01*
X159751979Y-101848021D02*
X159751979Y-99083349D01*
X152600000Y-109000000D02*
X159751979Y-101848021D01*
X158700000Y-98031370D02*
X158700000Y-95700000D01*
X143300000Y-100900000D02*
X142758836Y-101441164D01*
X146969238Y-110650000D02*
X150950000Y-110650000D01*
X145000000Y-108680762D02*
X146969238Y-110650000D01*
X140258836Y-100097661D02*
X142056497Y-98300000D01*
X158700000Y-94800000D02*
X154900000Y-91000000D01*
X145000000Y-101043806D02*
X145000000Y-108680762D01*
X154800000Y-96400000D02*
X156500000Y-96400000D01*
X144934947Y-100978753D02*
X144856194Y-100900000D01*
X153300000Y-79700000D02*
X154200000Y-79700000D01*
X142056497Y-98300000D02*
X144350000Y-98300000D01*
X140258836Y-100884667D02*
X140258836Y-100097661D01*
X144856194Y-100900000D02*
X143300000Y-100900000D01*
X153894622Y-95494622D02*
X154500000Y-96100000D01*
X145250000Y-97400000D02*
X145250000Y-96650000D01*
X159751979Y-99083349D02*
X158700000Y-98031370D01*
D18*
X149408835Y-105808835D02*
X152600000Y-109000000D01*
D19*
X142758836Y-101441164D02*
X140815333Y-101441164D01*
%TD*%
%TA.AperFunction,Conductor*%
%TO.N,GND*%
G36*
X145212894Y-62019407D02*
G01*
X145248858Y-62068907D01*
X145248858Y-62130093D01*
X145226871Y-62167270D01*
X145149551Y-62249606D01*
X145070373Y-62393630D01*
X145029500Y-62552820D01*
X145029500Y-63475925D01*
X145044927Y-63598053D01*
X145044928Y-63598056D01*
X145105432Y-63750870D01*
X145105434Y-63750874D01*
X145202037Y-63883837D01*
X145328674Y-63988600D01*
X145477387Y-64058579D01*
X145638823Y-64089375D01*
X145638828Y-64089376D01*
X145638829Y-64089375D01*
X145638830Y-64089376D01*
X145802860Y-64079056D01*
X145959171Y-64028268D01*
X145979360Y-64015456D01*
X146044949Y-63973831D01*
X146097940Y-63940202D01*
X146210448Y-63820393D01*
X146289627Y-63676368D01*
X146330500Y-63517177D01*
X146330500Y-62594075D01*
X146325289Y-62552823D01*
X146315072Y-62471946D01*
X146315071Y-62471943D01*
X146315071Y-62471942D01*
X146254568Y-62319129D01*
X146157963Y-62186163D01*
X146145413Y-62175781D01*
X146112629Y-62124121D01*
X146116470Y-62063057D01*
X146155470Y-62015912D01*
X146208518Y-62000500D01*
X153794703Y-62000500D01*
X153852894Y-62019407D01*
X153888858Y-62068907D01*
X153888858Y-62130093D01*
X153866871Y-62167270D01*
X153789551Y-62249606D01*
X153710373Y-62393630D01*
X153669500Y-62552820D01*
X153669500Y-63475925D01*
X153684927Y-63598053D01*
X153684928Y-63598056D01*
X153745432Y-63750870D01*
X153745434Y-63750874D01*
X153842037Y-63883837D01*
X153968674Y-63988600D01*
X154117387Y-64058579D01*
X154278823Y-64089375D01*
X154278828Y-64089376D01*
X154278829Y-64089375D01*
X154278830Y-64089376D01*
X154442860Y-64079056D01*
X154599171Y-64028268D01*
X154619360Y-64015456D01*
X154684949Y-63973831D01*
X154737940Y-63940202D01*
X154850448Y-63820393D01*
X154929627Y-63676368D01*
X154970500Y-63517177D01*
X154970500Y-62594075D01*
X154965289Y-62552823D01*
X154955072Y-62471946D01*
X154955071Y-62471943D01*
X154955071Y-62471942D01*
X154894568Y-62319129D01*
X154797963Y-62186163D01*
X154785413Y-62175781D01*
X154752629Y-62124121D01*
X154756470Y-62063057D01*
X154795470Y-62015912D01*
X154848518Y-62000500D01*
X185998381Y-62000500D01*
X186001615Y-62000605D01*
X186083743Y-62005988D01*
X186266216Y-62019040D01*
X186272347Y-62019866D01*
X186305499Y-62026459D01*
X186389441Y-62043157D01*
X186534365Y-62074683D01*
X186539706Y-62076166D01*
X186659429Y-62116806D01*
X186792341Y-62166380D01*
X186796915Y-62168355D01*
X186912747Y-62225476D01*
X186912952Y-62225578D01*
X187035415Y-62292448D01*
X187039173Y-62294724D01*
X187146911Y-62366712D01*
X187149072Y-62368240D01*
X187164928Y-62380110D01*
X187259030Y-62450555D01*
X187261989Y-62452953D01*
X187359796Y-62538727D01*
X187362161Y-62540942D01*
X187459056Y-62637837D01*
X187461264Y-62640194D01*
X187547036Y-62737998D01*
X187549443Y-62740968D01*
X187631755Y-62850922D01*
X187633286Y-62853087D01*
X187705274Y-62960825D01*
X187707562Y-62964604D01*
X187774421Y-63087047D01*
X187831637Y-63203069D01*
X187833622Y-63207667D01*
X187883195Y-63340575D01*
X187923824Y-63460263D01*
X187925321Y-63465657D01*
X187956847Y-63610580D01*
X187980132Y-63727651D01*
X187980958Y-63733782D01*
X187994017Y-63916350D01*
X187999394Y-63998381D01*
X187999500Y-64001620D01*
X187999500Y-134998708D01*
X187999432Y-135001300D01*
X187992509Y-135133383D01*
X187982161Y-135317639D01*
X187981629Y-135322609D01*
X187957394Y-135475630D01*
X187929680Y-135638737D01*
X187928693Y-135643259D01*
X187887579Y-135796702D01*
X187842769Y-135952235D01*
X187841416Y-135956272D01*
X187783877Y-136106170D01*
X187722453Y-136254459D01*
X187720825Y-136257990D01*
X187647488Y-136401922D01*
X187570150Y-136541855D01*
X187568340Y-136544871D01*
X187480020Y-136680872D01*
X187387637Y-136811071D01*
X187385735Y-136813579D01*
X187284184Y-136938985D01*
X187282625Y-136940818D01*
X187177040Y-137058967D01*
X187175132Y-137060985D01*
X187060985Y-137175132D01*
X187058967Y-137177040D01*
X186940818Y-137282625D01*
X186938985Y-137284184D01*
X186813579Y-137385735D01*
X186811071Y-137387637D01*
X186680872Y-137480020D01*
X186544871Y-137568340D01*
X186541855Y-137570150D01*
X186401922Y-137647488D01*
X186257990Y-137720825D01*
X186254459Y-137722453D01*
X186106170Y-137783877D01*
X185956272Y-137841416D01*
X185952235Y-137842769D01*
X185796702Y-137887579D01*
X185643259Y-137928693D01*
X185638737Y-137929680D01*
X185475630Y-137957394D01*
X185322609Y-137981629D01*
X185317639Y-137982161D01*
X185133383Y-137992509D01*
X185036388Y-137997592D01*
X185001293Y-137999432D01*
X184998709Y-137999500D01*
X114001621Y-137999500D01*
X113998383Y-137999394D01*
X113988296Y-137998732D01*
X113916351Y-137994017D01*
X113733782Y-137980958D01*
X113727651Y-137980132D01*
X113610580Y-137956847D01*
X113465657Y-137925321D01*
X113460269Y-137923825D01*
X113340575Y-137883195D01*
X113305064Y-137869950D01*
X113207667Y-137833622D01*
X113203069Y-137831637D01*
X113087047Y-137774421D01*
X112964604Y-137707562D01*
X112960825Y-137705274D01*
X112853084Y-137633284D01*
X112850919Y-137631753D01*
X112740973Y-137549447D01*
X112737998Y-137547036D01*
X112707038Y-137519885D01*
X112640193Y-137461263D01*
X112637829Y-137459049D01*
X112540949Y-137362169D01*
X112538734Y-137359804D01*
X112471050Y-137282625D01*
X112452953Y-137261989D01*
X112450551Y-137259025D01*
X112368245Y-137149079D01*
X112366714Y-137146914D01*
X112294724Y-137039173D01*
X112292448Y-137035415D01*
X112225578Y-136912952D01*
X112209394Y-136880134D01*
X112168355Y-136796915D01*
X112166380Y-136792341D01*
X112116806Y-136659429D01*
X112076166Y-136539706D01*
X112074683Y-136534365D01*
X112043157Y-136389441D01*
X112019866Y-136272347D01*
X112019040Y-136266216D01*
X112007593Y-136106170D01*
X112005988Y-136083743D01*
X112000605Y-136001616D01*
X112000500Y-135998380D01*
X112000500Y-134700003D01*
X114294532Y-134700003D01*
X114314363Y-134926684D01*
X114373262Y-135146500D01*
X114469426Y-135352723D01*
X114469434Y-135352737D01*
X114599946Y-135539130D01*
X114599947Y-135539132D01*
X114599950Y-135539135D01*
X114599953Y-135539139D01*
X114760861Y-135700047D01*
X114760864Y-135700049D01*
X114760867Y-135700052D01*
X114760869Y-135700053D01*
X114769497Y-135706094D01*
X114947266Y-135830568D01*
X114947272Y-135830571D01*
X114947276Y-135830573D01*
X115153500Y-135926737D01*
X115153504Y-135926739D01*
X115373308Y-135985635D01*
X115373312Y-135985635D01*
X115373315Y-135985636D01*
X115599997Y-136005468D01*
X115600000Y-136005468D01*
X115600003Y-136005468D01*
X115826684Y-135985636D01*
X115826685Y-135985635D01*
X115826692Y-135985635D01*
X116046496Y-135926739D01*
X116252734Y-135830568D01*
X116367794Y-135750003D01*
X121295034Y-135750003D01*
X121314857Y-135976597D01*
X121373733Y-136196323D01*
X121469865Y-136402481D01*
X121600334Y-136588811D01*
X121610050Y-136598527D01*
X122003656Y-136204919D01*
X122050756Y-136268185D01*
X122144540Y-136346880D01*
X121751472Y-136739949D01*
X121761188Y-136749665D01*
X121947518Y-136880134D01*
X122153676Y-136976266D01*
X122373402Y-137035142D01*
X122599997Y-137054966D01*
X122600003Y-137054966D01*
X122826597Y-137035142D01*
X123046323Y-136976266D01*
X123252481Y-136880134D01*
X123438814Y-136749663D01*
X123448527Y-136739949D01*
X123056206Y-136347628D01*
X123085373Y-136328445D01*
X123199208Y-136207786D01*
X123589949Y-136598527D01*
X123599663Y-136588814D01*
X123730134Y-136402481D01*
X123826266Y-136196323D01*
X123885142Y-135976597D01*
X123904966Y-135750003D01*
X123904966Y-135749996D01*
X123885142Y-135523402D01*
X123826266Y-135303676D01*
X123730134Y-135097518D01*
X123599665Y-134911188D01*
X123589949Y-134901472D01*
X123196342Y-135295078D01*
X123149244Y-135231815D01*
X123055457Y-135153118D01*
X123448527Y-134760050D01*
X123438811Y-134750334D01*
X123366931Y-134700003D01*
X134294532Y-134700003D01*
X134314363Y-134926684D01*
X134373262Y-135146500D01*
X134469426Y-135352723D01*
X134469434Y-135352737D01*
X134599946Y-135539130D01*
X134599947Y-135539132D01*
X134599950Y-135539135D01*
X134599953Y-135539139D01*
X134760861Y-135700047D01*
X134760864Y-135700049D01*
X134760867Y-135700052D01*
X134760869Y-135700053D01*
X134769497Y-135706094D01*
X134947266Y-135830568D01*
X134947272Y-135830571D01*
X134947276Y-135830573D01*
X135153500Y-135926737D01*
X135153504Y-135926739D01*
X135373308Y-135985635D01*
X135373312Y-135985635D01*
X135373315Y-135985636D01*
X135599997Y-136005468D01*
X135600000Y-136005468D01*
X135600003Y-136005468D01*
X135826684Y-135985636D01*
X135826685Y-135985635D01*
X135826692Y-135985635D01*
X136046496Y-135926739D01*
X136252734Y-135830568D01*
X136367794Y-135750003D01*
X141295034Y-135750003D01*
X141314857Y-135976597D01*
X141373733Y-136196323D01*
X141469865Y-136402481D01*
X141600334Y-136588811D01*
X141610050Y-136598527D01*
X142003656Y-136204919D01*
X142050756Y-136268185D01*
X142144540Y-136346880D01*
X141751472Y-136739949D01*
X141761188Y-136749665D01*
X141947518Y-136880134D01*
X142153676Y-136976266D01*
X142373402Y-137035142D01*
X142599997Y-137054966D01*
X142600003Y-137054966D01*
X142826597Y-137035142D01*
X143046323Y-136976266D01*
X143252481Y-136880134D01*
X143438814Y-136749663D01*
X143448527Y-136739949D01*
X143056206Y-136347628D01*
X143085373Y-136328445D01*
X143199208Y-136207786D01*
X143589949Y-136598527D01*
X143599663Y-136588814D01*
X143730134Y-136402481D01*
X143826266Y-136196323D01*
X143885142Y-135976597D01*
X143904966Y-135750003D01*
X143904966Y-135749996D01*
X143885142Y-135523402D01*
X143826266Y-135303676D01*
X143730134Y-135097518D01*
X143599665Y-134911188D01*
X143589949Y-134901472D01*
X143196342Y-135295078D01*
X143149244Y-135231815D01*
X143055457Y-135153118D01*
X143448527Y-134760050D01*
X143438811Y-134750334D01*
X143366931Y-134700003D01*
X154294532Y-134700003D01*
X154314363Y-134926684D01*
X154373262Y-135146500D01*
X154469426Y-135352723D01*
X154469434Y-135352737D01*
X154599946Y-135539130D01*
X154599947Y-135539132D01*
X154599950Y-135539135D01*
X154599953Y-135539139D01*
X154760861Y-135700047D01*
X154760864Y-135700049D01*
X154760867Y-135700052D01*
X154760869Y-135700053D01*
X154769497Y-135706094D01*
X154947266Y-135830568D01*
X154947272Y-135830571D01*
X154947276Y-135830573D01*
X155153500Y-135926737D01*
X155153504Y-135926739D01*
X155373308Y-135985635D01*
X155373312Y-135985635D01*
X155373315Y-135985636D01*
X155599997Y-136005468D01*
X155600000Y-136005468D01*
X155600003Y-136005468D01*
X155826684Y-135985636D01*
X155826685Y-135985635D01*
X155826692Y-135985635D01*
X156046496Y-135926739D01*
X156252734Y-135830568D01*
X156367794Y-135750003D01*
X161295034Y-135750003D01*
X161314857Y-135976597D01*
X161373733Y-136196323D01*
X161469865Y-136402481D01*
X161600334Y-136588811D01*
X161610050Y-136598527D01*
X162003656Y-136204919D01*
X162050756Y-136268185D01*
X162144540Y-136346880D01*
X161751472Y-136739949D01*
X161761188Y-136749665D01*
X161947518Y-136880134D01*
X162153676Y-136976266D01*
X162373402Y-137035142D01*
X162599997Y-137054966D01*
X162600003Y-137054966D01*
X162826597Y-137035142D01*
X163046323Y-136976266D01*
X163252481Y-136880134D01*
X163438814Y-136749663D01*
X163448527Y-136739949D01*
X163056206Y-136347628D01*
X163085373Y-136328445D01*
X163199208Y-136207786D01*
X163589949Y-136598527D01*
X163599663Y-136588814D01*
X163730134Y-136402481D01*
X163826266Y-136196323D01*
X163885142Y-135976597D01*
X163904966Y-135750003D01*
X163904966Y-135749996D01*
X163885142Y-135523402D01*
X163826266Y-135303676D01*
X163730134Y-135097518D01*
X163599665Y-134911188D01*
X163589949Y-134901472D01*
X163196342Y-135295078D01*
X163149244Y-135231815D01*
X163055457Y-135153118D01*
X163448527Y-134760050D01*
X163438811Y-134750334D01*
X163366931Y-134700003D01*
X174294532Y-134700003D01*
X174314363Y-134926684D01*
X174373262Y-135146500D01*
X174469426Y-135352723D01*
X174469434Y-135352737D01*
X174599946Y-135539130D01*
X174599947Y-135539132D01*
X174599950Y-135539135D01*
X174599953Y-135539139D01*
X174760861Y-135700047D01*
X174760864Y-135700049D01*
X174760867Y-135700052D01*
X174760869Y-135700053D01*
X174769497Y-135706094D01*
X174947266Y-135830568D01*
X174947272Y-135830571D01*
X174947276Y-135830573D01*
X175153500Y-135926737D01*
X175153504Y-135926739D01*
X175373308Y-135985635D01*
X175373312Y-135985635D01*
X175373315Y-135985636D01*
X175599997Y-136005468D01*
X175600000Y-136005468D01*
X175600003Y-136005468D01*
X175826684Y-135985636D01*
X175826685Y-135985635D01*
X175826692Y-135985635D01*
X176046496Y-135926739D01*
X176252734Y-135830568D01*
X176367794Y-135750003D01*
X181295034Y-135750003D01*
X181314857Y-135976597D01*
X181373733Y-136196323D01*
X181469865Y-136402481D01*
X181600334Y-136588811D01*
X181610050Y-136598527D01*
X182003656Y-136204919D01*
X182050756Y-136268185D01*
X182144540Y-136346880D01*
X181751472Y-136739949D01*
X181761188Y-136749665D01*
X181947518Y-136880134D01*
X182153676Y-136976266D01*
X182373402Y-137035142D01*
X182599997Y-137054966D01*
X182600003Y-137054966D01*
X182826597Y-137035142D01*
X183046323Y-136976266D01*
X183252481Y-136880134D01*
X183438814Y-136749663D01*
X183448527Y-136739949D01*
X183056206Y-136347628D01*
X183085373Y-136328445D01*
X183199208Y-136207786D01*
X183589949Y-136598527D01*
X183599663Y-136588814D01*
X183730134Y-136402481D01*
X183826266Y-136196323D01*
X183885142Y-135976597D01*
X183904966Y-135750003D01*
X183904966Y-135749996D01*
X183885142Y-135523402D01*
X183826266Y-135303676D01*
X183730134Y-135097518D01*
X183599665Y-134911188D01*
X183589949Y-134901472D01*
X183196342Y-135295078D01*
X183149244Y-135231815D01*
X183055457Y-135153118D01*
X183448527Y-134760050D01*
X183438811Y-134750334D01*
X183252481Y-134619865D01*
X183046323Y-134523733D01*
X182826597Y-134464857D01*
X182600003Y-134445034D01*
X182599997Y-134445034D01*
X182373402Y-134464857D01*
X182153676Y-134523733D01*
X181947518Y-134619865D01*
X181761185Y-134750336D01*
X181751471Y-134760049D01*
X182143793Y-135152371D01*
X182114627Y-135171555D01*
X182000791Y-135292213D01*
X181610049Y-134901471D01*
X181600336Y-134911185D01*
X181469865Y-135097518D01*
X181373733Y-135303676D01*
X181314857Y-135523402D01*
X181295034Y-135749996D01*
X181295034Y-135750003D01*
X176367794Y-135750003D01*
X176439139Y-135700047D01*
X176600047Y-135539139D01*
X176730568Y-135352734D01*
X176826739Y-135146496D01*
X176885635Y-134926692D01*
X176886992Y-134911188D01*
X176905468Y-134700003D01*
X176905468Y-134699996D01*
X176885636Y-134473315D01*
X176885635Y-134473312D01*
X176885635Y-134473308D01*
X176826739Y-134253504D01*
X176730568Y-134047266D01*
X176600053Y-133860869D01*
X176600052Y-133860867D01*
X176600049Y-133860864D01*
X176600047Y-133860861D01*
X176439139Y-133699953D01*
X176439135Y-133699950D01*
X176439132Y-133699947D01*
X176439130Y-133699946D01*
X176252737Y-133569434D01*
X176252736Y-133569433D01*
X176252734Y-133569432D01*
X176252731Y-133569430D01*
X176252723Y-133569426D01*
X176046499Y-133473262D01*
X176046500Y-133473262D01*
X175973228Y-133453629D01*
X175826692Y-133414365D01*
X175826691Y-133414364D01*
X175826684Y-133414363D01*
X175600003Y-133394532D01*
X175599997Y-133394532D01*
X175373315Y-133414363D01*
X175153499Y-133473262D01*
X174947276Y-133569426D01*
X174947262Y-133569434D01*
X174760869Y-133699946D01*
X174760867Y-133699947D01*
X174599947Y-133860867D01*
X174599946Y-133860869D01*
X174469434Y-134047262D01*
X174469426Y-134047276D01*
X174373262Y-134253499D01*
X174314363Y-134473315D01*
X174294532Y-134699996D01*
X174294532Y-134700003D01*
X163366931Y-134700003D01*
X163252481Y-134619865D01*
X163046323Y-134523733D01*
X162826597Y-134464857D01*
X162600003Y-134445034D01*
X162599997Y-134445034D01*
X162373402Y-134464857D01*
X162153676Y-134523733D01*
X161947518Y-134619865D01*
X161761185Y-134750336D01*
X161751471Y-134760049D01*
X162143793Y-135152371D01*
X162114627Y-135171555D01*
X162000791Y-135292213D01*
X161610049Y-134901471D01*
X161600336Y-134911185D01*
X161469865Y-135097518D01*
X161373733Y-135303676D01*
X161314857Y-135523402D01*
X161295034Y-135749996D01*
X161295034Y-135750003D01*
X156367794Y-135750003D01*
X156439139Y-135700047D01*
X156600047Y-135539139D01*
X156730568Y-135352734D01*
X156826739Y-135146496D01*
X156885635Y-134926692D01*
X156886992Y-134911188D01*
X156905468Y-134700003D01*
X156905468Y-134699996D01*
X156885636Y-134473315D01*
X156885635Y-134473312D01*
X156885635Y-134473308D01*
X156826739Y-134253504D01*
X156730568Y-134047266D01*
X156600053Y-133860869D01*
X156600052Y-133860867D01*
X156600049Y-133860864D01*
X156600047Y-133860861D01*
X156439139Y-133699953D01*
X156439135Y-133699950D01*
X156439132Y-133699947D01*
X156439130Y-133699946D01*
X156252737Y-133569434D01*
X156252736Y-133569433D01*
X156252734Y-133569432D01*
X156252731Y-133569430D01*
X156252723Y-133569426D01*
X156046499Y-133473262D01*
X156046500Y-133473262D01*
X155973228Y-133453629D01*
X155826692Y-133414365D01*
X155826691Y-133414364D01*
X155826684Y-133414363D01*
X155600003Y-133394532D01*
X155599997Y-133394532D01*
X155373315Y-133414363D01*
X155153499Y-133473262D01*
X154947276Y-133569426D01*
X154947262Y-133569434D01*
X154760869Y-133699946D01*
X154760867Y-133699947D01*
X154599947Y-133860867D01*
X154599946Y-133860869D01*
X154469434Y-134047262D01*
X154469426Y-134047276D01*
X154373262Y-134253499D01*
X154314363Y-134473315D01*
X154294532Y-134699996D01*
X154294532Y-134700003D01*
X143366931Y-134700003D01*
X143252481Y-134619865D01*
X143046323Y-134523733D01*
X142826597Y-134464857D01*
X142600003Y-134445034D01*
X142599997Y-134445034D01*
X142373402Y-134464857D01*
X142153676Y-134523733D01*
X141947518Y-134619865D01*
X141761185Y-134750336D01*
X141751471Y-134760049D01*
X142143793Y-135152371D01*
X142114627Y-135171555D01*
X142000791Y-135292213D01*
X141610049Y-134901471D01*
X141600336Y-134911185D01*
X141469865Y-135097518D01*
X141373733Y-135303676D01*
X141314857Y-135523402D01*
X141295034Y-135749996D01*
X141295034Y-135750003D01*
X136367794Y-135750003D01*
X136439139Y-135700047D01*
X136600047Y-135539139D01*
X136730568Y-135352734D01*
X136826739Y-135146496D01*
X136885635Y-134926692D01*
X136886992Y-134911188D01*
X136905468Y-134700003D01*
X136905468Y-134699996D01*
X136885636Y-134473315D01*
X136885635Y-134473312D01*
X136885635Y-134473308D01*
X136826739Y-134253504D01*
X136730568Y-134047266D01*
X136600053Y-133860869D01*
X136600052Y-133860867D01*
X136600049Y-133860864D01*
X136600047Y-133860861D01*
X136439139Y-133699953D01*
X136439135Y-133699950D01*
X136439132Y-133699947D01*
X136439130Y-133699946D01*
X136252737Y-133569434D01*
X136252736Y-133569433D01*
X136252734Y-133569432D01*
X136252731Y-133569430D01*
X136252723Y-133569426D01*
X136046499Y-133473262D01*
X136046500Y-133473262D01*
X135973228Y-133453629D01*
X135826692Y-133414365D01*
X135826691Y-133414364D01*
X135826684Y-133414363D01*
X135600003Y-133394532D01*
X135599997Y-133394532D01*
X135373315Y-133414363D01*
X135153499Y-133473262D01*
X134947276Y-133569426D01*
X134947262Y-133569434D01*
X134760869Y-133699946D01*
X134760867Y-133699947D01*
X134599947Y-133860867D01*
X134599946Y-133860869D01*
X134469434Y-134047262D01*
X134469426Y-134047276D01*
X134373262Y-134253499D01*
X134314363Y-134473315D01*
X134294532Y-134699996D01*
X134294532Y-134700003D01*
X123366931Y-134700003D01*
X123252481Y-134619865D01*
X123046323Y-134523733D01*
X122826597Y-134464857D01*
X122600003Y-134445034D01*
X122599997Y-134445034D01*
X122373402Y-134464857D01*
X122153676Y-134523733D01*
X121947518Y-134619865D01*
X121761185Y-134750336D01*
X121751471Y-134760049D01*
X122143793Y-135152371D01*
X122114627Y-135171555D01*
X122000791Y-135292213D01*
X121610049Y-134901471D01*
X121600336Y-134911185D01*
X121469865Y-135097518D01*
X121373733Y-135303676D01*
X121314857Y-135523402D01*
X121295034Y-135749996D01*
X121295034Y-135750003D01*
X116367794Y-135750003D01*
X116439139Y-135700047D01*
X116600047Y-135539139D01*
X116730568Y-135352734D01*
X116826739Y-135146496D01*
X116885635Y-134926692D01*
X116886992Y-134911188D01*
X116905468Y-134700003D01*
X116905468Y-134699996D01*
X116885636Y-134473315D01*
X116885635Y-134473312D01*
X116885635Y-134473308D01*
X116826739Y-134253504D01*
X116730568Y-134047266D01*
X116600053Y-133860869D01*
X116600052Y-133860867D01*
X116600049Y-133860864D01*
X116600047Y-133860861D01*
X116439139Y-133699953D01*
X116439135Y-133699950D01*
X116439132Y-133699947D01*
X116439130Y-133699946D01*
X116252737Y-133569434D01*
X116252736Y-133569433D01*
X116252734Y-133569432D01*
X116252731Y-133569430D01*
X116252723Y-133569426D01*
X116046499Y-133473262D01*
X116046500Y-133473262D01*
X115973228Y-133453629D01*
X115826692Y-133414365D01*
X115826691Y-133414364D01*
X115826684Y-133414363D01*
X115600003Y-133394532D01*
X115599997Y-133394532D01*
X115373315Y-133414363D01*
X115153499Y-133473262D01*
X114947276Y-133569426D01*
X114947262Y-133569434D01*
X114760869Y-133699946D01*
X114760867Y-133699947D01*
X114599947Y-133860867D01*
X114599946Y-133860869D01*
X114469434Y-134047262D01*
X114469426Y-134047276D01*
X114373262Y-134253499D01*
X114314363Y-134473315D01*
X114294532Y-134699996D01*
X114294532Y-134700003D01*
X112000500Y-134700003D01*
X112000500Y-107185879D01*
X113894621Y-107185879D01*
X113899025Y-107217452D01*
X113899500Y-107224298D01*
X113899500Y-123400521D01*
X113897280Y-123414199D01*
X113898494Y-123414369D01*
X113897226Y-123423452D01*
X113899447Y-123471469D01*
X113899500Y-123473755D01*
X113899500Y-123493528D01*
X113900152Y-123497018D01*
X113900943Y-123503835D01*
X113902414Y-123535673D01*
X113902415Y-123535680D01*
X113906384Y-123544668D01*
X113913133Y-123566459D01*
X113914939Y-123576119D01*
X113931717Y-123603219D01*
X113934915Y-123609286D01*
X113947793Y-123638449D01*
X113947794Y-123638451D01*
X113954745Y-123645402D01*
X113968907Y-123663282D01*
X113974081Y-123671638D01*
X113999511Y-123690842D01*
X114004690Y-123695348D01*
X117525750Y-127216407D01*
X117533851Y-127227647D01*
X117534830Y-127226909D01*
X117540358Y-127234230D01*
X117575883Y-127266616D01*
X117577537Y-127268195D01*
X117591515Y-127282172D01*
X117591517Y-127282174D01*
X117594442Y-127284178D01*
X117599819Y-127288437D01*
X117623378Y-127309914D01*
X117623379Y-127309914D01*
X117623381Y-127309916D01*
X117632544Y-127313466D01*
X117652730Y-127324105D01*
X117660833Y-127329656D01*
X117691867Y-127336955D01*
X117698404Y-127338979D01*
X117728141Y-127350500D01*
X117737966Y-127350500D01*
X117760630Y-127353129D01*
X117770195Y-127355379D01*
X117794808Y-127351945D01*
X117801767Y-127350975D01*
X117808613Y-127350500D01*
X118518462Y-127350500D01*
X118576653Y-127369407D01*
X118612617Y-127418907D01*
X118612617Y-127480093D01*
X118576653Y-127529593D01*
X118568807Y-127534743D01*
X118404779Y-127631617D01*
X118404778Y-127631618D01*
X118135854Y-127836916D01*
X117893104Y-128072577D01*
X117893101Y-128072580D01*
X117679934Y-128335290D01*
X117499324Y-128621381D01*
X117353827Y-128926812D01*
X117353822Y-128926822D01*
X117245467Y-129247328D01*
X117175782Y-129578382D01*
X117175781Y-129578389D01*
X117145739Y-129915371D01*
X117155764Y-130253555D01*
X117205716Y-130588175D01*
X117250667Y-130752677D01*
X117294895Y-130914535D01*
X117422047Y-131228058D01*
X117585388Y-131524341D01*
X117666149Y-131636896D01*
X117782621Y-131799222D01*
X117782634Y-131799238D01*
X118010985Y-132048850D01*
X118010991Y-132048856D01*
X118267274Y-132269720D01*
X118547871Y-132458716D01*
X118547876Y-132458719D01*
X118547882Y-132458723D01*
X118848875Y-132613212D01*
X119166028Y-132731017D01*
X119350632Y-132775626D01*
X119494874Y-132810482D01*
X119494875Y-132810482D01*
X119494887Y-132810485D01*
X119830837Y-132850500D01*
X119830841Y-132850500D01*
X120084503Y-132850500D01*
X120084504Y-132850500D01*
X120337731Y-132835472D01*
X120670721Y-132775626D01*
X120994295Y-132676816D01*
X121303912Y-132540429D01*
X121595224Y-132368380D01*
X121864143Y-132163085D01*
X122106894Y-131927424D01*
X122320068Y-131664707D01*
X122500674Y-131378620D01*
X122646176Y-131073181D01*
X122754531Y-130752677D01*
X122824219Y-130421607D01*
X122854261Y-130084618D01*
X122844235Y-129746442D01*
X122794283Y-129411825D01*
X122705105Y-129085465D01*
X122577953Y-128771942D01*
X122414612Y-128475659D01*
X122295026Y-128308994D01*
X122217378Y-128200777D01*
X122217365Y-128200761D01*
X121989014Y-127951149D01*
X121989008Y-127951143D01*
X121732725Y-127730279D01*
X121452128Y-127541283D01*
X121452121Y-127541279D01*
X121452118Y-127541277D01*
X121450735Y-127540567D01*
X121444906Y-127537575D01*
X121401771Y-127494182D01*
X121392379Y-127433721D01*
X121420320Y-127379288D01*
X121474919Y-127351673D01*
X121490114Y-127350500D01*
X138518462Y-127350500D01*
X138576653Y-127369407D01*
X138612617Y-127418907D01*
X138612617Y-127480093D01*
X138576653Y-127529593D01*
X138568807Y-127534743D01*
X138404779Y-127631617D01*
X138404778Y-127631618D01*
X138135854Y-127836916D01*
X137893104Y-128072577D01*
X137893101Y-128072580D01*
X137679934Y-128335290D01*
X137499324Y-128621381D01*
X137353827Y-128926812D01*
X137353822Y-128926822D01*
X137245467Y-129247328D01*
X137175782Y-129578382D01*
X137175781Y-129578389D01*
X137145739Y-129915371D01*
X137155764Y-130253555D01*
X137205716Y-130588175D01*
X137250667Y-130752677D01*
X137294895Y-130914535D01*
X137422047Y-131228058D01*
X137585388Y-131524341D01*
X137666149Y-131636896D01*
X137782621Y-131799222D01*
X137782634Y-131799238D01*
X138010985Y-132048850D01*
X138010991Y-132048856D01*
X138267274Y-132269720D01*
X138547871Y-132458716D01*
X138547876Y-132458719D01*
X138547882Y-132458723D01*
X138848875Y-132613212D01*
X139166028Y-132731017D01*
X139350632Y-132775626D01*
X139494874Y-132810482D01*
X139494875Y-132810482D01*
X139494887Y-132810485D01*
X139830837Y-132850500D01*
X139830841Y-132850500D01*
X140084503Y-132850500D01*
X140084504Y-132850500D01*
X140337731Y-132835472D01*
X140670721Y-132775626D01*
X140994295Y-132676816D01*
X141303912Y-132540429D01*
X141595224Y-132368380D01*
X141864143Y-132163085D01*
X142106894Y-131927424D01*
X142320068Y-131664707D01*
X142500674Y-131378620D01*
X142646176Y-131073181D01*
X142754531Y-130752677D01*
X142824219Y-130421607D01*
X142854261Y-130084618D01*
X142844235Y-129746442D01*
X142794283Y-129411825D01*
X142705105Y-129085465D01*
X142577953Y-128771942D01*
X142414612Y-128475659D01*
X142295026Y-128308994D01*
X142217378Y-128200777D01*
X142217365Y-128200761D01*
X141989014Y-127951149D01*
X141989008Y-127951143D01*
X141732725Y-127730279D01*
X141452128Y-127541283D01*
X141452121Y-127541279D01*
X141452118Y-127541277D01*
X141450735Y-127540567D01*
X141444906Y-127537575D01*
X141401771Y-127494182D01*
X141392379Y-127433721D01*
X141420320Y-127379288D01*
X141474919Y-127351673D01*
X141490114Y-127350500D01*
X158518462Y-127350500D01*
X158576653Y-127369407D01*
X158612617Y-127418907D01*
X158612617Y-127480093D01*
X158576653Y-127529593D01*
X158568807Y-127534743D01*
X158404779Y-127631617D01*
X158404778Y-127631618D01*
X158135854Y-127836916D01*
X157893104Y-128072577D01*
X157893101Y-128072580D01*
X157679934Y-128335290D01*
X157499324Y-128621381D01*
X157353827Y-128926812D01*
X157353822Y-128926822D01*
X157245467Y-129247328D01*
X157175782Y-129578382D01*
X157175781Y-129578389D01*
X157145739Y-129915371D01*
X157155764Y-130253555D01*
X157205716Y-130588175D01*
X157250667Y-130752677D01*
X157294895Y-130914535D01*
X157422047Y-131228058D01*
X157585388Y-131524341D01*
X157666149Y-131636896D01*
X157782621Y-131799222D01*
X157782634Y-131799238D01*
X158010985Y-132048850D01*
X158010991Y-132048856D01*
X158267274Y-132269720D01*
X158547871Y-132458716D01*
X158547876Y-132458719D01*
X158547882Y-132458723D01*
X158848875Y-132613212D01*
X159166028Y-132731017D01*
X159350632Y-132775626D01*
X159494874Y-132810482D01*
X159494875Y-132810482D01*
X159494887Y-132810485D01*
X159830837Y-132850500D01*
X159830841Y-132850500D01*
X160084503Y-132850500D01*
X160084504Y-132850500D01*
X160337731Y-132835472D01*
X160670721Y-132775626D01*
X160994295Y-132676816D01*
X161303912Y-132540429D01*
X161595224Y-132368380D01*
X161864143Y-132163085D01*
X162106894Y-131927424D01*
X162320068Y-131664707D01*
X162500674Y-131378620D01*
X162646176Y-131073181D01*
X162754531Y-130752677D01*
X162824219Y-130421607D01*
X162854261Y-130084618D01*
X162844235Y-129746442D01*
X162794283Y-129411825D01*
X162705105Y-129085465D01*
X162577953Y-128771942D01*
X162414612Y-128475659D01*
X162295026Y-128308994D01*
X162217378Y-128200777D01*
X162217365Y-128200761D01*
X161989014Y-127951149D01*
X161989008Y-127951143D01*
X161732725Y-127730279D01*
X161452128Y-127541283D01*
X161452121Y-127541279D01*
X161452118Y-127541277D01*
X161450735Y-127540567D01*
X161444906Y-127537575D01*
X161401771Y-127494182D01*
X161392379Y-127433721D01*
X161420320Y-127379288D01*
X161474919Y-127351673D01*
X161490114Y-127350500D01*
X178518462Y-127350500D01*
X178576653Y-127369407D01*
X178612617Y-127418907D01*
X178612617Y-127480093D01*
X178576653Y-127529593D01*
X178568807Y-127534743D01*
X178404779Y-127631617D01*
X178404778Y-127631618D01*
X178135854Y-127836916D01*
X177893104Y-128072577D01*
X177893101Y-128072580D01*
X177679934Y-128335290D01*
X177499324Y-128621381D01*
X177353827Y-128926812D01*
X177353822Y-128926822D01*
X177245467Y-129247328D01*
X177175782Y-129578382D01*
X177175781Y-129578389D01*
X177145739Y-129915371D01*
X177155764Y-130253555D01*
X177205716Y-130588175D01*
X177250667Y-130752677D01*
X177294895Y-130914535D01*
X177422047Y-131228058D01*
X177585388Y-131524341D01*
X177666149Y-131636896D01*
X177782621Y-131799222D01*
X177782634Y-131799238D01*
X178010985Y-132048850D01*
X178010991Y-132048856D01*
X178267274Y-132269720D01*
X178547871Y-132458716D01*
X178547876Y-132458719D01*
X178547882Y-132458723D01*
X178848875Y-132613212D01*
X179166028Y-132731017D01*
X179350632Y-132775626D01*
X179494874Y-132810482D01*
X179494875Y-132810482D01*
X179494887Y-132810485D01*
X179830837Y-132850500D01*
X179830841Y-132850500D01*
X180084503Y-132850500D01*
X180084504Y-132850500D01*
X180337731Y-132835472D01*
X180670721Y-132775626D01*
X180994295Y-132676816D01*
X181303912Y-132540429D01*
X181595224Y-132368380D01*
X181864143Y-132163085D01*
X182106894Y-131927424D01*
X182320068Y-131664707D01*
X182500674Y-131378620D01*
X182646176Y-131073181D01*
X182754531Y-130752677D01*
X182824219Y-130421607D01*
X182854261Y-130084618D01*
X182844235Y-129746442D01*
X182794283Y-129411825D01*
X182705105Y-129085465D01*
X182577953Y-128771942D01*
X182414612Y-128475659D01*
X182295026Y-128308994D01*
X182217378Y-128200777D01*
X182217365Y-128200761D01*
X181989014Y-127951149D01*
X181989008Y-127951143D01*
X181732725Y-127730279D01*
X181452128Y-127541283D01*
X181452121Y-127541279D01*
X181452118Y-127541277D01*
X181450735Y-127540567D01*
X181444906Y-127537575D01*
X181401771Y-127494182D01*
X181392379Y-127433721D01*
X181420320Y-127379288D01*
X181474919Y-127351673D01*
X181490114Y-127350500D01*
X183150208Y-127350500D01*
X183208399Y-127369407D01*
X183220205Y-127379490D01*
X183222889Y-127382174D01*
X183227596Y-127385398D01*
X183232502Y-127388759D01*
X183236153Y-127391516D01*
X183266926Y-127417070D01*
X183266927Y-127417070D01*
X183266928Y-127417071D01*
X183267349Y-127417212D01*
X183291842Y-127429407D01*
X183292205Y-127429656D01*
X183331138Y-127438813D01*
X183335515Y-127440058D01*
X183373451Y-127452773D01*
X183373889Y-127452752D01*
X183401134Y-127455277D01*
X183401567Y-127455379D01*
X183441188Y-127449851D01*
X183445703Y-127449432D01*
X183485678Y-127447585D01*
X183486079Y-127447408D01*
X183512403Y-127439918D01*
X183512832Y-127439858D01*
X183512832Y-127439857D01*
X183512837Y-127439857D01*
X183547768Y-127420399D01*
X183551854Y-127418364D01*
X183588451Y-127402206D01*
X183588760Y-127401896D01*
X183610602Y-127385401D01*
X183610984Y-127385189D01*
X183636528Y-127354425D01*
X183639605Y-127351051D01*
X183774249Y-127216407D01*
X184566405Y-126424250D01*
X184577664Y-126416179D01*
X184576905Y-126415173D01*
X184584221Y-126409647D01*
X184584228Y-126409644D01*
X184616632Y-126374097D01*
X184618186Y-126372469D01*
X184632174Y-126358483D01*
X184634181Y-126355551D01*
X184638440Y-126350176D01*
X184659916Y-126326619D01*
X184663465Y-126317456D01*
X184674106Y-126297268D01*
X184679656Y-126289167D01*
X184686955Y-126258129D01*
X184688977Y-126251600D01*
X184700500Y-126221859D01*
X184700500Y-126212034D01*
X184703129Y-126189369D01*
X184705379Y-126179805D01*
X184700975Y-126148232D01*
X184700500Y-126141385D01*
X184700500Y-87165172D01*
X184702731Y-87151495D01*
X184701506Y-87151325D01*
X184702774Y-87142233D01*
X184700553Y-87094194D01*
X184700500Y-87091907D01*
X184700500Y-87072160D01*
X184700500Y-87072156D01*
X184699846Y-87068661D01*
X184699058Y-87061870D01*
X184697586Y-87030009D01*
X184693615Y-87021018D01*
X184686864Y-86999217D01*
X184685061Y-86989567D01*
X184668278Y-86962462D01*
X184665084Y-86956401D01*
X184652205Y-86927233D01*
X184645256Y-86920284D01*
X184631090Y-86902399D01*
X184625919Y-86894048D01*
X184600483Y-86874839D01*
X184595306Y-86870334D01*
X182619180Y-84894209D01*
X182591403Y-84839692D01*
X182591031Y-84811283D01*
X182605682Y-84700000D01*
X182605682Y-84699999D01*
X182592891Y-84602841D01*
X182585044Y-84543238D01*
X182549226Y-84456766D01*
X182524537Y-84397161D01*
X182524537Y-84397160D01*
X182428286Y-84271723D01*
X182428285Y-84271722D01*
X182428282Y-84271718D01*
X182428277Y-84271714D01*
X182428276Y-84271713D01*
X182302838Y-84175462D01*
X182156766Y-84114957D01*
X182156758Y-84114955D01*
X182000001Y-84094318D01*
X181999999Y-84094318D01*
X181843241Y-84114955D01*
X181843233Y-84114957D01*
X181697161Y-84175462D01*
X181697160Y-84175462D01*
X181571723Y-84271713D01*
X181571713Y-84271723D01*
X181475462Y-84397160D01*
X181475462Y-84397161D01*
X181414957Y-84543233D01*
X181414955Y-84543241D01*
X181394318Y-84699999D01*
X181394318Y-84700000D01*
X181414955Y-84856758D01*
X181414957Y-84856766D01*
X181475462Y-85002838D01*
X181475462Y-85002839D01*
X181547837Y-85097160D01*
X181571718Y-85128282D01*
X181697159Y-85224536D01*
X181697160Y-85224536D01*
X181697161Y-85224537D01*
X181840896Y-85284074D01*
X181843238Y-85285044D01*
X181960809Y-85300522D01*
X181999999Y-85305682D01*
X182000000Y-85305682D01*
X182111284Y-85291031D01*
X182171443Y-85302181D01*
X182194209Y-85319180D01*
X184070504Y-87195475D01*
X184098281Y-87249992D01*
X184099500Y-87265479D01*
X184099500Y-95706059D01*
X184086351Y-95746528D01*
X184099500Y-95793940D01*
X184099500Y-106135521D01*
X184080593Y-106193712D01*
X184031093Y-106229676D01*
X183969907Y-106229676D01*
X183930496Y-106205525D01*
X182619180Y-104894209D01*
X182591403Y-104839692D01*
X182591031Y-104811283D01*
X182591032Y-104811282D01*
X182605682Y-104700000D01*
X182585044Y-104543238D01*
X182528734Y-104407294D01*
X182524537Y-104397161D01*
X182524537Y-104397160D01*
X182428286Y-104271723D01*
X182428285Y-104271722D01*
X182428282Y-104271718D01*
X182428277Y-104271714D01*
X182428276Y-104271713D01*
X182302838Y-104175462D01*
X182156766Y-104114957D01*
X182156758Y-104114955D01*
X182000001Y-104094318D01*
X181999999Y-104094318D01*
X181843241Y-104114955D01*
X181843233Y-104114957D01*
X181697161Y-104175462D01*
X181697160Y-104175462D01*
X181571723Y-104271713D01*
X181571713Y-104271723D01*
X181475462Y-104397160D01*
X181475462Y-104397161D01*
X181414957Y-104543233D01*
X181414955Y-104543241D01*
X181394318Y-104699999D01*
X181394318Y-104700000D01*
X181414955Y-104856758D01*
X181414957Y-104856766D01*
X181475462Y-105002838D01*
X181475462Y-105002839D01*
X181475464Y-105002841D01*
X181571718Y-105128282D01*
X181697159Y-105224536D01*
X181697160Y-105224536D01*
X181697161Y-105224537D01*
X181841439Y-105284299D01*
X181843238Y-105285044D01*
X181960809Y-105300522D01*
X181999999Y-105305682D01*
X182000000Y-105305682D01*
X182111284Y-105291031D01*
X182171443Y-105302181D01*
X182194209Y-105319180D01*
X183670504Y-106795475D01*
X183698281Y-106849992D01*
X183699500Y-106865479D01*
X183699500Y-114802471D01*
X183680593Y-114860662D01*
X183631093Y-114896626D01*
X183600500Y-114901471D01*
X183589950Y-114901471D01*
X183196342Y-115295078D01*
X183149244Y-115231815D01*
X183055457Y-115153118D01*
X183448527Y-114760050D01*
X183438811Y-114750334D01*
X183252481Y-114619865D01*
X183046323Y-114523733D01*
X182826597Y-114464857D01*
X182600003Y-114445034D01*
X182599997Y-114445034D01*
X182373402Y-114464857D01*
X182153676Y-114523733D01*
X181947518Y-114619865D01*
X181761185Y-114750336D01*
X181751471Y-114760049D01*
X182143793Y-115152371D01*
X182114627Y-115171555D01*
X182000791Y-115292213D01*
X181610049Y-114901471D01*
X181600336Y-114911185D01*
X181469865Y-115097518D01*
X181373733Y-115303676D01*
X181314857Y-115523402D01*
X181295034Y-115749996D01*
X181295034Y-115750003D01*
X181314857Y-115976597D01*
X181373733Y-116196323D01*
X181469865Y-116402481D01*
X181600334Y-116588811D01*
X181610050Y-116598527D01*
X182003656Y-116204919D01*
X182050756Y-116268185D01*
X182144540Y-116346880D01*
X181751472Y-116739949D01*
X181761188Y-116749665D01*
X181947518Y-116880134D01*
X182153676Y-116976266D01*
X182373402Y-117035142D01*
X182599997Y-117054966D01*
X182600003Y-117054966D01*
X182826597Y-117035142D01*
X183046323Y-116976266D01*
X183252481Y-116880134D01*
X183438814Y-116749663D01*
X183448527Y-116739949D01*
X183056206Y-116347628D01*
X183085373Y-116328445D01*
X183199208Y-116207786D01*
X183589949Y-116598527D01*
X183600502Y-116598528D01*
X183658692Y-116617436D01*
X183694655Y-116666937D01*
X183699500Y-116697528D01*
X183699500Y-125834521D01*
X183680593Y-125892712D01*
X183670504Y-125904525D01*
X183254525Y-126320504D01*
X183200008Y-126348281D01*
X183184521Y-126349500D01*
X180103632Y-126349500D01*
X180045441Y-126330593D01*
X180009477Y-126281093D01*
X180009477Y-126219907D01*
X180030468Y-126183805D01*
X180101837Y-126105519D01*
X180199448Y-125947872D01*
X180266429Y-125774973D01*
X180300500Y-125592710D01*
X180300500Y-125500000D01*
X180300500Y-125499500D01*
X180300500Y-124499901D01*
X180300500Y-124407290D01*
X180266429Y-124225027D01*
X180199448Y-124052128D01*
X180101837Y-123894481D01*
X179976920Y-123757454D01*
X179828952Y-123645714D01*
X179662971Y-123563065D01*
X179484629Y-123512322D01*
X179300000Y-123495214D01*
X179115371Y-123512322D01*
X178937029Y-123563065D01*
X178937028Y-123563065D01*
X178937026Y-123563066D01*
X178771055Y-123645710D01*
X178771046Y-123645715D01*
X178708538Y-123692919D01*
X178623080Y-123757454D01*
X178498163Y-123894481D01*
X178498161Y-123894483D01*
X178498160Y-123894485D01*
X178400555Y-124052122D01*
X178400552Y-124052127D01*
X178333570Y-124225029D01*
X178324842Y-124271723D01*
X178299500Y-124407290D01*
X178299500Y-124499901D01*
X178299500Y-125499500D01*
X178299500Y-125500000D01*
X178299500Y-125592710D01*
X178333571Y-125774973D01*
X178400552Y-125947872D01*
X178498163Y-126105519D01*
X178569530Y-126183805D01*
X178594760Y-126239546D01*
X178582408Y-126299471D01*
X178537191Y-126340691D01*
X178496368Y-126349500D01*
X160103632Y-126349500D01*
X160045441Y-126330593D01*
X160009477Y-126281093D01*
X160009477Y-126219907D01*
X160030468Y-126183805D01*
X160101837Y-126105519D01*
X160199448Y-125947872D01*
X160266429Y-125774973D01*
X160300500Y-125592710D01*
X160300500Y-125500000D01*
X160300500Y-125499500D01*
X160300500Y-124499901D01*
X160300500Y-124407290D01*
X160266429Y-124225027D01*
X160199448Y-124052128D01*
X160101837Y-123894481D01*
X159976920Y-123757454D01*
X159828952Y-123645714D01*
X159662971Y-123563065D01*
X159484629Y-123512322D01*
X159300000Y-123495214D01*
X159115371Y-123512322D01*
X158937029Y-123563065D01*
X158937028Y-123563065D01*
X158937026Y-123563066D01*
X158771055Y-123645710D01*
X158771046Y-123645715D01*
X158708538Y-123692919D01*
X158623080Y-123757454D01*
X158498163Y-123894481D01*
X158498161Y-123894483D01*
X158498160Y-123894485D01*
X158400555Y-124052122D01*
X158400552Y-124052127D01*
X158333570Y-124225029D01*
X158324842Y-124271723D01*
X158299500Y-124407290D01*
X158299500Y-124499901D01*
X158299500Y-125499500D01*
X158299500Y-125500000D01*
X158299500Y-125592710D01*
X158333571Y-125774973D01*
X158400552Y-125947872D01*
X158498163Y-126105519D01*
X158569530Y-126183805D01*
X158594760Y-126239546D01*
X158582408Y-126299471D01*
X158537191Y-126340691D01*
X158496368Y-126349500D01*
X140103632Y-126349500D01*
X140045441Y-126330593D01*
X140009477Y-126281093D01*
X140009477Y-126219907D01*
X140030468Y-126183805D01*
X140101837Y-126105519D01*
X140199448Y-125947872D01*
X140266429Y-125774973D01*
X140300500Y-125592710D01*
X140300500Y-125500000D01*
X140300500Y-125499500D01*
X140300500Y-124499901D01*
X140300500Y-124407290D01*
X140266429Y-124225027D01*
X140199448Y-124052128D01*
X140101837Y-123894481D01*
X139976920Y-123757454D01*
X139828952Y-123645714D01*
X139662971Y-123563065D01*
X139484629Y-123512322D01*
X139300000Y-123495214D01*
X139115371Y-123512322D01*
X138937029Y-123563065D01*
X138937028Y-123563065D01*
X138937026Y-123563066D01*
X138771055Y-123645710D01*
X138771046Y-123645715D01*
X138708538Y-123692919D01*
X138623080Y-123757454D01*
X138498163Y-123894481D01*
X138498161Y-123894483D01*
X138498160Y-123894485D01*
X138400555Y-124052122D01*
X138400552Y-124052127D01*
X138333570Y-124225029D01*
X138324842Y-124271723D01*
X138299500Y-124407290D01*
X138299500Y-124499901D01*
X138299500Y-125499500D01*
X138299500Y-125500000D01*
X138299500Y-125592710D01*
X138333571Y-125774973D01*
X138400552Y-125947872D01*
X138498163Y-126105519D01*
X138569530Y-126183805D01*
X138594760Y-126239546D01*
X138582408Y-126299471D01*
X138537191Y-126340691D01*
X138496368Y-126349500D01*
X120103632Y-126349500D01*
X120045441Y-126330593D01*
X120009477Y-126281093D01*
X120009477Y-126219907D01*
X120030468Y-126183805D01*
X120101837Y-126105519D01*
X120199448Y-125947872D01*
X120266429Y-125774973D01*
X120300500Y-125592710D01*
X120300500Y-125500000D01*
X120300500Y-125499500D01*
X120300500Y-124499901D01*
X120300500Y-124407290D01*
X120266429Y-124225027D01*
X120199448Y-124052128D01*
X120101837Y-123894481D01*
X119976920Y-123757454D01*
X119828952Y-123645714D01*
X119662971Y-123563065D01*
X119484629Y-123512322D01*
X119300000Y-123495214D01*
X119115371Y-123512322D01*
X118937029Y-123563065D01*
X118937028Y-123563065D01*
X118937026Y-123563066D01*
X118771055Y-123645710D01*
X118771046Y-123645715D01*
X118708538Y-123692919D01*
X118623080Y-123757454D01*
X118498163Y-123894481D01*
X118498161Y-123894483D01*
X118498160Y-123894485D01*
X118400555Y-124052122D01*
X118400552Y-124052127D01*
X118333570Y-124225029D01*
X118324842Y-124271723D01*
X118299500Y-124407290D01*
X118299500Y-124499901D01*
X118299500Y-125499500D01*
X118299500Y-125500000D01*
X118299500Y-125592710D01*
X118333571Y-125774973D01*
X118400552Y-125947872D01*
X118498163Y-126105519D01*
X118569530Y-126183805D01*
X118594760Y-126239546D01*
X118582408Y-126299471D01*
X118537191Y-126340691D01*
X118496368Y-126349500D01*
X118115479Y-126349500D01*
X118057288Y-126330593D01*
X118045475Y-126320504D01*
X117429496Y-125704525D01*
X117401719Y-125650008D01*
X117400500Y-125634521D01*
X117400500Y-125275154D01*
X117419407Y-125216963D01*
X117439233Y-125196612D01*
X117478979Y-125166112D01*
X117528282Y-125128282D01*
X117624536Y-125002841D01*
X117685044Y-124856762D01*
X117705682Y-124700000D01*
X117685044Y-124543238D01*
X117667093Y-124499901D01*
X117624537Y-124397161D01*
X117624537Y-124397160D01*
X117528286Y-124271723D01*
X117528285Y-124271722D01*
X117528282Y-124271718D01*
X117528277Y-124271714D01*
X117528276Y-124271713D01*
X117402838Y-124175462D01*
X117256766Y-124114957D01*
X117256758Y-124114955D01*
X117100001Y-124094318D01*
X117099999Y-124094318D01*
X116943241Y-124114955D01*
X116943233Y-124114957D01*
X116797161Y-124175462D01*
X116797160Y-124175462D01*
X116671723Y-124271713D01*
X116671713Y-124271723D01*
X116575462Y-124397160D01*
X116575462Y-124397161D01*
X116514957Y-124543233D01*
X116514955Y-124543241D01*
X116494318Y-124699999D01*
X116494318Y-124700000D01*
X116514955Y-124856758D01*
X116514957Y-124856766D01*
X116575462Y-125002838D01*
X116575462Y-125002839D01*
X116575464Y-125002841D01*
X116671718Y-125128282D01*
X116671722Y-125128285D01*
X116671723Y-125128286D01*
X116760767Y-125196612D01*
X116795423Y-125247037D01*
X116799500Y-125275154D01*
X116799500Y-125401206D01*
X116780593Y-125459397D01*
X116731093Y-125495361D01*
X116669907Y-125495361D01*
X116630496Y-125471210D01*
X114529496Y-123370210D01*
X114501719Y-123315693D01*
X114500500Y-123300206D01*
X114500500Y-120067765D01*
X128145788Y-120067765D01*
X128175414Y-120337020D01*
X128209997Y-120469301D01*
X128243928Y-120599088D01*
X128349870Y-120848390D01*
X128421999Y-120966577D01*
X128490983Y-121079612D01*
X128580252Y-121186880D01*
X128664255Y-121287820D01*
X128865998Y-121468582D01*
X129088624Y-121615870D01*
X129091913Y-121618046D01*
X129224100Y-121680012D01*
X129337176Y-121733020D01*
X129482628Y-121776780D01*
X129596555Y-121811056D01*
X129596559Y-121811057D01*
X129596569Y-121811060D01*
X129763840Y-121835677D01*
X129864560Y-121850500D01*
X129864561Y-121850500D01*
X130067633Y-121850500D01*
X130125495Y-121846264D01*
X130270156Y-121835677D01*
X130534553Y-121776780D01*
X130787558Y-121680014D01*
X131023777Y-121547441D01*
X131238177Y-121381888D01*
X131426186Y-121186881D01*
X131583799Y-120966579D01*
X131707656Y-120725675D01*
X131795118Y-120469305D01*
X131844319Y-120202933D01*
X131849259Y-120067765D01*
X168145788Y-120067765D01*
X168175414Y-120337020D01*
X168209997Y-120469301D01*
X168243928Y-120599088D01*
X168349870Y-120848390D01*
X168421999Y-120966577D01*
X168490983Y-121079612D01*
X168580252Y-121186880D01*
X168664255Y-121287820D01*
X168865998Y-121468582D01*
X169088624Y-121615870D01*
X169091913Y-121618046D01*
X169224100Y-121680012D01*
X169337176Y-121733020D01*
X169482628Y-121776780D01*
X169596555Y-121811056D01*
X169596559Y-121811057D01*
X169596569Y-121811060D01*
X169763840Y-121835677D01*
X169864560Y-121850500D01*
X169864561Y-121850500D01*
X170067633Y-121850500D01*
X170125495Y-121846264D01*
X170270156Y-121835677D01*
X170534553Y-121776780D01*
X170787558Y-121680014D01*
X171023777Y-121547441D01*
X171238177Y-121381888D01*
X171426186Y-121186881D01*
X171583799Y-120966579D01*
X171707656Y-120725675D01*
X171795118Y-120469305D01*
X171844319Y-120202933D01*
X171854212Y-119932235D01*
X171824586Y-119662982D01*
X171756072Y-119400912D01*
X171650130Y-119151610D01*
X171509018Y-118920390D01*
X171335745Y-118712180D01*
X171230754Y-118618108D01*
X171134007Y-118531422D01*
X171134004Y-118531420D01*
X171134002Y-118531418D01*
X170984489Y-118432501D01*
X170908086Y-118381953D01*
X170662822Y-118266979D01*
X170403444Y-118188943D01*
X170403428Y-118188939D01*
X170135440Y-118149500D01*
X170135439Y-118149500D01*
X169932369Y-118149500D01*
X169932367Y-118149500D01*
X169729848Y-118164322D01*
X169465450Y-118223219D01*
X169212439Y-118319987D01*
X168976219Y-118452561D01*
X168761826Y-118618108D01*
X168573814Y-118813119D01*
X168416199Y-119033422D01*
X168292342Y-119274328D01*
X168204884Y-119530687D01*
X168204881Y-119530698D01*
X168155680Y-119797069D01*
X168145788Y-120067765D01*
X131849259Y-120067765D01*
X131854212Y-119932235D01*
X131824586Y-119662982D01*
X131756072Y-119400912D01*
X131650130Y-119151610D01*
X131509018Y-118920390D01*
X131335745Y-118712180D01*
X131230754Y-118618108D01*
X131134007Y-118531422D01*
X131134004Y-118531420D01*
X131134002Y-118531418D01*
X130984489Y-118432501D01*
X130908086Y-118381953D01*
X130662822Y-118266979D01*
X130403444Y-118188943D01*
X130403428Y-118188939D01*
X130135440Y-118149500D01*
X130135439Y-118149500D01*
X129932369Y-118149500D01*
X129932367Y-118149500D01*
X129729848Y-118164322D01*
X129465450Y-118223219D01*
X129212439Y-118319987D01*
X128976219Y-118452561D01*
X128761826Y-118618108D01*
X128573814Y-118813119D01*
X128416199Y-119033422D01*
X128292342Y-119274328D01*
X128204884Y-119530687D01*
X128204881Y-119530698D01*
X128155680Y-119797069D01*
X128145788Y-120067765D01*
X114500500Y-120067765D01*
X114500500Y-115678693D01*
X114519407Y-115620502D01*
X114568907Y-115584538D01*
X114630093Y-115584538D01*
X114669501Y-115608687D01*
X114760861Y-115700047D01*
X114760864Y-115700049D01*
X114760867Y-115700052D01*
X114760869Y-115700053D01*
X114769497Y-115706094D01*
X114947266Y-115830568D01*
X114947272Y-115830571D01*
X114947276Y-115830573D01*
X115153500Y-115926737D01*
X115153504Y-115926739D01*
X115373308Y-115985635D01*
X115373312Y-115985635D01*
X115373315Y-115985636D01*
X115599997Y-116005468D01*
X115600000Y-116005468D01*
X115600003Y-116005468D01*
X115826684Y-115985636D01*
X115826685Y-115985635D01*
X115826692Y-115985635D01*
X116046496Y-115926739D01*
X116252734Y-115830568D01*
X116367794Y-115750003D01*
X121295034Y-115750003D01*
X121314857Y-115976597D01*
X121373733Y-116196323D01*
X121469865Y-116402481D01*
X121600334Y-116588811D01*
X121610050Y-116598527D01*
X122003656Y-116204919D01*
X122050756Y-116268185D01*
X122144540Y-116346880D01*
X121751472Y-116739949D01*
X121761188Y-116749665D01*
X121947518Y-116880134D01*
X122153676Y-116976266D01*
X122373402Y-117035142D01*
X122599997Y-117054966D01*
X122600003Y-117054966D01*
X122826597Y-117035142D01*
X123046323Y-116976266D01*
X123252481Y-116880134D01*
X123438814Y-116749663D01*
X123448527Y-116739949D01*
X123056206Y-116347628D01*
X123085373Y-116328445D01*
X123199208Y-116207786D01*
X123589949Y-116598527D01*
X123599663Y-116588814D01*
X123730134Y-116402481D01*
X123826266Y-116196323D01*
X123885142Y-115976597D01*
X123904966Y-115750003D01*
X123904966Y-115749996D01*
X123885142Y-115523402D01*
X123826266Y-115303676D01*
X123730134Y-115097518D01*
X123599665Y-114911188D01*
X123589949Y-114901472D01*
X123196342Y-115295078D01*
X123149244Y-115231815D01*
X123055457Y-115153118D01*
X123448527Y-114760050D01*
X123438811Y-114750334D01*
X123366931Y-114700003D01*
X134294532Y-114700003D01*
X134314363Y-114926684D01*
X134314364Y-114926691D01*
X134314365Y-114926692D01*
X134334008Y-115000000D01*
X134373262Y-115146500D01*
X134469426Y-115352723D01*
X134469434Y-115352737D01*
X134599946Y-115539130D01*
X134599947Y-115539132D01*
X134599950Y-115539135D01*
X134599953Y-115539139D01*
X134760861Y-115700047D01*
X134760864Y-115700049D01*
X134760867Y-115700052D01*
X134760869Y-115700053D01*
X134769497Y-115706094D01*
X134947266Y-115830568D01*
X134947272Y-115830571D01*
X134947276Y-115830573D01*
X135153500Y-115926737D01*
X135153504Y-115926739D01*
X135373308Y-115985635D01*
X135373312Y-115985635D01*
X135373315Y-115985636D01*
X135599997Y-116005468D01*
X135600000Y-116005468D01*
X135600003Y-116005468D01*
X135826684Y-115985636D01*
X135826685Y-115985635D01*
X135826692Y-115985635D01*
X136046496Y-115926739D01*
X136252734Y-115830568D01*
X136367794Y-115750003D01*
X141295034Y-115750003D01*
X141314857Y-115976597D01*
X141373733Y-116196323D01*
X141469865Y-116402481D01*
X141600334Y-116588811D01*
X141610050Y-116598527D01*
X142003656Y-116204919D01*
X142050756Y-116268185D01*
X142144540Y-116346880D01*
X141751472Y-116739949D01*
X141761188Y-116749665D01*
X141947518Y-116880134D01*
X142153676Y-116976266D01*
X142373402Y-117035142D01*
X142599997Y-117054966D01*
X142600003Y-117054966D01*
X142826597Y-117035142D01*
X143046323Y-116976266D01*
X143252481Y-116880134D01*
X143438814Y-116749663D01*
X143448527Y-116739949D01*
X143056206Y-116347628D01*
X143085373Y-116328445D01*
X143199208Y-116207786D01*
X143589949Y-116598527D01*
X143599663Y-116588814D01*
X143730134Y-116402481D01*
X143826266Y-116196323D01*
X143885142Y-115976597D01*
X143904966Y-115750003D01*
X143904966Y-115749996D01*
X143885142Y-115523402D01*
X143826266Y-115303676D01*
X143730134Y-115097518D01*
X143599665Y-114911188D01*
X143589949Y-114901472D01*
X143196342Y-115295078D01*
X143149244Y-115231815D01*
X143055457Y-115153118D01*
X143338830Y-114869746D01*
X146424500Y-114869746D01*
X146424501Y-114869758D01*
X146436132Y-114928227D01*
X146436134Y-114928233D01*
X146480445Y-114994548D01*
X146480448Y-114994552D01*
X146546769Y-115038867D01*
X146591231Y-115047711D01*
X146605241Y-115050498D01*
X146605246Y-115050498D01*
X146605252Y-115050500D01*
X146605253Y-115050500D01*
X148344747Y-115050500D01*
X148344748Y-115050500D01*
X148403231Y-115038867D01*
X148469552Y-114994552D01*
X148513867Y-114928231D01*
X148525500Y-114869748D01*
X148525500Y-114100000D01*
X148969767Y-114100000D01*
X148980190Y-114205831D01*
X148980191Y-114205836D01*
X149040232Y-114403762D01*
X149040234Y-114403767D01*
X149137724Y-114586160D01*
X149137731Y-114586170D01*
X149268940Y-114746050D01*
X149268949Y-114746059D01*
X149428829Y-114877268D01*
X149428839Y-114877275D01*
X149611232Y-114974765D01*
X149611237Y-114974767D01*
X149809166Y-115034808D01*
X149914998Y-115045231D01*
X149915000Y-115045230D01*
X149915000Y-114490764D01*
X149979237Y-114500000D01*
X150050763Y-114500000D01*
X150115000Y-114490764D01*
X150115000Y-115045230D01*
X150115001Y-115045231D01*
X150220833Y-115034808D01*
X150418762Y-114974767D01*
X150418767Y-114974765D01*
X150601160Y-114877275D01*
X150601170Y-114877268D01*
X150761050Y-114746059D01*
X150761059Y-114746050D01*
X150892268Y-114586170D01*
X150892275Y-114586160D01*
X150989765Y-114403767D01*
X150989767Y-114403762D01*
X151049808Y-114205836D01*
X151049809Y-114205831D01*
X151060232Y-114100000D01*
X150506746Y-114100000D01*
X150515000Y-114071889D01*
X150515000Y-114000003D01*
X151499417Y-114000003D01*
X151519698Y-114205929D01*
X151519699Y-114205934D01*
X151579768Y-114403954D01*
X151677316Y-114586452D01*
X151808302Y-114746059D01*
X151808590Y-114746410D01*
X151837838Y-114770413D01*
X151968547Y-114877683D01*
X151968548Y-114877683D01*
X151968550Y-114877685D01*
X152151046Y-114975232D01*
X152282963Y-115015248D01*
X152349065Y-115035300D01*
X152349070Y-115035301D01*
X152554997Y-115055583D01*
X152555000Y-115055583D01*
X152555003Y-115055583D01*
X152760929Y-115035301D01*
X152760934Y-115035300D01*
X152762556Y-115034808D01*
X152958954Y-114975232D01*
X153141450Y-114877685D01*
X153301410Y-114746410D01*
X153339495Y-114700003D01*
X154294532Y-114700003D01*
X154314363Y-114926684D01*
X154314364Y-114926691D01*
X154314365Y-114926692D01*
X154334008Y-115000000D01*
X154373262Y-115146500D01*
X154469426Y-115352723D01*
X154469434Y-115352737D01*
X154599946Y-115539130D01*
X154599947Y-115539132D01*
X154599950Y-115539135D01*
X154599953Y-115539139D01*
X154760861Y-115700047D01*
X154760864Y-115700049D01*
X154760867Y-115700052D01*
X154760869Y-115700053D01*
X154769497Y-115706094D01*
X154947266Y-115830568D01*
X154947272Y-115830571D01*
X154947276Y-115830573D01*
X155153500Y-115926737D01*
X155153504Y-115926739D01*
X155373308Y-115985635D01*
X155373312Y-115985635D01*
X155373315Y-115985636D01*
X155599997Y-116005468D01*
X155600000Y-116005468D01*
X155600003Y-116005468D01*
X155826684Y-115985636D01*
X155826685Y-115985635D01*
X155826692Y-115985635D01*
X156046496Y-115926739D01*
X156252734Y-115830568D01*
X156367794Y-115750003D01*
X161295034Y-115750003D01*
X161314857Y-115976597D01*
X161373733Y-116196323D01*
X161469865Y-116402481D01*
X161600334Y-116588811D01*
X161610050Y-116598527D01*
X162003656Y-116204919D01*
X162050756Y-116268185D01*
X162144540Y-116346880D01*
X161751472Y-116739949D01*
X161761188Y-116749665D01*
X161947518Y-116880134D01*
X162153676Y-116976266D01*
X162373402Y-117035142D01*
X162599997Y-117054966D01*
X162600003Y-117054966D01*
X162826597Y-117035142D01*
X163046323Y-116976266D01*
X163252481Y-116880134D01*
X163438814Y-116749663D01*
X163448527Y-116739949D01*
X163056206Y-116347628D01*
X163085373Y-116328445D01*
X163199208Y-116207786D01*
X163589949Y-116598527D01*
X163599663Y-116588814D01*
X163730134Y-116402481D01*
X163826266Y-116196323D01*
X163885142Y-115976597D01*
X163904966Y-115750003D01*
X163904966Y-115749996D01*
X163885142Y-115523402D01*
X163826266Y-115303676D01*
X163730134Y-115097518D01*
X163599665Y-114911188D01*
X163589949Y-114901472D01*
X163196342Y-115295078D01*
X163149244Y-115231815D01*
X163055457Y-115153118D01*
X163448527Y-114760050D01*
X163438811Y-114750334D01*
X163366931Y-114700003D01*
X174294532Y-114700003D01*
X174314363Y-114926684D01*
X174314364Y-114926691D01*
X174314365Y-114926692D01*
X174334008Y-115000000D01*
X174373262Y-115146500D01*
X174469426Y-115352723D01*
X174469434Y-115352737D01*
X174599946Y-115539130D01*
X174599947Y-115539132D01*
X174599950Y-115539135D01*
X174599953Y-115539139D01*
X174760861Y-115700047D01*
X174760864Y-115700049D01*
X174760867Y-115700052D01*
X174760869Y-115700053D01*
X174769497Y-115706094D01*
X174947266Y-115830568D01*
X174947272Y-115830571D01*
X174947276Y-115830573D01*
X175153500Y-115926737D01*
X175153504Y-115926739D01*
X175373308Y-115985635D01*
X175373312Y-115985635D01*
X175373315Y-115985636D01*
X175599997Y-116005468D01*
X175600000Y-116005468D01*
X175600003Y-116005468D01*
X175826684Y-115985636D01*
X175826685Y-115985635D01*
X175826692Y-115985635D01*
X176046496Y-115926739D01*
X176252734Y-115830568D01*
X176439139Y-115700047D01*
X176600047Y-115539139D01*
X176730568Y-115352734D01*
X176826739Y-115146496D01*
X176885635Y-114926692D01*
X176886992Y-114911188D01*
X176905468Y-114700003D01*
X176905468Y-114699996D01*
X176885636Y-114473315D01*
X176885635Y-114473312D01*
X176885635Y-114473308D01*
X176826739Y-114253504D01*
X176804557Y-114205934D01*
X176730573Y-114047276D01*
X176730571Y-114047272D01*
X176730568Y-114047266D01*
X176627452Y-113900000D01*
X176600053Y-113860869D01*
X176600052Y-113860867D01*
X176600049Y-113860864D01*
X176600047Y-113860861D01*
X176439139Y-113699953D01*
X176439135Y-113699950D01*
X176439132Y-113699947D01*
X176439130Y-113699946D01*
X176252737Y-113569434D01*
X176252736Y-113569433D01*
X176252734Y-113569432D01*
X176252731Y-113569430D01*
X176252723Y-113569426D01*
X176046499Y-113473262D01*
X176046500Y-113473262D01*
X175973228Y-113453629D01*
X175826692Y-113414365D01*
X175826691Y-113414364D01*
X175826684Y-113414363D01*
X175600003Y-113394532D01*
X175599997Y-113394532D01*
X175373315Y-113414363D01*
X175153499Y-113473262D01*
X174947276Y-113569426D01*
X174947262Y-113569434D01*
X174760869Y-113699946D01*
X174760867Y-113699947D01*
X174599947Y-113860867D01*
X174599946Y-113860869D01*
X174469434Y-114047262D01*
X174469426Y-114047276D01*
X174373262Y-114253499D01*
X174314363Y-114473315D01*
X174294532Y-114699996D01*
X174294532Y-114700003D01*
X163366931Y-114700003D01*
X163252481Y-114619865D01*
X163046323Y-114523733D01*
X162826597Y-114464857D01*
X162600003Y-114445034D01*
X162599997Y-114445034D01*
X162373402Y-114464857D01*
X162153676Y-114523733D01*
X161947518Y-114619865D01*
X161761185Y-114750336D01*
X161751471Y-114760049D01*
X162143793Y-115152371D01*
X162114627Y-115171555D01*
X162000791Y-115292213D01*
X161610049Y-114901471D01*
X161600336Y-114911185D01*
X161469865Y-115097518D01*
X161373733Y-115303676D01*
X161314857Y-115523402D01*
X161295034Y-115749996D01*
X161295034Y-115750003D01*
X156367794Y-115750003D01*
X156439139Y-115700047D01*
X156600047Y-115539139D01*
X156730568Y-115352734D01*
X156826739Y-115146496D01*
X156885635Y-114926692D01*
X156886992Y-114911188D01*
X156905468Y-114700003D01*
X156905468Y-114699996D01*
X156885636Y-114473315D01*
X156885635Y-114473312D01*
X156885635Y-114473308D01*
X156826739Y-114253504D01*
X156804557Y-114205934D01*
X156730573Y-114047276D01*
X156730571Y-114047272D01*
X156730568Y-114047266D01*
X156627452Y-113900000D01*
X156600053Y-113860869D01*
X156600052Y-113860867D01*
X156600049Y-113860864D01*
X156600047Y-113860861D01*
X156439139Y-113699953D01*
X156439135Y-113699950D01*
X156439132Y-113699947D01*
X156439130Y-113699946D01*
X156252737Y-113569434D01*
X156252736Y-113569433D01*
X156252734Y-113569432D01*
X156252731Y-113569430D01*
X156252723Y-113569426D01*
X156046499Y-113473262D01*
X156046500Y-113473262D01*
X155973228Y-113453629D01*
X155826692Y-113414365D01*
X155826691Y-113414364D01*
X155826684Y-113414363D01*
X155600003Y-113394532D01*
X155599997Y-113394532D01*
X155373315Y-113414363D01*
X155153499Y-113473262D01*
X154947276Y-113569426D01*
X154947262Y-113569434D01*
X154760869Y-113699946D01*
X154760867Y-113699947D01*
X154599947Y-113860867D01*
X154599946Y-113860869D01*
X154469434Y-114047262D01*
X154469426Y-114047276D01*
X154373262Y-114253499D01*
X154314363Y-114473315D01*
X154294532Y-114699996D01*
X154294532Y-114700003D01*
X153339495Y-114700003D01*
X153432685Y-114586450D01*
X153530232Y-114403954D01*
X153590300Y-114205934D01*
X153590301Y-114205929D01*
X153610583Y-114000003D01*
X153610583Y-113999996D01*
X153590301Y-113794070D01*
X153590300Y-113794065D01*
X153561751Y-113699953D01*
X153530232Y-113596046D01*
X153432685Y-113413550D01*
X153417077Y-113394532D01*
X153301414Y-113253595D01*
X153301410Y-113253590D01*
X153151123Y-113130253D01*
X153141452Y-113122316D01*
X152958954Y-113024768D01*
X152760934Y-112964699D01*
X152760929Y-112964698D01*
X152555003Y-112944417D01*
X152554997Y-112944417D01*
X152349070Y-112964698D01*
X152349065Y-112964699D01*
X152151045Y-113024768D01*
X151968547Y-113122316D01*
X151808595Y-113253585D01*
X151808585Y-113253595D01*
X151677316Y-113413547D01*
X151579768Y-113596045D01*
X151519699Y-113794065D01*
X151519698Y-113794070D01*
X151499417Y-113999996D01*
X151499417Y-114000003D01*
X150515000Y-114000003D01*
X150515000Y-113928111D01*
X150506746Y-113900000D01*
X151060232Y-113900000D01*
X151060232Y-113899999D01*
X151049809Y-113794168D01*
X151049808Y-113794163D01*
X150989767Y-113596237D01*
X150989765Y-113596232D01*
X150892275Y-113413839D01*
X150892268Y-113413829D01*
X150761059Y-113253949D01*
X150761050Y-113253940D01*
X150601170Y-113122731D01*
X150601160Y-113122724D01*
X150418767Y-113025234D01*
X150418762Y-113025232D01*
X150220836Y-112965191D01*
X150220831Y-112965190D01*
X150115000Y-112954767D01*
X150115000Y-113509235D01*
X150050763Y-113500000D01*
X149979237Y-113500000D01*
X149915000Y-113509235D01*
X149915000Y-112954767D01*
X149914999Y-112954767D01*
X149809168Y-112965190D01*
X149809163Y-112965191D01*
X149611237Y-113025232D01*
X149611232Y-113025234D01*
X149428839Y-113122724D01*
X149428829Y-113122731D01*
X149268949Y-113253940D01*
X149268940Y-113253949D01*
X149137731Y-113413829D01*
X149137724Y-113413839D01*
X149040234Y-113596232D01*
X149040232Y-113596237D01*
X148980191Y-113794163D01*
X148980190Y-113794168D01*
X148969767Y-113899999D01*
X148969768Y-113900000D01*
X149523254Y-113900000D01*
X149515000Y-113928111D01*
X149515000Y-114071889D01*
X149523254Y-114100000D01*
X148969767Y-114100000D01*
X148525500Y-114100000D01*
X148525500Y-113130252D01*
X148523921Y-113122316D01*
X148522711Y-113116231D01*
X148513867Y-113071769D01*
X148469552Y-113005448D01*
X148469548Y-113005445D01*
X148403233Y-112961134D01*
X148403231Y-112961133D01*
X148403228Y-112961132D01*
X148403227Y-112961132D01*
X148344758Y-112949501D01*
X148344748Y-112949500D01*
X146605252Y-112949500D01*
X146605251Y-112949500D01*
X146605241Y-112949501D01*
X146546772Y-112961132D01*
X146546766Y-112961134D01*
X146480451Y-113005445D01*
X146480445Y-113005451D01*
X146436134Y-113071766D01*
X146436132Y-113071772D01*
X146424501Y-113130241D01*
X146424500Y-113130253D01*
X146424500Y-114869746D01*
X143338830Y-114869746D01*
X143448527Y-114760050D01*
X143438811Y-114750334D01*
X143252481Y-114619865D01*
X143046323Y-114523733D01*
X142826597Y-114464857D01*
X142600003Y-114445034D01*
X142599997Y-114445034D01*
X142373402Y-114464857D01*
X142153676Y-114523733D01*
X141947518Y-114619865D01*
X141761185Y-114750336D01*
X141751471Y-114760049D01*
X142143793Y-115152371D01*
X142114627Y-115171555D01*
X142000791Y-115292213D01*
X141610049Y-114901471D01*
X141600336Y-114911185D01*
X141469865Y-115097518D01*
X141373733Y-115303676D01*
X141314857Y-115523402D01*
X141295034Y-115749996D01*
X141295034Y-115750003D01*
X136367794Y-115750003D01*
X136439139Y-115700047D01*
X136600047Y-115539139D01*
X136730568Y-115352734D01*
X136826739Y-115146496D01*
X136885635Y-114926692D01*
X136886992Y-114911188D01*
X136905468Y-114700003D01*
X136905468Y-114699996D01*
X136885636Y-114473315D01*
X136885635Y-114473312D01*
X136885635Y-114473308D01*
X136826739Y-114253504D01*
X136804557Y-114205934D01*
X136730573Y-114047276D01*
X136730571Y-114047272D01*
X136730568Y-114047266D01*
X136627452Y-113900000D01*
X136600053Y-113860869D01*
X136600052Y-113860867D01*
X136600049Y-113860864D01*
X136600047Y-113860861D01*
X136439139Y-113699953D01*
X136439135Y-113699950D01*
X136439132Y-113699947D01*
X136439130Y-113699946D01*
X136252737Y-113569434D01*
X136252736Y-113569433D01*
X136252734Y-113569432D01*
X136252731Y-113569430D01*
X136252723Y-113569426D01*
X136046499Y-113473262D01*
X136046500Y-113473262D01*
X135973228Y-113453629D01*
X135826692Y-113414365D01*
X135826691Y-113414364D01*
X135826684Y-113414363D01*
X135600003Y-113394532D01*
X135599997Y-113394532D01*
X135373315Y-113414363D01*
X135153499Y-113473262D01*
X134947276Y-113569426D01*
X134947262Y-113569434D01*
X134760869Y-113699946D01*
X134760867Y-113699947D01*
X134599947Y-113860867D01*
X134599946Y-113860869D01*
X134469434Y-114047262D01*
X134469426Y-114047276D01*
X134373262Y-114253499D01*
X134314363Y-114473315D01*
X134294532Y-114699996D01*
X134294532Y-114700003D01*
X123366931Y-114700003D01*
X123252481Y-114619865D01*
X123046323Y-114523733D01*
X122826597Y-114464857D01*
X122600003Y-114445034D01*
X122599997Y-114445034D01*
X122373402Y-114464857D01*
X122153676Y-114523733D01*
X121947518Y-114619865D01*
X121761185Y-114750336D01*
X121751471Y-114760049D01*
X122143793Y-115152371D01*
X122114627Y-115171555D01*
X122000791Y-115292213D01*
X121610049Y-114901471D01*
X121600336Y-114911185D01*
X121469865Y-115097518D01*
X121373733Y-115303676D01*
X121314857Y-115523402D01*
X121295034Y-115749996D01*
X121295034Y-115750003D01*
X116367794Y-115750003D01*
X116439139Y-115700047D01*
X116600047Y-115539139D01*
X116730568Y-115352734D01*
X116826739Y-115146496D01*
X116885635Y-114926692D01*
X116886992Y-114911188D01*
X116905468Y-114700003D01*
X116905468Y-114699996D01*
X116885636Y-114473315D01*
X116885635Y-114473312D01*
X116885635Y-114473308D01*
X116826739Y-114253504D01*
X116804557Y-114205934D01*
X116730573Y-114047276D01*
X116730571Y-114047272D01*
X116730568Y-114047266D01*
X116627452Y-113900000D01*
X116600053Y-113860869D01*
X116600052Y-113860867D01*
X116600049Y-113860864D01*
X116600047Y-113860861D01*
X116439139Y-113699953D01*
X116439135Y-113699950D01*
X116439132Y-113699947D01*
X116439130Y-113699946D01*
X116252737Y-113569434D01*
X116252736Y-113569433D01*
X116252734Y-113569432D01*
X116252731Y-113569430D01*
X116252723Y-113569426D01*
X116046499Y-113473262D01*
X116046500Y-113473262D01*
X115973228Y-113453629D01*
X115826692Y-113414365D01*
X115826691Y-113414364D01*
X115826684Y-113414363D01*
X115600003Y-113394532D01*
X115599997Y-113394532D01*
X115373315Y-113414363D01*
X115153499Y-113473262D01*
X114947276Y-113569426D01*
X114947262Y-113569434D01*
X114760869Y-113699946D01*
X114760867Y-113699947D01*
X114760861Y-113699952D01*
X114760861Y-113699953D01*
X114669501Y-113791312D01*
X114614987Y-113819088D01*
X114554555Y-113809517D01*
X114511290Y-113766252D01*
X114500500Y-113721307D01*
X114500500Y-109915371D01*
X117145739Y-109915371D01*
X117155764Y-110253555D01*
X117205716Y-110588175D01*
X117294893Y-110914528D01*
X117294899Y-110914545D01*
X117422044Y-111228051D01*
X117422050Y-111228064D01*
X117585385Y-111524336D01*
X117585388Y-111524341D01*
X117639675Y-111600000D01*
X117782621Y-111799222D01*
X117782634Y-111799238D01*
X118010985Y-112048850D01*
X118010991Y-112048856D01*
X118267274Y-112269720D01*
X118547871Y-112458716D01*
X118547876Y-112458719D01*
X118547882Y-112458723D01*
X118848875Y-112613212D01*
X119166028Y-112731017D01*
X119350632Y-112775626D01*
X119494874Y-112810482D01*
X119494875Y-112810482D01*
X119494887Y-112810485D01*
X119830837Y-112850500D01*
X119830841Y-112850500D01*
X120084503Y-112850500D01*
X120084504Y-112850500D01*
X120337731Y-112835472D01*
X120670721Y-112775626D01*
X120994295Y-112676816D01*
X121303912Y-112540429D01*
X121595224Y-112368380D01*
X121864143Y-112163085D01*
X122106894Y-111927424D01*
X122320068Y-111664707D01*
X122500674Y-111378620D01*
X122646176Y-111073181D01*
X122754531Y-110752677D01*
X122824219Y-110421607D01*
X122854261Y-110084618D01*
X122849243Y-109915371D01*
X137145739Y-109915371D01*
X137155764Y-110253555D01*
X137205716Y-110588175D01*
X137294893Y-110914528D01*
X137294899Y-110914545D01*
X137422044Y-111228051D01*
X137422050Y-111228064D01*
X137585385Y-111524336D01*
X137585388Y-111524341D01*
X137639675Y-111600000D01*
X137782621Y-111799222D01*
X137782634Y-111799238D01*
X138010985Y-112048850D01*
X138010991Y-112048856D01*
X138267274Y-112269720D01*
X138547871Y-112458716D01*
X138547876Y-112458719D01*
X138547882Y-112458723D01*
X138848875Y-112613212D01*
X139166028Y-112731017D01*
X139350632Y-112775626D01*
X139494874Y-112810482D01*
X139494875Y-112810482D01*
X139494887Y-112810485D01*
X139830837Y-112850500D01*
X139830841Y-112850500D01*
X140084503Y-112850500D01*
X140084504Y-112850500D01*
X140337731Y-112835472D01*
X140670721Y-112775626D01*
X140994295Y-112676816D01*
X141303912Y-112540429D01*
X141595224Y-112368380D01*
X141864143Y-112163085D01*
X142106894Y-111927424D01*
X142320068Y-111664707D01*
X142500674Y-111378620D01*
X142646176Y-111073181D01*
X142754531Y-110752677D01*
X142824219Y-110421607D01*
X142854261Y-110084618D01*
X142844235Y-109746442D01*
X142794283Y-109411825D01*
X142705105Y-109085465D01*
X142577953Y-108771942D01*
X142414612Y-108475659D01*
X142295026Y-108308994D01*
X142217378Y-108200777D01*
X142217365Y-108200761D01*
X141989014Y-107951149D01*
X141989008Y-107951143D01*
X141732725Y-107730279D01*
X141452128Y-107541283D01*
X141452113Y-107541274D01*
X141151129Y-107386790D01*
X141151120Y-107386786D01*
X140975005Y-107321369D01*
X140833972Y-107268983D01*
X140833971Y-107268982D01*
X140833969Y-107268982D01*
X140505125Y-107189517D01*
X140505114Y-107189515D01*
X140505113Y-107189515D01*
X140505110Y-107189514D01*
X140505106Y-107189514D01*
X140169165Y-107149500D01*
X140169163Y-107149500D01*
X139915496Y-107149500D01*
X139662269Y-107164528D01*
X139329282Y-107224373D01*
X139329281Y-107224373D01*
X139005700Y-107323185D01*
X138696085Y-107459571D01*
X138404779Y-107631617D01*
X138404778Y-107631618D01*
X138135854Y-107836916D01*
X137893104Y-108072577D01*
X137893101Y-108072580D01*
X137679934Y-108335290D01*
X137499324Y-108621381D01*
X137353827Y-108926812D01*
X137353822Y-108926822D01*
X137245467Y-109247328D01*
X137175782Y-109578382D01*
X137175781Y-109578389D01*
X137145739Y-109915371D01*
X122849243Y-109915371D01*
X122844235Y-109746442D01*
X122794283Y-109411825D01*
X122705105Y-109085465D01*
X122577953Y-108771942D01*
X122414612Y-108475659D01*
X122295026Y-108308994D01*
X122217378Y-108200777D01*
X122217365Y-108200761D01*
X121989014Y-107951149D01*
X121989008Y-107951143D01*
X121732725Y-107730279D01*
X121452128Y-107541283D01*
X121452113Y-107541274D01*
X121151129Y-107386790D01*
X121151120Y-107386786D01*
X120975005Y-107321369D01*
X120833972Y-107268983D01*
X120833971Y-107268982D01*
X120833969Y-107268982D01*
X120505125Y-107189517D01*
X120505114Y-107189515D01*
X120505113Y-107189515D01*
X120505110Y-107189514D01*
X120505106Y-107189514D01*
X120169165Y-107149500D01*
X120169163Y-107149500D01*
X119915496Y-107149500D01*
X119662269Y-107164528D01*
X119329282Y-107224373D01*
X119329281Y-107224373D01*
X119005700Y-107323185D01*
X118696085Y-107459571D01*
X118404779Y-107631617D01*
X118404778Y-107631618D01*
X118135854Y-107836916D01*
X117893104Y-108072577D01*
X117893101Y-108072580D01*
X117679934Y-108335290D01*
X117499324Y-108621381D01*
X117353827Y-108926812D01*
X117353822Y-108926822D01*
X117245467Y-109247328D01*
X117175782Y-109578382D01*
X117175781Y-109578389D01*
X117145739Y-109915371D01*
X114500500Y-109915371D01*
X114500500Y-107365478D01*
X114519407Y-107307287D01*
X114529490Y-107295480D01*
X116232259Y-105592710D01*
X118299500Y-105592710D01*
X118333571Y-105774973D01*
X118389800Y-105920118D01*
X118400552Y-105947872D01*
X118400555Y-105947877D01*
X118411524Y-105965593D01*
X118498163Y-106105519D01*
X118623080Y-106242546D01*
X118771048Y-106354286D01*
X118937029Y-106436935D01*
X119115371Y-106487678D01*
X119300000Y-106504786D01*
X119484629Y-106487678D01*
X119662971Y-106436935D01*
X119828952Y-106354286D01*
X119976920Y-106242546D01*
X120101837Y-106105519D01*
X120199448Y-105947872D01*
X120266429Y-105774973D01*
X120300500Y-105592710D01*
X138299500Y-105592710D01*
X138333571Y-105774973D01*
X138389800Y-105920118D01*
X138400552Y-105947872D01*
X138400555Y-105947877D01*
X138411524Y-105965593D01*
X138498163Y-106105519D01*
X138623080Y-106242546D01*
X138771048Y-106354286D01*
X138937029Y-106436935D01*
X139115371Y-106487678D01*
X139300000Y-106504786D01*
X139484629Y-106487678D01*
X139662971Y-106436935D01*
X139828952Y-106354286D01*
X139976920Y-106242546D01*
X140101837Y-106105519D01*
X140199448Y-105947872D01*
X140266429Y-105774973D01*
X140300500Y-105592710D01*
X140300500Y-105500000D01*
X140300500Y-105499500D01*
X140300500Y-104499901D01*
X140300500Y-104407290D01*
X140266429Y-104225027D01*
X140199448Y-104052128D01*
X140101837Y-103894481D01*
X139976920Y-103757454D01*
X139828952Y-103645714D01*
X139662971Y-103563065D01*
X139484629Y-103512322D01*
X139300000Y-103495214D01*
X139115371Y-103512322D01*
X138937029Y-103563065D01*
X138937028Y-103563065D01*
X138937026Y-103563066D01*
X138771055Y-103645710D01*
X138771046Y-103645715D01*
X138707026Y-103694061D01*
X138623080Y-103757454D01*
X138498163Y-103894481D01*
X138498161Y-103894483D01*
X138498160Y-103894485D01*
X138400555Y-104052122D01*
X138400552Y-104052127D01*
X138333570Y-104225029D01*
X138324842Y-104271723D01*
X138299500Y-104407290D01*
X138299500Y-104499901D01*
X138299500Y-105499500D01*
X138299500Y-105500000D01*
X138299500Y-105592710D01*
X120300500Y-105592710D01*
X120300500Y-105500000D01*
X120300500Y-105499500D01*
X120300500Y-104499901D01*
X120300500Y-104407290D01*
X120266429Y-104225027D01*
X120199448Y-104052128D01*
X120101837Y-103894481D01*
X119976920Y-103757454D01*
X119828952Y-103645714D01*
X119662971Y-103563065D01*
X119484629Y-103512322D01*
X119300000Y-103495214D01*
X119115371Y-103512322D01*
X118937029Y-103563065D01*
X118937028Y-103563065D01*
X118937026Y-103563066D01*
X118771055Y-103645710D01*
X118771046Y-103645715D01*
X118707026Y-103694061D01*
X118623080Y-103757454D01*
X118498163Y-103894481D01*
X118498161Y-103894483D01*
X118498160Y-103894485D01*
X118400555Y-104052122D01*
X118400552Y-104052127D01*
X118333570Y-104225029D01*
X118324842Y-104271723D01*
X118299500Y-104407290D01*
X118299500Y-104499901D01*
X118299500Y-105499500D01*
X118299500Y-105500000D01*
X118299500Y-105592710D01*
X116232259Y-105592710D01*
X116505791Y-105319178D01*
X116560306Y-105291403D01*
X116588714Y-105291031D01*
X116643804Y-105298283D01*
X116699999Y-105305682D01*
X116700000Y-105305682D01*
X116700001Y-105305682D01*
X116731352Y-105301554D01*
X116856762Y-105285044D01*
X117002841Y-105224536D01*
X117128282Y-105128282D01*
X117224536Y-105002841D01*
X117285044Y-104856762D01*
X117305682Y-104700000D01*
X117285044Y-104543238D01*
X117228734Y-104407294D01*
X117224537Y-104397161D01*
X117224537Y-104397160D01*
X117128286Y-104271723D01*
X117128285Y-104271722D01*
X117128282Y-104271718D01*
X117128277Y-104271714D01*
X117128276Y-104271713D01*
X117002838Y-104175462D01*
X116856766Y-104114957D01*
X116856758Y-104114955D01*
X116700001Y-104094318D01*
X116699999Y-104094318D01*
X116543241Y-104114955D01*
X116543233Y-104114957D01*
X116397161Y-104175462D01*
X116397160Y-104175462D01*
X116271723Y-104271713D01*
X116271713Y-104271723D01*
X116175462Y-104397160D01*
X116175462Y-104397161D01*
X116114957Y-104543233D01*
X116114955Y-104543241D01*
X116094318Y-104699999D01*
X116094318Y-104700000D01*
X116108968Y-104811282D01*
X116097818Y-104871443D01*
X116080819Y-104894208D01*
X114033590Y-106941437D01*
X114022361Y-106949550D01*
X114023090Y-106950515D01*
X114015771Y-106956041D01*
X113983372Y-106991580D01*
X113981796Y-106993231D01*
X113967830Y-107007198D01*
X113967817Y-107007213D01*
X113965813Y-107010138D01*
X113961561Y-107015504D01*
X113940084Y-107039065D01*
X113940083Y-107039067D01*
X113936529Y-107048240D01*
X113925896Y-107068412D01*
X113920346Y-107076515D01*
X113920342Y-107076524D01*
X113913045Y-107107545D01*
X113911016Y-107114098D01*
X113899500Y-107143824D01*
X113899500Y-107153651D01*
X113896870Y-107176318D01*
X113894621Y-107185879D01*
X112000500Y-107185879D01*
X112000500Y-100116634D01*
X139703484Y-100116634D01*
X139706896Y-100136420D01*
X139708336Y-100153243D01*
X139708336Y-100875269D01*
X139706074Y-100941490D01*
X139706074Y-100941494D01*
X139716703Y-100985108D01*
X139717650Y-100990090D01*
X139723766Y-101034588D01*
X139723766Y-101034589D01*
X139731767Y-101053008D01*
X139737149Y-101069012D01*
X139741901Y-101088513D01*
X139741904Y-101088521D01*
X139763911Y-101127662D01*
X139766167Y-101132203D01*
X139784056Y-101173388D01*
X139796727Y-101188962D01*
X139806227Y-101202920D01*
X139816068Y-101220424D01*
X139847828Y-101252185D01*
X139851223Y-101255947D01*
X139879558Y-101290775D01*
X139895960Y-101302353D01*
X139908872Y-101313228D01*
X140419426Y-101823782D01*
X140464653Y-101872209D01*
X140503019Y-101895539D01*
X140507210Y-101898392D01*
X140542991Y-101925525D01*
X140561679Y-101932894D01*
X140576787Y-101940398D01*
X140593951Y-101950836D01*
X140637200Y-101962953D01*
X140641983Y-101964562D01*
X140666703Y-101974310D01*
X140683765Y-101981039D01*
X140683766Y-101981039D01*
X140683769Y-101981040D01*
X140703748Y-101983093D01*
X140720325Y-101986244D01*
X140739668Y-101991664D01*
X140784570Y-101991664D01*
X140789635Y-101991924D01*
X140798859Y-101992872D01*
X140834305Y-101996516D01*
X140854094Y-101993103D01*
X140870916Y-101991664D01*
X142749439Y-101991664D01*
X142815662Y-101993926D01*
X142859286Y-101983294D01*
X142864252Y-101982349D01*
X142908756Y-101976234D01*
X142927175Y-101968232D01*
X142943173Y-101962851D01*
X142962688Y-101958097D01*
X143001840Y-101936082D01*
X143006347Y-101933843D01*
X143047556Y-101915944D01*
X143063130Y-101903273D01*
X143077086Y-101893773D01*
X143094595Y-101883930D01*
X143126350Y-101852173D01*
X143130105Y-101848783D01*
X143164944Y-101820442D01*
X143176528Y-101804030D01*
X143187399Y-101791125D01*
X143499029Y-101479496D01*
X143553545Y-101451719D01*
X143569032Y-101450500D01*
X144350500Y-101450500D01*
X144408691Y-101469407D01*
X144444655Y-101518907D01*
X144449500Y-101549500D01*
X144449500Y-108385521D01*
X144430593Y-108443712D01*
X144381093Y-108479676D01*
X144319907Y-108479676D01*
X144280496Y-108455525D01*
X143729496Y-107904525D01*
X143701719Y-107850008D01*
X143700500Y-107834521D01*
X143700500Y-105275154D01*
X143719407Y-105216963D01*
X143739233Y-105196612D01*
X143778979Y-105166112D01*
X143828282Y-105128282D01*
X143924536Y-105002841D01*
X143985044Y-104856762D01*
X144005682Y-104700000D01*
X143985044Y-104543238D01*
X143928734Y-104407294D01*
X143924537Y-104397161D01*
X143924537Y-104397160D01*
X143828286Y-104271723D01*
X143828285Y-104271722D01*
X143828282Y-104271718D01*
X143828277Y-104271714D01*
X143828276Y-104271713D01*
X143702838Y-104175462D01*
X143556766Y-104114957D01*
X143556758Y-104114955D01*
X143400001Y-104094318D01*
X143399999Y-104094318D01*
X143243241Y-104114955D01*
X143243233Y-104114957D01*
X143097161Y-104175462D01*
X143097160Y-104175462D01*
X142971723Y-104271713D01*
X142971713Y-104271723D01*
X142875462Y-104397160D01*
X142875462Y-104397161D01*
X142814957Y-104543233D01*
X142814955Y-104543241D01*
X142794318Y-104699999D01*
X142794318Y-104700000D01*
X142814955Y-104856758D01*
X142814957Y-104856766D01*
X142875462Y-105002838D01*
X142875462Y-105002839D01*
X142875464Y-105002841D01*
X142971718Y-105128282D01*
X142971722Y-105128285D01*
X142971723Y-105128286D01*
X143060767Y-105196612D01*
X143095423Y-105247037D01*
X143099500Y-105275154D01*
X143099500Y-107934835D01*
X143097280Y-107948513D01*
X143098494Y-107948683D01*
X143097226Y-107957766D01*
X143099447Y-108005783D01*
X143099500Y-108008069D01*
X143099500Y-108027842D01*
X143100152Y-108031332D01*
X143100943Y-108038149D01*
X143102414Y-108069987D01*
X143102415Y-108069994D01*
X143106384Y-108078982D01*
X143113133Y-108100773D01*
X143114939Y-108110433D01*
X143131717Y-108137533D01*
X143134915Y-108143600D01*
X143147793Y-108172763D01*
X143147794Y-108172765D01*
X143154745Y-108179716D01*
X143168907Y-108197596D01*
X143170877Y-108200777D01*
X143174081Y-108205952D01*
X143199511Y-108225156D01*
X143204690Y-108229662D01*
X146541436Y-111566407D01*
X146549537Y-111577647D01*
X146550516Y-111576909D01*
X146556044Y-111584230D01*
X146591569Y-111616616D01*
X146593223Y-111618195D01*
X146607201Y-111632172D01*
X146607203Y-111632174D01*
X146610128Y-111634178D01*
X146615505Y-111638437D01*
X146639064Y-111659914D01*
X146639065Y-111659914D01*
X146639067Y-111659916D01*
X146648230Y-111663466D01*
X146668416Y-111674105D01*
X146676519Y-111679656D01*
X146707553Y-111686955D01*
X146714090Y-111688979D01*
X146743827Y-111700500D01*
X146753652Y-111700500D01*
X146776316Y-111703129D01*
X146785881Y-111705379D01*
X146810494Y-111701945D01*
X146817453Y-111700975D01*
X146824299Y-111700500D01*
X150934521Y-111700500D01*
X150992712Y-111719407D01*
X151004525Y-111729496D01*
X151041436Y-111766407D01*
X151049537Y-111777647D01*
X151050516Y-111776909D01*
X151056044Y-111784230D01*
X151091569Y-111816616D01*
X151093223Y-111818195D01*
X151107201Y-111832172D01*
X151107203Y-111832174D01*
X151110128Y-111834178D01*
X151115505Y-111838437D01*
X151139063Y-111859913D01*
X151139064Y-111859913D01*
X151139067Y-111859916D01*
X151148233Y-111863467D01*
X151168412Y-111874103D01*
X151176520Y-111879657D01*
X151207558Y-111886957D01*
X151214096Y-111888982D01*
X151243827Y-111900500D01*
X151253652Y-111900500D01*
X151276316Y-111903129D01*
X151285881Y-111905379D01*
X151310494Y-111901945D01*
X151317453Y-111900975D01*
X151324299Y-111900500D01*
X156024846Y-111900500D01*
X156083037Y-111919407D01*
X156103388Y-111939233D01*
X156171718Y-112028282D01*
X156297159Y-112124536D01*
X156297160Y-112124536D01*
X156297161Y-112124537D01*
X156390224Y-112163085D01*
X156443238Y-112185044D01*
X156560809Y-112200522D01*
X156599999Y-112205682D01*
X156600000Y-112205682D01*
X156600001Y-112205682D01*
X156631352Y-112201554D01*
X156756762Y-112185044D01*
X156902841Y-112124536D01*
X157028282Y-112028282D01*
X157124536Y-111902841D01*
X157185044Y-111756762D01*
X157205682Y-111600000D01*
X157202762Y-111577824D01*
X157185044Y-111443241D01*
X157185044Y-111443238D01*
X157158278Y-111378620D01*
X157124537Y-111297161D01*
X157124537Y-111297160D01*
X157028286Y-111171723D01*
X157028285Y-111171722D01*
X157028282Y-111171718D01*
X157028277Y-111171714D01*
X157028276Y-111171713D01*
X156902838Y-111075462D01*
X156756766Y-111014957D01*
X156756758Y-111014955D01*
X156600001Y-110994318D01*
X156599999Y-110994318D01*
X156443241Y-111014955D01*
X156443233Y-111014957D01*
X156297161Y-111075462D01*
X156297160Y-111075462D01*
X156171723Y-111171713D01*
X156171713Y-111171723D01*
X156103388Y-111260767D01*
X156052963Y-111295423D01*
X156024846Y-111299500D01*
X151465479Y-111299500D01*
X151407288Y-111280593D01*
X151395475Y-111270504D01*
X151358565Y-111233594D01*
X151350479Y-111222344D01*
X151349487Y-111223094D01*
X151343957Y-111215771D01*
X151326518Y-111199873D01*
X151296253Y-111146697D01*
X151303024Y-111085888D01*
X151330738Y-111049916D01*
X151356108Y-111029278D01*
X151367687Y-111012872D01*
X151378557Y-110999966D01*
X152935756Y-109442767D01*
X152935759Y-109442766D01*
X158148912Y-104229611D01*
X158203425Y-104201837D01*
X158263857Y-104211408D01*
X158307122Y-104254673D01*
X158316693Y-104315105D01*
X158316227Y-104317808D01*
X158299500Y-104407290D01*
X158299500Y-104499901D01*
X158299500Y-105499500D01*
X158299500Y-105500000D01*
X158299500Y-105592710D01*
X158333571Y-105774973D01*
X158389800Y-105920118D01*
X158400552Y-105947872D01*
X158400555Y-105947877D01*
X158411524Y-105965593D01*
X158498163Y-106105519D01*
X158623080Y-106242546D01*
X158771048Y-106354286D01*
X158937029Y-106436935D01*
X159115371Y-106487678D01*
X159300000Y-106504786D01*
X159484629Y-106487678D01*
X159662971Y-106436935D01*
X159828952Y-106354286D01*
X159868205Y-106324643D01*
X159926035Y-106304664D01*
X159984565Y-106322492D01*
X160021438Y-106371319D01*
X160022569Y-106432494D01*
X160019331Y-106441529D01*
X160017549Y-106445829D01*
X160017548Y-106445834D01*
X159996911Y-106602592D01*
X159996911Y-106602593D01*
X160017548Y-106759351D01*
X160017550Y-106759359D01*
X160078055Y-106905431D01*
X160078055Y-106905432D01*
X160143125Y-106990233D01*
X160163549Y-107047909D01*
X160146171Y-107106575D01*
X160097629Y-107143822D01*
X160064583Y-107149500D01*
X159915496Y-107149500D01*
X159662269Y-107164528D01*
X159329282Y-107224373D01*
X159329281Y-107224373D01*
X159005700Y-107323185D01*
X158696085Y-107459571D01*
X158404779Y-107631617D01*
X158404778Y-107631618D01*
X158135854Y-107836916D01*
X157893104Y-108072577D01*
X157893101Y-108072580D01*
X157679934Y-108335290D01*
X157499324Y-108621381D01*
X157353827Y-108926812D01*
X157353822Y-108926822D01*
X157245467Y-109247328D01*
X157175782Y-109578382D01*
X157175781Y-109578389D01*
X157145739Y-109915371D01*
X157155764Y-110253555D01*
X157205716Y-110588175D01*
X157294893Y-110914528D01*
X157294899Y-110914545D01*
X157422044Y-111228051D01*
X157422050Y-111228064D01*
X157585385Y-111524336D01*
X157585388Y-111524341D01*
X157639675Y-111600000D01*
X157782621Y-111799222D01*
X157782634Y-111799238D01*
X158010985Y-112048850D01*
X158010991Y-112048856D01*
X158267274Y-112269720D01*
X158547871Y-112458716D01*
X158547876Y-112458719D01*
X158547882Y-112458723D01*
X158848875Y-112613212D01*
X159166028Y-112731017D01*
X159350632Y-112775626D01*
X159494874Y-112810482D01*
X159494875Y-112810482D01*
X159494887Y-112810485D01*
X159830837Y-112850500D01*
X159830841Y-112850500D01*
X160084503Y-112850500D01*
X160084504Y-112850500D01*
X160337731Y-112835472D01*
X160670721Y-112775626D01*
X160994295Y-112676816D01*
X161303912Y-112540429D01*
X161595224Y-112368380D01*
X161864143Y-112163085D01*
X162106894Y-111927424D01*
X162320068Y-111664707D01*
X162500674Y-111378620D01*
X162646176Y-111073181D01*
X162754531Y-110752677D01*
X162824219Y-110421607D01*
X162854261Y-110084618D01*
X162849243Y-109915371D01*
X177145739Y-109915371D01*
X177155764Y-110253555D01*
X177205716Y-110588175D01*
X177294893Y-110914528D01*
X177294899Y-110914545D01*
X177422044Y-111228051D01*
X177422050Y-111228064D01*
X177585385Y-111524336D01*
X177585388Y-111524341D01*
X177639675Y-111600000D01*
X177782621Y-111799222D01*
X177782634Y-111799238D01*
X178010985Y-112048850D01*
X178010991Y-112048856D01*
X178267274Y-112269720D01*
X178547871Y-112458716D01*
X178547876Y-112458719D01*
X178547882Y-112458723D01*
X178848875Y-112613212D01*
X179166028Y-112731017D01*
X179350632Y-112775626D01*
X179494874Y-112810482D01*
X179494875Y-112810482D01*
X179494887Y-112810485D01*
X179830837Y-112850500D01*
X179830841Y-112850500D01*
X180084503Y-112850500D01*
X180084504Y-112850500D01*
X180337731Y-112835472D01*
X180670721Y-112775626D01*
X180994295Y-112676816D01*
X181303912Y-112540429D01*
X181595224Y-112368380D01*
X181864143Y-112163085D01*
X182106894Y-111927424D01*
X182320068Y-111664707D01*
X182500674Y-111378620D01*
X182646176Y-111073181D01*
X182754531Y-110752677D01*
X182824219Y-110421607D01*
X182854261Y-110084618D01*
X182844235Y-109746442D01*
X182794283Y-109411825D01*
X182705105Y-109085465D01*
X182577953Y-108771942D01*
X182414612Y-108475659D01*
X182295026Y-108308994D01*
X182217378Y-108200777D01*
X182217365Y-108200761D01*
X181989014Y-107951149D01*
X181989008Y-107951143D01*
X181732725Y-107730279D01*
X181452128Y-107541283D01*
X181452113Y-107541274D01*
X181151129Y-107386790D01*
X181151120Y-107386786D01*
X180975005Y-107321369D01*
X180833972Y-107268983D01*
X180833971Y-107268982D01*
X180833969Y-107268982D01*
X180505125Y-107189517D01*
X180505114Y-107189515D01*
X180505113Y-107189515D01*
X180505110Y-107189514D01*
X180505106Y-107189514D01*
X180169165Y-107149500D01*
X180169163Y-107149500D01*
X179915496Y-107149500D01*
X179662269Y-107164528D01*
X179329282Y-107224373D01*
X179329281Y-107224373D01*
X179005700Y-107323185D01*
X178696085Y-107459571D01*
X178404779Y-107631617D01*
X178404778Y-107631618D01*
X178135854Y-107836916D01*
X177893104Y-108072577D01*
X177893101Y-108072580D01*
X177679934Y-108335290D01*
X177499324Y-108621381D01*
X177353827Y-108926812D01*
X177353822Y-108926822D01*
X177245467Y-109247328D01*
X177175782Y-109578382D01*
X177175781Y-109578389D01*
X177145739Y-109915371D01*
X162849243Y-109915371D01*
X162844235Y-109746442D01*
X162794283Y-109411825D01*
X162705105Y-109085465D01*
X162577953Y-108771942D01*
X162414612Y-108475659D01*
X162295026Y-108308994D01*
X162217378Y-108200777D01*
X162217365Y-108200761D01*
X161989014Y-107951149D01*
X161989008Y-107951143D01*
X161732725Y-107730279D01*
X161452128Y-107541283D01*
X161452113Y-107541274D01*
X161151129Y-107386790D01*
X161151128Y-107386789D01*
X161151125Y-107386788D01*
X161151117Y-107386785D01*
X161151105Y-107386780D01*
X160925269Y-107302893D01*
X160877303Y-107264907D01*
X160860826Y-107205982D01*
X160882131Y-107148626D01*
X160901154Y-107132211D01*
X160900286Y-107131079D01*
X160922416Y-107114098D01*
X161030875Y-107030875D01*
X161127129Y-106905434D01*
X161187637Y-106759355D01*
X161208275Y-106602593D01*
X161187637Y-106445831D01*
X161168598Y-106399866D01*
X161127130Y-106299754D01*
X161127130Y-106299753D01*
X161073551Y-106229927D01*
X161053127Y-106172251D01*
X161053093Y-106169660D01*
X161053093Y-105592710D01*
X178299500Y-105592710D01*
X178333571Y-105774973D01*
X178389800Y-105920118D01*
X178400552Y-105947872D01*
X178400555Y-105947877D01*
X178411524Y-105965593D01*
X178498163Y-106105519D01*
X178623080Y-106242546D01*
X178771048Y-106354286D01*
X178937029Y-106436935D01*
X179115371Y-106487678D01*
X179300000Y-106504786D01*
X179484629Y-106487678D01*
X179662971Y-106436935D01*
X179828952Y-106354286D01*
X179976920Y-106242546D01*
X180101837Y-106105519D01*
X180199448Y-105947872D01*
X180266429Y-105774973D01*
X180300500Y-105592710D01*
X180300500Y-105500000D01*
X180300500Y-105499500D01*
X180300500Y-104499901D01*
X180300500Y-104407290D01*
X180266429Y-104225027D01*
X180199448Y-104052128D01*
X180101837Y-103894481D01*
X179976920Y-103757454D01*
X179828952Y-103645714D01*
X179662971Y-103563065D01*
X179484629Y-103512322D01*
X179300000Y-103495214D01*
X179115371Y-103512322D01*
X178937029Y-103563065D01*
X178937028Y-103563065D01*
X178937026Y-103563066D01*
X178771055Y-103645710D01*
X178771046Y-103645715D01*
X178707026Y-103694061D01*
X178623080Y-103757454D01*
X178498163Y-103894481D01*
X178498161Y-103894483D01*
X178498160Y-103894485D01*
X178400555Y-104052122D01*
X178400552Y-104052127D01*
X178333570Y-104225029D01*
X178324842Y-104271723D01*
X178299500Y-104407290D01*
X178299500Y-104499901D01*
X178299500Y-105499500D01*
X178299500Y-105500000D01*
X178299500Y-105592710D01*
X161053093Y-105592710D01*
X161053093Y-98830678D01*
X161053404Y-98825131D01*
X161054328Y-98816931D01*
X161057863Y-98785558D01*
X161046804Y-98727113D01*
X161037941Y-98668306D01*
X161037939Y-98668302D01*
X161035753Y-98661215D01*
X161036175Y-98661084D01*
X161035483Y-98658981D01*
X161035067Y-98659127D01*
X161032617Y-98652126D01*
X161032616Y-98652121D01*
X161004815Y-98599520D01*
X160979018Y-98545951D01*
X160979016Y-98545949D01*
X160974840Y-98539823D01*
X160975203Y-98539575D01*
X160973917Y-98537761D01*
X160973563Y-98538023D01*
X160969159Y-98532055D01*
X160927097Y-98489993D01*
X160886652Y-98446403D01*
X160886650Y-98446402D01*
X160886648Y-98446399D01*
X160886644Y-98446396D01*
X160880852Y-98441778D01*
X160881126Y-98441433D01*
X160869993Y-98432889D01*
X159979496Y-97542392D01*
X159951719Y-97487875D01*
X159950500Y-97472388D01*
X159950500Y-95750003D01*
X161295034Y-95750003D01*
X161314857Y-95976597D01*
X161373733Y-96196323D01*
X161469865Y-96402481D01*
X161600334Y-96588811D01*
X161610050Y-96598527D01*
X162003656Y-96204919D01*
X162050756Y-96268185D01*
X162144540Y-96346880D01*
X161751472Y-96739949D01*
X161761188Y-96749665D01*
X161947518Y-96880134D01*
X162153676Y-96976266D01*
X162373402Y-97035142D01*
X162599997Y-97054966D01*
X162600003Y-97054966D01*
X162826597Y-97035142D01*
X163046323Y-96976266D01*
X163252481Y-96880134D01*
X163438814Y-96749663D01*
X163448527Y-96739949D01*
X163056206Y-96347628D01*
X163085373Y-96328445D01*
X163199208Y-96207786D01*
X163589949Y-96598527D01*
X163599663Y-96588814D01*
X163730134Y-96402481D01*
X163826266Y-96196323D01*
X163885142Y-95976597D01*
X163904966Y-95750003D01*
X163904966Y-95749996D01*
X163885142Y-95523402D01*
X163826266Y-95303676D01*
X163730134Y-95097518D01*
X163599665Y-94911188D01*
X163589949Y-94901472D01*
X163196342Y-95295078D01*
X163149244Y-95231815D01*
X163055457Y-95153118D01*
X163448527Y-94760050D01*
X163438811Y-94750334D01*
X163366931Y-94700003D01*
X174294532Y-94700003D01*
X174314363Y-94926684D01*
X174373262Y-95146500D01*
X174469426Y-95352723D01*
X174469434Y-95352737D01*
X174599946Y-95539130D01*
X174599947Y-95539132D01*
X174599950Y-95539135D01*
X174599953Y-95539139D01*
X174760861Y-95700047D01*
X174760864Y-95700049D01*
X174760867Y-95700052D01*
X174760869Y-95700053D01*
X174882633Y-95785312D01*
X174947266Y-95830568D01*
X174947272Y-95830571D01*
X174947276Y-95830573D01*
X175055681Y-95881123D01*
X175145288Y-95922908D01*
X175153500Y-95926737D01*
X175153504Y-95926739D01*
X175373308Y-95985635D01*
X175373312Y-95985635D01*
X175373315Y-95985636D01*
X175599997Y-96005468D01*
X175600000Y-96005468D01*
X175600003Y-96005468D01*
X175826684Y-95985636D01*
X175826685Y-95985635D01*
X175826692Y-95985635D01*
X176046496Y-95926739D01*
X176252734Y-95830568D01*
X176367794Y-95750003D01*
X181295034Y-95750003D01*
X181314857Y-95976597D01*
X181373733Y-96196323D01*
X181469865Y-96402481D01*
X181600334Y-96588811D01*
X181610050Y-96598527D01*
X182003656Y-96204919D01*
X182050756Y-96268185D01*
X182144540Y-96346880D01*
X181751472Y-96739949D01*
X181761188Y-96749665D01*
X181947518Y-96880134D01*
X182153676Y-96976266D01*
X182373402Y-97035142D01*
X182599997Y-97054966D01*
X182600003Y-97054966D01*
X182826597Y-97035142D01*
X183046323Y-96976266D01*
X183252481Y-96880134D01*
X183438814Y-96749663D01*
X183448527Y-96739949D01*
X183056206Y-96347628D01*
X183085373Y-96328445D01*
X183199208Y-96207786D01*
X183589949Y-96598527D01*
X183599663Y-96588814D01*
X183730134Y-96402481D01*
X183826266Y-96196323D01*
X183885142Y-95976597D01*
X183901877Y-95785312D01*
X183915916Y-95752237D01*
X183901877Y-95714687D01*
X183885142Y-95523402D01*
X183826266Y-95303676D01*
X183730134Y-95097518D01*
X183599665Y-94911188D01*
X183589949Y-94901472D01*
X183196342Y-95295078D01*
X183149244Y-95231815D01*
X183055457Y-95153118D01*
X183448527Y-94760050D01*
X183438811Y-94750334D01*
X183252481Y-94619865D01*
X183046323Y-94523733D01*
X182826597Y-94464857D01*
X182600003Y-94445034D01*
X182599997Y-94445034D01*
X182373402Y-94464857D01*
X182153676Y-94523733D01*
X181947518Y-94619865D01*
X181761185Y-94750336D01*
X181751471Y-94760049D01*
X182143793Y-95152371D01*
X182114627Y-95171555D01*
X182000791Y-95292213D01*
X181610049Y-94901471D01*
X181600336Y-94911185D01*
X181469865Y-95097518D01*
X181373733Y-95303676D01*
X181314857Y-95523402D01*
X181295034Y-95749996D01*
X181295034Y-95750003D01*
X176367794Y-95750003D01*
X176439139Y-95700047D01*
X176600047Y-95539139D01*
X176730568Y-95352734D01*
X176826739Y-95146496D01*
X176885635Y-94926692D01*
X176886992Y-94911188D01*
X176905468Y-94700003D01*
X176905468Y-94699996D01*
X176885636Y-94473315D01*
X176885635Y-94473312D01*
X176885635Y-94473308D01*
X176826739Y-94253504D01*
X176814886Y-94228085D01*
X176730573Y-94047276D01*
X176730571Y-94047272D01*
X176730568Y-94047266D01*
X176687061Y-93985131D01*
X176600053Y-93860869D01*
X176600052Y-93860867D01*
X176600049Y-93860864D01*
X176600047Y-93860861D01*
X176439139Y-93699953D01*
X176439135Y-93699950D01*
X176439132Y-93699947D01*
X176439130Y-93699946D01*
X176252737Y-93569434D01*
X176252736Y-93569433D01*
X176252734Y-93569432D01*
X176252731Y-93569430D01*
X176252723Y-93569426D01*
X176046499Y-93473262D01*
X176046500Y-93473262D01*
X175973228Y-93453629D01*
X175826692Y-93414365D01*
X175826691Y-93414364D01*
X175826684Y-93414363D01*
X175600003Y-93394532D01*
X175599997Y-93394532D01*
X175373315Y-93414363D01*
X175153499Y-93473262D01*
X174947276Y-93569426D01*
X174947262Y-93569434D01*
X174760869Y-93699946D01*
X174760867Y-93699947D01*
X174599947Y-93860867D01*
X174599946Y-93860869D01*
X174469434Y-94047262D01*
X174469426Y-94047276D01*
X174373262Y-94253499D01*
X174314363Y-94473315D01*
X174294532Y-94699996D01*
X174294532Y-94700003D01*
X163366931Y-94700003D01*
X163252481Y-94619865D01*
X163046323Y-94523733D01*
X162826597Y-94464857D01*
X162600003Y-94445034D01*
X162599997Y-94445034D01*
X162373402Y-94464857D01*
X162153676Y-94523733D01*
X161947518Y-94619865D01*
X161761185Y-94750336D01*
X161751471Y-94760049D01*
X162143793Y-95152371D01*
X162114627Y-95171555D01*
X162000791Y-95292213D01*
X161610049Y-94901471D01*
X161600336Y-94911185D01*
X161469865Y-95097518D01*
X161373733Y-95303676D01*
X161314857Y-95523402D01*
X161295034Y-95749996D01*
X161295034Y-95750003D01*
X159950500Y-95750003D01*
X159950500Y-94228085D01*
X159950811Y-94222538D01*
X159955270Y-94182965D01*
X159944211Y-94124520D01*
X159935348Y-94065713D01*
X159935346Y-94065709D01*
X159933160Y-94058622D01*
X159933582Y-94058491D01*
X159932890Y-94056388D01*
X159932474Y-94056534D01*
X159930022Y-94049526D01*
X159902226Y-93996936D01*
X159876423Y-93943354D01*
X159872244Y-93937225D01*
X159872607Y-93936977D01*
X159871324Y-93935169D01*
X159870970Y-93935431D01*
X159866567Y-93929465D01*
X159866566Y-93929464D01*
X159866565Y-93929462D01*
X159824516Y-93887413D01*
X159784056Y-93843806D01*
X159778258Y-93839183D01*
X159778532Y-93838839D01*
X159767397Y-93830294D01*
X158681747Y-92744644D01*
X158653970Y-92690127D01*
X158663541Y-92629695D01*
X158706806Y-92586430D01*
X158767238Y-92576859D01*
X158796953Y-92586562D01*
X158848875Y-92613212D01*
X159166028Y-92731017D01*
X159350632Y-92775626D01*
X159494874Y-92810482D01*
X159494875Y-92810482D01*
X159494887Y-92810485D01*
X159830837Y-92850500D01*
X159830841Y-92850500D01*
X160084503Y-92850500D01*
X160084504Y-92850500D01*
X160337731Y-92835472D01*
X160670721Y-92775626D01*
X160994295Y-92676816D01*
X161303912Y-92540429D01*
X161595224Y-92368380D01*
X161864143Y-92163085D01*
X162106894Y-91927424D01*
X162320068Y-91664707D01*
X162500674Y-91378620D01*
X162646176Y-91073181D01*
X162754531Y-90752677D01*
X162824219Y-90421607D01*
X162854261Y-90084618D01*
X162849243Y-89915371D01*
X177145739Y-89915371D01*
X177155764Y-90253555D01*
X177205716Y-90588175D01*
X177294893Y-90914528D01*
X177294899Y-90914545D01*
X177422044Y-91228051D01*
X177422050Y-91228064D01*
X177532433Y-91428286D01*
X177585388Y-91524341D01*
X177666149Y-91636896D01*
X177782621Y-91799222D01*
X177782634Y-91799238D01*
X178010985Y-92048850D01*
X178010991Y-92048856D01*
X178267274Y-92269720D01*
X178547871Y-92458716D01*
X178547876Y-92458719D01*
X178547882Y-92458723D01*
X178848875Y-92613212D01*
X179166028Y-92731017D01*
X179350632Y-92775626D01*
X179494874Y-92810482D01*
X179494875Y-92810482D01*
X179494887Y-92810485D01*
X179830837Y-92850500D01*
X179830841Y-92850500D01*
X180084503Y-92850500D01*
X180084504Y-92850500D01*
X180337731Y-92835472D01*
X180670721Y-92775626D01*
X180994295Y-92676816D01*
X181303912Y-92540429D01*
X181595224Y-92368380D01*
X181864143Y-92163085D01*
X182106894Y-91927424D01*
X182320068Y-91664707D01*
X182500674Y-91378620D01*
X182646176Y-91073181D01*
X182754531Y-90752677D01*
X182824219Y-90421607D01*
X182854261Y-90084618D01*
X182844235Y-89746442D01*
X182794283Y-89411825D01*
X182705105Y-89085465D01*
X182577953Y-88771942D01*
X182414612Y-88475659D01*
X182295026Y-88308994D01*
X182217378Y-88200777D01*
X182217365Y-88200761D01*
X181989014Y-87951149D01*
X181989008Y-87951143D01*
X181732725Y-87730279D01*
X181452128Y-87541283D01*
X181452113Y-87541274D01*
X181151129Y-87386790D01*
X181151120Y-87386786D01*
X180833969Y-87268982D01*
X180505125Y-87189517D01*
X180505114Y-87189515D01*
X180505113Y-87189515D01*
X180505110Y-87189514D01*
X180505106Y-87189514D01*
X180169165Y-87149500D01*
X180169163Y-87149500D01*
X179915496Y-87149500D01*
X179881880Y-87151495D01*
X179662269Y-87164528D01*
X179329282Y-87224373D01*
X179329281Y-87224373D01*
X179005700Y-87323185D01*
X178696085Y-87459571D01*
X178404779Y-87631617D01*
X178404778Y-87631618D01*
X178135854Y-87836916D01*
X177893104Y-88072577D01*
X177893101Y-88072580D01*
X177679934Y-88335290D01*
X177499324Y-88621381D01*
X177353827Y-88926812D01*
X177353822Y-88926822D01*
X177245467Y-89247328D01*
X177175782Y-89578382D01*
X177175781Y-89578389D01*
X177145739Y-89915371D01*
X162849243Y-89915371D01*
X162844235Y-89746442D01*
X162794283Y-89411825D01*
X162705105Y-89085465D01*
X162577953Y-88771942D01*
X162414612Y-88475659D01*
X162295026Y-88308994D01*
X162217378Y-88200777D01*
X162217365Y-88200761D01*
X161989014Y-87951149D01*
X161989008Y-87951143D01*
X161732725Y-87730279D01*
X161452128Y-87541283D01*
X161452113Y-87541274D01*
X161151129Y-87386790D01*
X161151120Y-87386786D01*
X160833969Y-87268982D01*
X160505125Y-87189517D01*
X160505114Y-87189515D01*
X160505113Y-87189515D01*
X160505110Y-87189514D01*
X160505106Y-87189514D01*
X160169165Y-87149500D01*
X160169163Y-87149500D01*
X159915496Y-87149500D01*
X159881880Y-87151495D01*
X159662269Y-87164528D01*
X159329282Y-87224373D01*
X159329281Y-87224373D01*
X159005700Y-87323185D01*
X158696085Y-87459571D01*
X158404779Y-87631617D01*
X158404778Y-87631618D01*
X158135854Y-87836916D01*
X157893104Y-88072577D01*
X157893101Y-88072580D01*
X157679934Y-88335290D01*
X157499324Y-88621381D01*
X157353827Y-88926812D01*
X157353822Y-88926822D01*
X157245467Y-89247328D01*
X157175782Y-89578382D01*
X157175781Y-89578389D01*
X157145739Y-89915371D01*
X157155764Y-90253555D01*
X157205716Y-90588175D01*
X157294893Y-90914528D01*
X157294899Y-90914545D01*
X157413811Y-91207751D01*
X157418160Y-91268782D01*
X157385805Y-91320713D01*
X157329105Y-91343708D01*
X157269717Y-91328984D01*
X157252065Y-91314962D01*
X154879496Y-88942393D01*
X154851719Y-88887876D01*
X154850500Y-88872389D01*
X154850500Y-85832932D01*
X154869407Y-85774741D01*
X154870936Y-85772693D01*
X154924536Y-85702841D01*
X154970154Y-85592709D01*
X158299500Y-85592709D01*
X158333527Y-85774741D01*
X158333571Y-85774973D01*
X158400552Y-85947872D01*
X158498163Y-86105519D01*
X158623080Y-86242546D01*
X158771048Y-86354286D01*
X158937029Y-86436935D01*
X159115371Y-86487678D01*
X159300000Y-86504786D01*
X159484629Y-86487678D01*
X159662971Y-86436935D01*
X159828952Y-86354286D01*
X159976920Y-86242546D01*
X160101837Y-86105519D01*
X160199448Y-85947872D01*
X160266429Y-85774973D01*
X160300500Y-85592710D01*
X160300500Y-85592709D01*
X178299500Y-85592709D01*
X178333527Y-85774741D01*
X178333571Y-85774973D01*
X178400552Y-85947872D01*
X178498163Y-86105519D01*
X178623080Y-86242546D01*
X178771048Y-86354286D01*
X178937029Y-86436935D01*
X179115371Y-86487678D01*
X179300000Y-86504786D01*
X179484629Y-86487678D01*
X179662971Y-86436935D01*
X179828952Y-86354286D01*
X179976920Y-86242546D01*
X180101837Y-86105519D01*
X180199448Y-85947872D01*
X180266429Y-85774973D01*
X180300500Y-85592710D01*
X180300500Y-85500000D01*
X180300500Y-85499500D01*
X180300500Y-84499901D01*
X180300500Y-84407290D01*
X180266429Y-84225027D01*
X180199448Y-84052128D01*
X180101837Y-83894481D01*
X179976920Y-83757454D01*
X179828952Y-83645714D01*
X179662971Y-83563065D01*
X179484629Y-83512322D01*
X179300000Y-83495214D01*
X179115371Y-83512322D01*
X178937029Y-83563065D01*
X178937028Y-83563065D01*
X178937026Y-83563066D01*
X178771055Y-83645710D01*
X178771046Y-83645715D01*
X178706686Y-83694318D01*
X178623080Y-83757454D01*
X178498163Y-83894481D01*
X178498161Y-83894483D01*
X178498160Y-83894485D01*
X178400555Y-84052122D01*
X178400552Y-84052127D01*
X178333570Y-84225029D01*
X178299500Y-84407290D01*
X178299500Y-85592709D01*
X160300500Y-85592709D01*
X160300500Y-85500000D01*
X160300500Y-85499500D01*
X160300500Y-84499901D01*
X160300500Y-84407290D01*
X160266429Y-84225027D01*
X160199448Y-84052128D01*
X160101837Y-83894481D01*
X159976920Y-83757454D01*
X159828952Y-83645714D01*
X159662971Y-83563065D01*
X159484629Y-83512322D01*
X159300000Y-83495214D01*
X159115371Y-83512322D01*
X158937029Y-83563065D01*
X158937028Y-83563065D01*
X158937026Y-83563066D01*
X158771055Y-83645710D01*
X158771046Y-83645715D01*
X158706686Y-83694318D01*
X158623080Y-83757454D01*
X158498163Y-83894481D01*
X158498161Y-83894483D01*
X158498160Y-83894485D01*
X158400555Y-84052122D01*
X158400552Y-84052127D01*
X158333570Y-84225029D01*
X158299500Y-84407290D01*
X158299500Y-85592709D01*
X154970154Y-85592709D01*
X154985044Y-85556762D01*
X155005682Y-85400000D01*
X154985044Y-85243238D01*
X154924537Y-85097161D01*
X154924537Y-85097160D01*
X154828286Y-84971723D01*
X154828285Y-84971722D01*
X154828282Y-84971718D01*
X154828277Y-84971714D01*
X154828276Y-84971713D01*
X154702838Y-84875462D01*
X154556766Y-84814957D01*
X154556758Y-84814955D01*
X154400001Y-84794318D01*
X154399999Y-84794318D01*
X154243241Y-84814955D01*
X154243233Y-84814957D01*
X154097163Y-84875461D01*
X154009767Y-84942522D01*
X153952091Y-84962945D01*
X153893425Y-84945567D01*
X153856178Y-84897025D01*
X153850500Y-84863979D01*
X153850500Y-80353373D01*
X153869407Y-80295182D01*
X153918907Y-80259218D01*
X153980093Y-80259218D01*
X153987382Y-80261907D01*
X154043238Y-80285044D01*
X154160809Y-80300522D01*
X154199999Y-80305682D01*
X154200000Y-80305682D01*
X154200001Y-80305682D01*
X154231352Y-80301554D01*
X154356762Y-80285044D01*
X154502841Y-80224536D01*
X154628282Y-80128282D01*
X154674718Y-80067765D01*
X168145788Y-80067765D01*
X168175414Y-80337020D01*
X168209997Y-80469301D01*
X168243928Y-80599088D01*
X168349870Y-80848390D01*
X168446029Y-81005952D01*
X168490983Y-81079612D01*
X168580252Y-81186880D01*
X168664255Y-81287820D01*
X168865998Y-81468582D01*
X169088624Y-81615870D01*
X169091913Y-81618046D01*
X169224100Y-81680012D01*
X169337176Y-81733020D01*
X169482628Y-81776780D01*
X169596555Y-81811056D01*
X169596559Y-81811057D01*
X169596569Y-81811060D01*
X169763840Y-81835677D01*
X169864560Y-81850500D01*
X169864561Y-81850500D01*
X170067633Y-81850500D01*
X170125495Y-81846264D01*
X170270156Y-81835677D01*
X170534553Y-81776780D01*
X170787558Y-81680014D01*
X171023777Y-81547441D01*
X171238177Y-81381888D01*
X171426186Y-81186881D01*
X171583799Y-80966579D01*
X171707656Y-80725675D01*
X171795118Y-80469305D01*
X171844319Y-80202933D01*
X171854212Y-79932235D01*
X171824586Y-79662982D01*
X171756072Y-79400912D01*
X171650130Y-79151610D01*
X171509018Y-78920390D01*
X171335745Y-78712180D01*
X171230754Y-78618108D01*
X171134007Y-78531422D01*
X171134004Y-78531420D01*
X171134002Y-78531418D01*
X170984489Y-78432501D01*
X170908086Y-78381953D01*
X170662822Y-78266979D01*
X170403444Y-78188943D01*
X170403428Y-78188939D01*
X170135440Y-78149500D01*
X170135439Y-78149500D01*
X169932369Y-78149500D01*
X169932367Y-78149500D01*
X169729848Y-78164322D01*
X169465450Y-78223219D01*
X169212439Y-78319987D01*
X168976219Y-78452561D01*
X168761826Y-78618108D01*
X168573814Y-78813119D01*
X168416199Y-79033422D01*
X168292342Y-79274328D01*
X168204884Y-79530687D01*
X168204881Y-79530698D01*
X168155680Y-79797069D01*
X168145788Y-80067765D01*
X154674718Y-80067765D01*
X154724536Y-80002841D01*
X154785044Y-79856762D01*
X154805682Y-79700000D01*
X154785044Y-79543238D01*
X154779845Y-79530687D01*
X154724537Y-79397161D01*
X154724537Y-79397160D01*
X154628286Y-79271723D01*
X154628285Y-79271722D01*
X154628282Y-79271718D01*
X154628277Y-79271714D01*
X154628276Y-79271713D01*
X154502838Y-79175462D01*
X154356766Y-79114957D01*
X154356758Y-79114955D01*
X154200001Y-79094318D01*
X154199999Y-79094318D01*
X154043241Y-79114955D01*
X154043233Y-79114957D01*
X153978034Y-79141964D01*
X153940149Y-79149500D01*
X153559851Y-79149500D01*
X153521966Y-79141964D01*
X153456766Y-79114957D01*
X153456758Y-79114955D01*
X153300001Y-79094318D01*
X153299999Y-79094318D01*
X153143241Y-79114955D01*
X153143233Y-79114957D01*
X152997161Y-79175462D01*
X152997160Y-79175462D01*
X152871723Y-79271713D01*
X152871713Y-79271723D01*
X152775462Y-79397160D01*
X152775462Y-79397161D01*
X152714957Y-79543233D01*
X152714955Y-79543241D01*
X152694318Y-79699999D01*
X152694318Y-79700000D01*
X152714955Y-79856758D01*
X152714956Y-79856763D01*
X152741964Y-79921964D01*
X152749500Y-79959850D01*
X152749500Y-89390602D01*
X152747238Y-89456823D01*
X152747238Y-89456827D01*
X152757867Y-89500441D01*
X152758814Y-89505423D01*
X152764930Y-89549921D01*
X152764930Y-89549922D01*
X152772931Y-89568341D01*
X152778313Y-89584345D01*
X152783065Y-89603846D01*
X152783068Y-89603854D01*
X152805075Y-89642995D01*
X152807331Y-89647536D01*
X152825220Y-89688721D01*
X152837891Y-89704295D01*
X152847391Y-89718253D01*
X152857232Y-89735757D01*
X152888992Y-89767518D01*
X152892387Y-89771280D01*
X152920722Y-89806108D01*
X152937124Y-89817686D01*
X152950036Y-89828561D01*
X153676996Y-90555521D01*
X153698456Y-90587639D01*
X153725464Y-90652841D01*
X153780754Y-90724897D01*
X153802070Y-90752677D01*
X153821718Y-90778282D01*
X153821722Y-90778285D01*
X153821723Y-90778286D01*
X153947157Y-90874535D01*
X153947158Y-90874535D01*
X153947159Y-90874536D01*
X154012358Y-90901542D01*
X154044477Y-90923002D01*
X154326996Y-91205521D01*
X154348456Y-91237639D01*
X154375464Y-91302841D01*
X154471718Y-91428282D01*
X154471722Y-91428285D01*
X154471723Y-91428286D01*
X154597157Y-91524535D01*
X154597158Y-91524535D01*
X154597159Y-91524536D01*
X154662358Y-91551542D01*
X154694477Y-91573002D01*
X158101971Y-94980496D01*
X158129748Y-95035013D01*
X158120177Y-95095445D01*
X158076912Y-95138710D01*
X158031967Y-95149500D01*
X157209397Y-95149500D01*
X157143175Y-95147238D01*
X157143167Y-95147238D01*
X157103040Y-95157017D01*
X157099554Y-95157867D01*
X157094575Y-95158813D01*
X157050081Y-95164929D01*
X157050080Y-95164929D01*
X157031657Y-95172932D01*
X157015659Y-95178312D01*
X156996149Y-95183066D01*
X156996144Y-95183068D01*
X156990169Y-95186428D01*
X156930179Y-95198463D01*
X156874572Y-95172938D01*
X156844588Y-95119603D01*
X156846026Y-95074512D01*
X156885635Y-94926692D01*
X156886992Y-94911188D01*
X156905468Y-94700003D01*
X156905468Y-94699996D01*
X156885636Y-94473315D01*
X156885635Y-94473312D01*
X156885635Y-94473308D01*
X156826739Y-94253504D01*
X156814886Y-94228085D01*
X156730573Y-94047276D01*
X156730571Y-94047272D01*
X156730568Y-94047266D01*
X156687061Y-93985131D01*
X156600053Y-93860869D01*
X156600052Y-93860867D01*
X156600049Y-93860864D01*
X156600047Y-93860861D01*
X156439139Y-93699953D01*
X156439135Y-93699950D01*
X156439132Y-93699947D01*
X156439130Y-93699946D01*
X156252737Y-93569434D01*
X156252736Y-93569433D01*
X156252734Y-93569432D01*
X156252731Y-93569430D01*
X156252723Y-93569426D01*
X156046499Y-93473262D01*
X156046500Y-93473262D01*
X155973228Y-93453629D01*
X155826692Y-93414365D01*
X155826691Y-93414364D01*
X155826684Y-93414363D01*
X155600003Y-93394532D01*
X155599997Y-93394532D01*
X155373315Y-93414363D01*
X155153499Y-93473262D01*
X154947276Y-93569426D01*
X154947262Y-93569434D01*
X154760869Y-93699946D01*
X154760867Y-93699947D01*
X154599947Y-93860867D01*
X154599946Y-93860869D01*
X154469434Y-94047262D01*
X154469426Y-94047276D01*
X154373262Y-94253499D01*
X154314363Y-94473315D01*
X154294532Y-94699996D01*
X154294532Y-94700003D01*
X154308480Y-94859434D01*
X154294716Y-94919051D01*
X154248539Y-94959192D01*
X154187587Y-94964525D01*
X154171972Y-94959526D01*
X154051389Y-94909579D01*
X154051380Y-94909577D01*
X153894623Y-94888940D01*
X153894621Y-94888940D01*
X153737863Y-94909577D01*
X153737855Y-94909579D01*
X153591783Y-94970084D01*
X153591782Y-94970084D01*
X153466345Y-95066335D01*
X153466335Y-95066345D01*
X153370084Y-95191782D01*
X153370084Y-95191783D01*
X153309579Y-95337855D01*
X153309577Y-95337863D01*
X153288940Y-95494621D01*
X153288940Y-95494622D01*
X153309577Y-95651380D01*
X153309579Y-95651388D01*
X153370084Y-95797460D01*
X153370084Y-95797461D01*
X153370086Y-95797463D01*
X153466340Y-95922904D01*
X153466344Y-95922907D01*
X153466345Y-95922908D01*
X153591779Y-96019157D01*
X153591780Y-96019157D01*
X153591781Y-96019158D01*
X153652523Y-96044318D01*
X153656980Y-96046164D01*
X153689099Y-96067624D01*
X153926996Y-96305521D01*
X153948456Y-96337639D01*
X153952400Y-96347160D01*
X153975464Y-96402841D01*
X153992304Y-96424787D01*
X154050016Y-96500000D01*
X154071718Y-96528282D01*
X154197159Y-96624536D01*
X154197160Y-96624536D01*
X154197161Y-96624537D01*
X154262361Y-96651544D01*
X154294479Y-96673004D01*
X154404080Y-96782604D01*
X154449320Y-96831044D01*
X154487689Y-96854376D01*
X154491871Y-96857222D01*
X154511310Y-96871964D01*
X154527658Y-96884361D01*
X154546346Y-96891730D01*
X154561454Y-96899234D01*
X154578618Y-96909672D01*
X154621867Y-96921789D01*
X154626650Y-96923398D01*
X154651370Y-96933146D01*
X154668432Y-96939875D01*
X154668433Y-96939875D01*
X154668436Y-96939876D01*
X154688415Y-96941929D01*
X154704992Y-96945080D01*
X154724335Y-96950500D01*
X154769237Y-96950500D01*
X154774302Y-96950760D01*
X154783526Y-96951708D01*
X154818972Y-96955352D01*
X154838761Y-96951939D01*
X154855583Y-96950500D01*
X156490603Y-96950500D01*
X156556826Y-96952762D01*
X156600450Y-96942130D01*
X156605416Y-96941185D01*
X156649920Y-96935070D01*
X156668339Y-96927068D01*
X156684337Y-96921687D01*
X156703852Y-96916933D01*
X156743004Y-96894918D01*
X156747511Y-96892679D01*
X156788720Y-96874780D01*
X156804298Y-96862105D01*
X156818257Y-96852606D01*
X156835755Y-96842768D01*
X156835754Y-96842768D01*
X156835759Y-96842766D01*
X156867529Y-96810994D01*
X156871275Y-96807615D01*
X156906108Y-96779278D01*
X156917687Y-96762872D01*
X156928564Y-96749960D01*
X157399029Y-96279496D01*
X157453545Y-96251719D01*
X157469032Y-96250500D01*
X158050500Y-96250500D01*
X158108691Y-96269407D01*
X158144655Y-96318907D01*
X158149500Y-96349500D01*
X158149500Y-98021972D01*
X158147238Y-98088193D01*
X158147238Y-98088197D01*
X158157867Y-98131811D01*
X158158814Y-98136793D01*
X158164930Y-98181291D01*
X158164930Y-98181292D01*
X158172931Y-98199711D01*
X158178313Y-98215715D01*
X158183065Y-98235216D01*
X158183068Y-98235224D01*
X158205075Y-98274365D01*
X158207331Y-98278906D01*
X158225220Y-98320091D01*
X158237891Y-98335665D01*
X158247391Y-98349623D01*
X158257232Y-98367127D01*
X158288992Y-98398888D01*
X158292390Y-98402653D01*
X158316988Y-98432889D01*
X158320722Y-98437478D01*
X158337124Y-98449056D01*
X158350036Y-98459931D01*
X159172483Y-99282378D01*
X159200260Y-99336895D01*
X159201479Y-99352382D01*
X159201479Y-101578988D01*
X159182572Y-101637179D01*
X159172483Y-101648992D01*
X152493227Y-108328248D01*
X152438710Y-108356025D01*
X152378278Y-108346454D01*
X152353219Y-108328248D01*
X150028015Y-106003044D01*
X150000238Y-105948527D01*
X149999866Y-105920118D01*
X150014517Y-105808835D01*
X150014517Y-105808834D01*
X149993879Y-105652076D01*
X149993879Y-105652073D01*
X149933372Y-105505996D01*
X149933372Y-105505995D01*
X149837121Y-105380558D01*
X149837120Y-105380557D01*
X149837117Y-105380553D01*
X149837112Y-105380549D01*
X149837111Y-105380548D01*
X149711673Y-105284297D01*
X149565601Y-105223792D01*
X149565593Y-105223790D01*
X149408836Y-105203153D01*
X149408834Y-105203153D01*
X149252076Y-105223790D01*
X149252068Y-105223792D01*
X149105996Y-105284297D01*
X149105995Y-105284297D01*
X148980558Y-105380548D01*
X148980548Y-105380558D01*
X148884297Y-105505995D01*
X148884297Y-105505996D01*
X148823792Y-105652068D01*
X148823790Y-105652076D01*
X148803153Y-105808834D01*
X148803153Y-105808835D01*
X148823790Y-105965593D01*
X148823792Y-105965601D01*
X148884297Y-106111673D01*
X148884297Y-106111674D01*
X148974843Y-106229676D01*
X148980553Y-106237117D01*
X148980557Y-106237120D01*
X148980558Y-106237121D01*
X148987628Y-106242546D01*
X149105994Y-106333371D01*
X149252073Y-106393879D01*
X149369644Y-106409357D01*
X149408834Y-106414517D01*
X149408835Y-106414517D01*
X149520119Y-106399866D01*
X149580278Y-106411016D01*
X149603044Y-106428015D01*
X151928248Y-108753219D01*
X151956025Y-108807736D01*
X151946454Y-108868168D01*
X151928248Y-108893227D01*
X150750971Y-110070504D01*
X150696454Y-110098281D01*
X150680967Y-110099500D01*
X147238270Y-110099500D01*
X147180079Y-110080593D01*
X147168266Y-110070504D01*
X145579496Y-108481733D01*
X145551719Y-108427216D01*
X145550500Y-108411729D01*
X145550500Y-101350002D01*
X148195373Y-101350002D01*
X148213787Y-101478077D01*
X148213789Y-101478083D01*
X148266051Y-101592526D01*
X148266052Y-101592526D01*
X148497639Y-101360938D01*
X148515514Y-101427645D01*
X148572355Y-101484486D01*
X148630254Y-101500000D01*
X148641420Y-101500000D01*
X148410452Y-101730966D01*
X148410453Y-101730968D01*
X148461134Y-101763539D01*
X148461140Y-101763542D01*
X148585298Y-101799999D01*
X148585301Y-101800000D01*
X148714699Y-101800000D01*
X148714701Y-101799999D01*
X148838857Y-101763543D01*
X148889545Y-101730967D01*
X148658578Y-101500000D01*
X148669746Y-101500000D01*
X148727645Y-101484486D01*
X148784486Y-101427646D01*
X148802360Y-101360938D01*
X149033946Y-101592524D01*
X149086211Y-101478080D01*
X149086212Y-101478077D01*
X149104627Y-101350002D01*
X150895373Y-101350002D01*
X150913787Y-101478077D01*
X150913789Y-101478083D01*
X150966051Y-101592526D01*
X150966052Y-101592526D01*
X151197639Y-101360938D01*
X151215514Y-101427645D01*
X151272355Y-101484486D01*
X151330254Y-101500000D01*
X151341420Y-101500000D01*
X151110452Y-101730966D01*
X151110453Y-101730968D01*
X151161134Y-101763539D01*
X151161140Y-101763542D01*
X151285298Y-101799999D01*
X151285301Y-101800000D01*
X151414699Y-101800000D01*
X151414701Y-101799999D01*
X151538857Y-101763543D01*
X151589545Y-101730967D01*
X151358578Y-101500000D01*
X151369746Y-101500000D01*
X151427645Y-101484486D01*
X151484486Y-101427646D01*
X151502360Y-101360938D01*
X151733946Y-101592524D01*
X151786211Y-101478080D01*
X151786212Y-101478077D01*
X151804627Y-101350002D01*
X151804627Y-101349997D01*
X151786212Y-101221922D01*
X151786211Y-101221919D01*
X151733946Y-101107473D01*
X151502359Y-101339060D01*
X151484486Y-101272355D01*
X151427645Y-101215514D01*
X151369746Y-101200000D01*
X151358578Y-101200000D01*
X151589546Y-100969032D01*
X151538858Y-100936456D01*
X151414701Y-100900000D01*
X151285298Y-100900000D01*
X151161139Y-100936457D01*
X151110453Y-100969031D01*
X151341422Y-101200000D01*
X151330254Y-101200000D01*
X151272355Y-101215514D01*
X151215514Y-101272354D01*
X151197639Y-101339061D01*
X150966051Y-101107473D01*
X150913787Y-101221920D01*
X150895373Y-101349997D01*
X150895373Y-101350002D01*
X149104627Y-101350002D01*
X149104627Y-101349997D01*
X149086212Y-101221922D01*
X149086211Y-101221919D01*
X149033946Y-101107473D01*
X148802359Y-101339060D01*
X148784486Y-101272355D01*
X148727645Y-101215514D01*
X148669746Y-101200000D01*
X148658578Y-101200000D01*
X148889546Y-100969032D01*
X148838858Y-100936456D01*
X148714701Y-100900000D01*
X148585298Y-100900000D01*
X148461139Y-100936457D01*
X148410453Y-100969031D01*
X148641422Y-101200000D01*
X148630254Y-101200000D01*
X148572355Y-101215514D01*
X148515514Y-101272354D01*
X148497639Y-101339061D01*
X148266051Y-101107473D01*
X148213787Y-101221920D01*
X148195373Y-101349997D01*
X148195373Y-101350002D01*
X145550500Y-101350002D01*
X145550500Y-101053203D01*
X145551136Y-101034587D01*
X145552762Y-100986980D01*
X145542131Y-100943357D01*
X145541185Y-100938384D01*
X145535070Y-100893886D01*
X145535068Y-100893883D01*
X145535068Y-100893880D01*
X145532551Y-100888086D01*
X145525200Y-100861562D01*
X145519991Y-100821994D01*
X145519991Y-100821991D01*
X145459484Y-100675914D01*
X145459484Y-100675913D01*
X145363233Y-100550476D01*
X145363232Y-100550475D01*
X145363229Y-100550471D01*
X145363224Y-100550467D01*
X145363223Y-100550466D01*
X145287523Y-100492380D01*
X145237788Y-100454217D01*
X145237786Y-100454216D01*
X145091710Y-100393709D01*
X145088124Y-100392748D01*
X145081012Y-100391291D01*
X145077576Y-100390328D01*
X145068927Y-100387904D01*
X145034338Y-100378212D01*
X145029532Y-100376596D01*
X144987761Y-100360124D01*
X144975010Y-100358813D01*
X144967770Y-100358068D01*
X144951194Y-100354917D01*
X144931861Y-100349500D01*
X144931859Y-100349500D01*
X144886957Y-100349500D01*
X144881892Y-100349240D01*
X144859363Y-100346924D01*
X144837222Y-100344648D01*
X144837220Y-100344648D01*
X144837219Y-100344648D01*
X144817433Y-100348060D01*
X144800611Y-100349500D01*
X143309397Y-100349500D01*
X143243175Y-100347238D01*
X143243167Y-100347238D01*
X143203040Y-100357017D01*
X143199554Y-100357867D01*
X143194575Y-100358813D01*
X143150081Y-100364929D01*
X143150080Y-100364929D01*
X143131657Y-100372932D01*
X143115659Y-100378312D01*
X143096149Y-100383066D01*
X143096147Y-100383067D01*
X143057012Y-100405071D01*
X143052473Y-100407325D01*
X143011279Y-100425220D01*
X142995697Y-100437897D01*
X142981744Y-100447393D01*
X142964242Y-100457233D01*
X142964241Y-100457234D01*
X142932489Y-100488984D01*
X142928726Y-100492380D01*
X142893890Y-100520722D01*
X142882308Y-100537130D01*
X142871435Y-100550038D01*
X142559807Y-100861667D01*
X142505290Y-100889445D01*
X142489803Y-100890664D01*
X141084366Y-100890664D01*
X141026175Y-100871757D01*
X141014362Y-100861668D01*
X140838332Y-100685638D01*
X140810555Y-100631121D01*
X140809336Y-100615634D01*
X140809336Y-100366694D01*
X140828243Y-100308503D01*
X140838332Y-100296690D01*
X142255526Y-98879496D01*
X142310043Y-98851719D01*
X142325530Y-98850500D01*
X144340603Y-98850500D01*
X144406826Y-98852762D01*
X144450450Y-98842130D01*
X144455416Y-98841185D01*
X144499920Y-98835070D01*
X144518339Y-98827068D01*
X144534337Y-98821687D01*
X144553852Y-98816933D01*
X144593004Y-98794918D01*
X144597511Y-98792679D01*
X144638720Y-98774780D01*
X144654298Y-98762105D01*
X144668257Y-98752606D01*
X144685755Y-98742768D01*
X144685754Y-98742768D01*
X144685759Y-98742766D01*
X144717529Y-98710994D01*
X144721275Y-98707615D01*
X144756108Y-98679278D01*
X144767687Y-98662872D01*
X144778527Y-98650002D01*
X148195373Y-98650002D01*
X148213787Y-98778077D01*
X148213789Y-98778083D01*
X148266051Y-98892526D01*
X148266052Y-98892526D01*
X148497639Y-98660938D01*
X148515514Y-98727645D01*
X148572355Y-98784486D01*
X148630254Y-98800000D01*
X148641420Y-98800000D01*
X148410452Y-99030966D01*
X148410453Y-99030968D01*
X148461134Y-99063539D01*
X148461140Y-99063542D01*
X148585298Y-99099999D01*
X148585301Y-99100000D01*
X148714699Y-99100000D01*
X148714701Y-99099999D01*
X148838857Y-99063543D01*
X148889545Y-99030967D01*
X148658578Y-98800000D01*
X148669746Y-98800000D01*
X148727645Y-98784486D01*
X148784486Y-98727646D01*
X148802360Y-98660938D01*
X149033946Y-98892524D01*
X149086211Y-98778080D01*
X149086212Y-98778077D01*
X149104627Y-98650002D01*
X150895373Y-98650002D01*
X150913787Y-98778077D01*
X150913789Y-98778083D01*
X150966051Y-98892526D01*
X150966052Y-98892526D01*
X151197639Y-98660938D01*
X151215514Y-98727645D01*
X151272355Y-98784486D01*
X151330254Y-98800000D01*
X151341420Y-98800000D01*
X151110452Y-99030966D01*
X151110453Y-99030968D01*
X151161134Y-99063539D01*
X151161140Y-99063542D01*
X151285298Y-99099999D01*
X151285301Y-99100000D01*
X151414699Y-99100000D01*
X151414701Y-99099999D01*
X151538857Y-99063543D01*
X151589545Y-99030967D01*
X151358578Y-98800000D01*
X151369746Y-98800000D01*
X151427645Y-98784486D01*
X151484486Y-98727646D01*
X151502360Y-98660938D01*
X151733946Y-98892524D01*
X151786211Y-98778080D01*
X151786212Y-98778077D01*
X151804627Y-98650002D01*
X151804627Y-98649997D01*
X151786212Y-98521922D01*
X151786211Y-98521919D01*
X151733946Y-98407473D01*
X151502359Y-98639060D01*
X151484486Y-98572355D01*
X151427645Y-98515514D01*
X151369746Y-98500000D01*
X151358578Y-98500000D01*
X151589546Y-98269032D01*
X151538858Y-98236456D01*
X151414701Y-98200000D01*
X151285298Y-98200000D01*
X151161139Y-98236457D01*
X151110453Y-98269031D01*
X151341422Y-98500000D01*
X151330254Y-98500000D01*
X151272355Y-98515514D01*
X151215514Y-98572354D01*
X151197639Y-98639061D01*
X150966051Y-98407473D01*
X150913787Y-98521920D01*
X150895373Y-98649997D01*
X150895373Y-98650002D01*
X149104627Y-98650002D01*
X149104627Y-98649997D01*
X149086212Y-98521922D01*
X149086211Y-98521919D01*
X149033946Y-98407473D01*
X148802359Y-98639060D01*
X148784486Y-98572355D01*
X148727645Y-98515514D01*
X148669746Y-98500000D01*
X148658578Y-98500000D01*
X148889546Y-98269032D01*
X148838858Y-98236456D01*
X148714701Y-98200000D01*
X148585298Y-98200000D01*
X148461139Y-98236457D01*
X148410453Y-98269031D01*
X148641422Y-98500000D01*
X148630254Y-98500000D01*
X148572355Y-98515514D01*
X148515514Y-98572354D01*
X148497639Y-98639061D01*
X148266051Y-98407473D01*
X148213787Y-98521920D01*
X148195373Y-98649997D01*
X148195373Y-98650002D01*
X144778527Y-98650002D01*
X144778557Y-98649966D01*
X145632603Y-97795920D01*
X145681044Y-97750680D01*
X145704383Y-97712298D01*
X145707229Y-97708118D01*
X145734361Y-97672342D01*
X145741727Y-97653660D01*
X145749239Y-97638537D01*
X145759672Y-97621382D01*
X145771790Y-97578130D01*
X145773397Y-97573348D01*
X145789876Y-97531564D01*
X145791929Y-97511585D01*
X145795082Y-97495004D01*
X145800499Y-97475668D01*
X145800500Y-97475667D01*
X145800500Y-97430763D01*
X145800760Y-97425698D01*
X145802006Y-97413568D01*
X145805352Y-97381028D01*
X145801939Y-97361231D01*
X145800500Y-97344412D01*
X145800500Y-96909850D01*
X145808036Y-96871964D01*
X145812118Y-96862109D01*
X145835044Y-96806762D01*
X145855682Y-96650000D01*
X145835044Y-96493238D01*
X145831529Y-96484752D01*
X145774537Y-96347161D01*
X145774537Y-96347160D01*
X145678286Y-96221723D01*
X145678285Y-96221722D01*
X145678282Y-96221718D01*
X145678277Y-96221714D01*
X145678276Y-96221713D01*
X145552838Y-96125462D01*
X145406766Y-96064957D01*
X145406758Y-96064955D01*
X145250001Y-96044318D01*
X145249999Y-96044318D01*
X145093241Y-96064955D01*
X145093233Y-96064957D01*
X144947161Y-96125462D01*
X144947160Y-96125462D01*
X144821723Y-96221713D01*
X144821713Y-96221723D01*
X144725462Y-96347160D01*
X144725462Y-96347161D01*
X144664957Y-96493233D01*
X144664955Y-96493241D01*
X144644318Y-96649999D01*
X144644318Y-96650000D01*
X144664955Y-96806758D01*
X144664956Y-96806763D01*
X144675014Y-96831044D01*
X144685666Y-96856761D01*
X144691964Y-96871964D01*
X144699500Y-96909850D01*
X144699500Y-97130967D01*
X144680593Y-97189158D01*
X144670504Y-97200971D01*
X144150971Y-97720504D01*
X144096454Y-97748281D01*
X144080967Y-97749500D01*
X142065924Y-97749500D01*
X141999672Y-97747237D01*
X141999664Y-97747237D01*
X141959303Y-97757073D01*
X141956042Y-97757868D01*
X141951063Y-97758814D01*
X141906575Y-97764930D01*
X141888153Y-97772931D01*
X141872161Y-97778309D01*
X141852648Y-97783065D01*
X141852642Y-97783067D01*
X141813494Y-97805078D01*
X141808954Y-97807333D01*
X141767774Y-97825220D01*
X141767773Y-97825221D01*
X141752194Y-97837895D01*
X141738248Y-97847387D01*
X141720739Y-97857233D01*
X141720737Y-97857234D01*
X141688981Y-97888988D01*
X141685218Y-97892384D01*
X141650389Y-97920720D01*
X141650388Y-97920721D01*
X141638807Y-97937127D01*
X141627934Y-97950036D01*
X139876217Y-99701754D01*
X139827792Y-99746980D01*
X139827791Y-99746982D01*
X139804460Y-99785345D01*
X139801609Y-99789534D01*
X139774475Y-99825318D01*
X139774474Y-99825320D01*
X139767105Y-99844004D01*
X139759601Y-99859113D01*
X139749163Y-99876279D01*
X139737046Y-99919522D01*
X139735430Y-99924327D01*
X139718959Y-99966098D01*
X139718958Y-99966102D01*
X139716904Y-99986078D01*
X139713755Y-100002651D01*
X139708336Y-100021995D01*
X139708336Y-100066897D01*
X139708076Y-100071962D01*
X139703484Y-100116634D01*
X112000500Y-100116634D01*
X112000500Y-94700003D01*
X114294532Y-94700003D01*
X114314363Y-94926684D01*
X114373262Y-95146500D01*
X114469426Y-95352723D01*
X114469434Y-95352737D01*
X114599946Y-95539130D01*
X114599947Y-95539132D01*
X114599950Y-95539135D01*
X114599953Y-95539139D01*
X114760861Y-95700047D01*
X114760864Y-95700049D01*
X114760867Y-95700052D01*
X114760869Y-95700053D01*
X114882633Y-95785312D01*
X114947266Y-95830568D01*
X114947272Y-95830571D01*
X114947276Y-95830573D01*
X115055681Y-95881123D01*
X115145288Y-95922908D01*
X115153500Y-95926737D01*
X115153504Y-95926739D01*
X115373308Y-95985635D01*
X115373312Y-95985635D01*
X115373315Y-95985636D01*
X115599997Y-96005468D01*
X115600000Y-96005468D01*
X115600003Y-96005468D01*
X115826684Y-95985636D01*
X115826685Y-95985635D01*
X115826692Y-95985635D01*
X116046496Y-95926739D01*
X116252734Y-95830568D01*
X116367794Y-95750003D01*
X121295034Y-95750003D01*
X121314857Y-95976597D01*
X121373733Y-96196323D01*
X121469865Y-96402481D01*
X121600334Y-96588811D01*
X121610050Y-96598527D01*
X122003656Y-96204919D01*
X122050756Y-96268185D01*
X122144540Y-96346880D01*
X121751472Y-96739949D01*
X121761188Y-96749665D01*
X121947518Y-96880134D01*
X122153676Y-96976266D01*
X122373402Y-97035142D01*
X122599997Y-97054966D01*
X122600003Y-97054966D01*
X122826597Y-97035142D01*
X123046323Y-96976266D01*
X123252481Y-96880134D01*
X123438814Y-96749663D01*
X123448527Y-96739949D01*
X123056206Y-96347628D01*
X123085373Y-96328445D01*
X123199208Y-96207786D01*
X123589949Y-96598527D01*
X123599663Y-96588814D01*
X123730134Y-96402481D01*
X123826266Y-96196323D01*
X123885142Y-95976597D01*
X123904966Y-95750003D01*
X123904966Y-95749996D01*
X123885142Y-95523402D01*
X123826266Y-95303676D01*
X123730134Y-95097518D01*
X123599665Y-94911188D01*
X123589949Y-94901472D01*
X123196342Y-95295078D01*
X123149244Y-95231815D01*
X123055457Y-95153118D01*
X123448527Y-94760050D01*
X123438811Y-94750334D01*
X123366931Y-94700003D01*
X134294532Y-94700003D01*
X134314363Y-94926684D01*
X134373262Y-95146500D01*
X134469426Y-95352723D01*
X134469434Y-95352737D01*
X134599946Y-95539130D01*
X134599947Y-95539132D01*
X134599950Y-95539135D01*
X134599953Y-95539139D01*
X134760861Y-95700047D01*
X134760864Y-95700049D01*
X134760867Y-95700052D01*
X134760869Y-95700053D01*
X134882633Y-95785312D01*
X134947266Y-95830568D01*
X134947272Y-95830571D01*
X134947276Y-95830573D01*
X135055681Y-95881123D01*
X135145288Y-95922908D01*
X135153500Y-95926737D01*
X135153504Y-95926739D01*
X135373308Y-95985635D01*
X135373312Y-95985635D01*
X135373315Y-95985636D01*
X135599997Y-96005468D01*
X135600000Y-96005468D01*
X135600003Y-96005468D01*
X135826684Y-95985636D01*
X135826685Y-95985635D01*
X135826692Y-95985635D01*
X136046496Y-95926739D01*
X136252734Y-95830568D01*
X136367794Y-95750003D01*
X141295034Y-95750003D01*
X141314857Y-95976597D01*
X141373733Y-96196323D01*
X141469865Y-96402481D01*
X141600334Y-96588811D01*
X141610050Y-96598527D01*
X142003656Y-96204919D01*
X142050756Y-96268185D01*
X142144540Y-96346880D01*
X141751472Y-96739949D01*
X141761188Y-96749665D01*
X141947518Y-96880134D01*
X142153676Y-96976266D01*
X142373402Y-97035142D01*
X142599997Y-97054966D01*
X142600003Y-97054966D01*
X142826597Y-97035142D01*
X143046323Y-96976266D01*
X143252481Y-96880134D01*
X143438814Y-96749663D01*
X143448527Y-96739949D01*
X143056206Y-96347628D01*
X143085373Y-96328445D01*
X143199208Y-96207786D01*
X143589949Y-96598527D01*
X143599663Y-96588814D01*
X143730134Y-96402481D01*
X143826266Y-96196323D01*
X143885142Y-95976597D01*
X143904966Y-95750003D01*
X143904966Y-95749996D01*
X143885142Y-95523402D01*
X143826266Y-95303676D01*
X143730134Y-95097518D01*
X143599665Y-94911188D01*
X143589949Y-94901472D01*
X143196342Y-95295078D01*
X143149244Y-95231815D01*
X143055457Y-95153118D01*
X143448527Y-94760050D01*
X143438811Y-94750334D01*
X143252481Y-94619865D01*
X143046323Y-94523733D01*
X142826597Y-94464857D01*
X142600003Y-94445034D01*
X142599997Y-94445034D01*
X142373402Y-94464857D01*
X142153676Y-94523733D01*
X141947518Y-94619865D01*
X141761185Y-94750336D01*
X141751471Y-94760049D01*
X142143793Y-95152371D01*
X142114627Y-95171555D01*
X142000791Y-95292213D01*
X141610049Y-94901471D01*
X141600336Y-94911185D01*
X141469865Y-95097518D01*
X141373733Y-95303676D01*
X141314857Y-95523402D01*
X141295034Y-95749996D01*
X141295034Y-95750003D01*
X136367794Y-95750003D01*
X136439139Y-95700047D01*
X136600047Y-95539139D01*
X136730568Y-95352734D01*
X136826739Y-95146496D01*
X136885635Y-94926692D01*
X136886992Y-94911188D01*
X136905468Y-94700003D01*
X136905468Y-94699996D01*
X136885636Y-94473315D01*
X136885635Y-94473312D01*
X136885635Y-94473308D01*
X136826739Y-94253504D01*
X136814886Y-94228085D01*
X136730573Y-94047276D01*
X136730571Y-94047272D01*
X136730568Y-94047266D01*
X136687061Y-93985131D01*
X136600053Y-93860869D01*
X136600052Y-93860867D01*
X136600049Y-93860864D01*
X136600047Y-93860861D01*
X136439139Y-93699953D01*
X136439135Y-93699950D01*
X136439132Y-93699947D01*
X136439130Y-93699946D01*
X136252737Y-93569434D01*
X136252736Y-93569433D01*
X136252734Y-93569432D01*
X136252731Y-93569430D01*
X136252723Y-93569426D01*
X136046499Y-93473262D01*
X136046500Y-93473262D01*
X135973228Y-93453629D01*
X135826692Y-93414365D01*
X135826691Y-93414364D01*
X135826684Y-93414363D01*
X135600003Y-93394532D01*
X135599997Y-93394532D01*
X135373315Y-93414363D01*
X135153499Y-93473262D01*
X134947276Y-93569426D01*
X134947262Y-93569434D01*
X134760869Y-93699946D01*
X134760867Y-93699947D01*
X134599947Y-93860867D01*
X134599946Y-93860869D01*
X134469434Y-94047262D01*
X134469426Y-94047276D01*
X134373262Y-94253499D01*
X134314363Y-94473315D01*
X134294532Y-94699996D01*
X134294532Y-94700003D01*
X123366931Y-94700003D01*
X123252481Y-94619865D01*
X123046323Y-94523733D01*
X122826597Y-94464857D01*
X122600003Y-94445034D01*
X122599997Y-94445034D01*
X122373402Y-94464857D01*
X122153676Y-94523733D01*
X121947518Y-94619865D01*
X121761185Y-94750336D01*
X121751471Y-94760049D01*
X122143793Y-95152371D01*
X122114627Y-95171555D01*
X122000791Y-95292213D01*
X121610049Y-94901471D01*
X121600336Y-94911185D01*
X121469865Y-95097518D01*
X121373733Y-95303676D01*
X121314857Y-95523402D01*
X121295034Y-95749996D01*
X121295034Y-95750003D01*
X116367794Y-95750003D01*
X116439139Y-95700047D01*
X116600047Y-95539139D01*
X116730568Y-95352734D01*
X116826739Y-95146496D01*
X116885635Y-94926692D01*
X116886992Y-94911188D01*
X116905468Y-94700003D01*
X116905468Y-94699996D01*
X116885636Y-94473315D01*
X116885635Y-94473312D01*
X116885635Y-94473308D01*
X116826739Y-94253504D01*
X116814886Y-94228085D01*
X116730573Y-94047276D01*
X116730571Y-94047272D01*
X116730568Y-94047266D01*
X116687061Y-93985131D01*
X116600053Y-93860869D01*
X116600052Y-93860867D01*
X116600049Y-93860864D01*
X116600047Y-93860861D01*
X116439139Y-93699953D01*
X116439135Y-93699950D01*
X116439132Y-93699947D01*
X116439130Y-93699946D01*
X116252737Y-93569434D01*
X116252736Y-93569433D01*
X116252734Y-93569432D01*
X116252731Y-93569430D01*
X116252723Y-93569426D01*
X116046499Y-93473262D01*
X116046500Y-93473262D01*
X115973228Y-93453629D01*
X115826692Y-93414365D01*
X115826691Y-93414364D01*
X115826684Y-93414363D01*
X115600003Y-93394532D01*
X115599997Y-93394532D01*
X115373315Y-93414363D01*
X115153499Y-93473262D01*
X114947276Y-93569426D01*
X114947262Y-93569434D01*
X114760869Y-93699946D01*
X114760867Y-93699947D01*
X114599947Y-93860867D01*
X114599946Y-93860869D01*
X114469434Y-94047262D01*
X114469426Y-94047276D01*
X114373262Y-94253499D01*
X114314363Y-94473315D01*
X114294532Y-94699996D01*
X114294532Y-94700003D01*
X112000500Y-94700003D01*
X112000500Y-89915371D01*
X117145739Y-89915371D01*
X117155764Y-90253555D01*
X117205716Y-90588175D01*
X117294893Y-90914528D01*
X117294899Y-90914545D01*
X117422044Y-91228051D01*
X117422050Y-91228064D01*
X117532433Y-91428286D01*
X117585388Y-91524341D01*
X117666149Y-91636896D01*
X117782621Y-91799222D01*
X117782634Y-91799238D01*
X118010985Y-92048850D01*
X118010991Y-92048856D01*
X118267274Y-92269720D01*
X118547871Y-92458716D01*
X118547876Y-92458719D01*
X118547882Y-92458723D01*
X118848875Y-92613212D01*
X119166028Y-92731017D01*
X119350632Y-92775626D01*
X119494874Y-92810482D01*
X119494875Y-92810482D01*
X119494887Y-92810485D01*
X119830837Y-92850500D01*
X119830841Y-92850500D01*
X120084503Y-92850500D01*
X120084504Y-92850500D01*
X120337731Y-92835472D01*
X120670721Y-92775626D01*
X120994295Y-92676816D01*
X121303912Y-92540429D01*
X121595224Y-92368380D01*
X121864143Y-92163085D01*
X122106894Y-91927424D01*
X122320068Y-91664707D01*
X122500674Y-91378620D01*
X122646176Y-91073181D01*
X122754531Y-90752677D01*
X122824219Y-90421607D01*
X122854261Y-90084618D01*
X122849243Y-89915371D01*
X137145739Y-89915371D01*
X137155764Y-90253555D01*
X137205716Y-90588175D01*
X137294893Y-90914528D01*
X137294899Y-90914545D01*
X137422044Y-91228051D01*
X137422050Y-91228064D01*
X137532433Y-91428286D01*
X137585388Y-91524341D01*
X137666149Y-91636896D01*
X137782621Y-91799222D01*
X137782634Y-91799238D01*
X138010985Y-92048850D01*
X138010991Y-92048856D01*
X138267274Y-92269720D01*
X138547871Y-92458716D01*
X138547876Y-92458719D01*
X138547882Y-92458723D01*
X138848875Y-92613212D01*
X139166028Y-92731017D01*
X139350632Y-92775626D01*
X139494874Y-92810482D01*
X139494875Y-92810482D01*
X139494887Y-92810485D01*
X139830837Y-92850500D01*
X139830841Y-92850500D01*
X140084503Y-92850500D01*
X140084504Y-92850500D01*
X140337731Y-92835472D01*
X140670721Y-92775626D01*
X140994295Y-92676816D01*
X141303912Y-92540429D01*
X141595224Y-92368380D01*
X141864143Y-92163085D01*
X142106894Y-91927424D01*
X142320068Y-91664707D01*
X142500674Y-91378620D01*
X142646176Y-91073181D01*
X142754531Y-90752677D01*
X142824219Y-90421607D01*
X142854261Y-90084618D01*
X142844235Y-89746442D01*
X142794283Y-89411825D01*
X142705105Y-89085465D01*
X142577953Y-88771942D01*
X142414612Y-88475659D01*
X142295026Y-88308994D01*
X142217378Y-88200777D01*
X142217365Y-88200761D01*
X141989014Y-87951149D01*
X141989008Y-87951143D01*
X141732725Y-87730279D01*
X141452128Y-87541283D01*
X141452113Y-87541274D01*
X141151129Y-87386790D01*
X141151120Y-87386786D01*
X140833969Y-87268982D01*
X140505125Y-87189517D01*
X140505114Y-87189515D01*
X140505113Y-87189515D01*
X140505110Y-87189514D01*
X140505106Y-87189514D01*
X140169165Y-87149500D01*
X140169163Y-87149500D01*
X139915496Y-87149500D01*
X139881880Y-87151495D01*
X139662269Y-87164528D01*
X139329282Y-87224373D01*
X139329281Y-87224373D01*
X139005700Y-87323185D01*
X138696085Y-87459571D01*
X138404779Y-87631617D01*
X138404778Y-87631618D01*
X138135854Y-87836916D01*
X137893104Y-88072577D01*
X137893101Y-88072580D01*
X137679934Y-88335290D01*
X137499324Y-88621381D01*
X137353827Y-88926812D01*
X137353822Y-88926822D01*
X137245467Y-89247328D01*
X137175782Y-89578382D01*
X137175781Y-89578389D01*
X137145739Y-89915371D01*
X122849243Y-89915371D01*
X122844235Y-89746442D01*
X122794283Y-89411825D01*
X122705105Y-89085465D01*
X122577953Y-88771942D01*
X122414612Y-88475659D01*
X122295026Y-88308994D01*
X122217378Y-88200777D01*
X122217365Y-88200761D01*
X121989014Y-87951149D01*
X121989008Y-87951143D01*
X121732725Y-87730279D01*
X121452128Y-87541283D01*
X121452113Y-87541274D01*
X121151129Y-87386790D01*
X121151120Y-87386786D01*
X120833969Y-87268982D01*
X120505125Y-87189517D01*
X120505114Y-87189515D01*
X120505113Y-87189515D01*
X120505110Y-87189514D01*
X120505106Y-87189514D01*
X120169165Y-87149500D01*
X120169163Y-87149500D01*
X119915496Y-87149500D01*
X119881880Y-87151495D01*
X119662269Y-87164528D01*
X119329282Y-87224373D01*
X119329281Y-87224373D01*
X119005700Y-87323185D01*
X118696085Y-87459571D01*
X118404779Y-87631617D01*
X118404778Y-87631618D01*
X118135854Y-87836916D01*
X117893104Y-88072577D01*
X117893101Y-88072580D01*
X117679934Y-88335290D01*
X117499324Y-88621381D01*
X117353827Y-88926812D01*
X117353822Y-88926822D01*
X117245467Y-89247328D01*
X117175782Y-89578382D01*
X117175781Y-89578389D01*
X117145739Y-89915371D01*
X112000500Y-89915371D01*
X112000500Y-85592709D01*
X118299500Y-85592709D01*
X118333527Y-85774741D01*
X118333571Y-85774973D01*
X118400552Y-85947872D01*
X118498163Y-86105519D01*
X118623080Y-86242546D01*
X118771048Y-86354286D01*
X118937029Y-86436935D01*
X119115371Y-86487678D01*
X119300000Y-86504786D01*
X119484629Y-86487678D01*
X119662971Y-86436935D01*
X119828952Y-86354286D01*
X119976920Y-86242546D01*
X120101837Y-86105519D01*
X120199448Y-85947872D01*
X120266429Y-85774973D01*
X120300500Y-85592710D01*
X120300500Y-85592709D01*
X138299500Y-85592709D01*
X138333527Y-85774741D01*
X138333571Y-85774973D01*
X138400552Y-85947872D01*
X138498163Y-86105519D01*
X138623080Y-86242546D01*
X138771048Y-86354286D01*
X138937029Y-86436935D01*
X139115371Y-86487678D01*
X139300000Y-86504786D01*
X139484629Y-86487678D01*
X139662971Y-86436935D01*
X139828952Y-86354286D01*
X139976920Y-86242546D01*
X140101837Y-86105519D01*
X140199448Y-85947872D01*
X140266429Y-85774973D01*
X140300500Y-85592710D01*
X140300500Y-85500000D01*
X140300500Y-85499500D01*
X140300500Y-84499901D01*
X140300500Y-84407290D01*
X140280444Y-84300000D01*
X141494318Y-84300000D01*
X141514955Y-84456758D01*
X141514957Y-84456766D01*
X141575462Y-84602838D01*
X141575462Y-84602839D01*
X141671713Y-84728276D01*
X141671718Y-84728282D01*
X141797159Y-84824536D01*
X141797160Y-84824536D01*
X141797161Y-84824537D01*
X141920105Y-84875462D01*
X141943238Y-84885044D01*
X142060809Y-84900522D01*
X142099999Y-84905682D01*
X142100000Y-84905682D01*
X142100001Y-84905682D01*
X142131352Y-84901554D01*
X142256762Y-84885044D01*
X142402841Y-84824536D01*
X142528282Y-84728282D01*
X142596612Y-84639233D01*
X142647037Y-84604577D01*
X142675154Y-84600500D01*
X150624846Y-84600500D01*
X150683037Y-84619407D01*
X150703388Y-84639233D01*
X150771713Y-84728276D01*
X150771718Y-84728282D01*
X150897159Y-84824536D01*
X150897160Y-84824536D01*
X150897161Y-84824537D01*
X151020105Y-84875462D01*
X151043238Y-84885044D01*
X151160809Y-84900522D01*
X151199999Y-84905682D01*
X151200000Y-84905682D01*
X151200001Y-84905682D01*
X151231352Y-84901554D01*
X151356762Y-84885044D01*
X151502841Y-84824536D01*
X151628282Y-84728282D01*
X151724536Y-84602841D01*
X151785044Y-84456762D01*
X151805682Y-84300000D01*
X151785044Y-84143238D01*
X151747305Y-84052127D01*
X151724537Y-83997161D01*
X151724537Y-83997160D01*
X151628286Y-83871723D01*
X151628285Y-83871722D01*
X151628282Y-83871718D01*
X151628277Y-83871714D01*
X151628276Y-83871713D01*
X151502838Y-83775462D01*
X151356766Y-83714957D01*
X151356758Y-83714955D01*
X151200001Y-83694318D01*
X151199999Y-83694318D01*
X151043241Y-83714955D01*
X151043233Y-83714957D01*
X150897161Y-83775462D01*
X150897160Y-83775462D01*
X150771723Y-83871713D01*
X150771713Y-83871723D01*
X150703388Y-83960767D01*
X150652963Y-83995423D01*
X150624846Y-83999500D01*
X142675154Y-83999500D01*
X142616963Y-83980593D01*
X142596612Y-83960767D01*
X142528286Y-83871723D01*
X142528285Y-83871722D01*
X142528282Y-83871718D01*
X142528277Y-83871714D01*
X142528276Y-83871713D01*
X142402838Y-83775462D01*
X142256766Y-83714957D01*
X142256758Y-83714955D01*
X142100001Y-83694318D01*
X142099999Y-83694318D01*
X141943241Y-83714955D01*
X141943233Y-83714957D01*
X141797161Y-83775462D01*
X141797160Y-83775462D01*
X141671723Y-83871713D01*
X141671713Y-83871723D01*
X141575462Y-83997160D01*
X141575462Y-83997161D01*
X141514957Y-84143233D01*
X141514955Y-84143241D01*
X141494318Y-84299999D01*
X141494318Y-84300000D01*
X140280444Y-84300000D01*
X140266429Y-84225027D01*
X140199448Y-84052128D01*
X140101837Y-83894481D01*
X139976920Y-83757454D01*
X139828952Y-83645714D01*
X139662971Y-83563065D01*
X139484629Y-83512322D01*
X139300000Y-83495214D01*
X139115371Y-83512322D01*
X138937029Y-83563065D01*
X138937028Y-83563065D01*
X138937026Y-83563066D01*
X138771055Y-83645710D01*
X138771046Y-83645715D01*
X138706686Y-83694318D01*
X138623080Y-83757454D01*
X138498163Y-83894481D01*
X138498161Y-83894483D01*
X138498160Y-83894485D01*
X138400555Y-84052122D01*
X138400552Y-84052127D01*
X138333570Y-84225029D01*
X138299500Y-84407290D01*
X138299500Y-85592709D01*
X120300500Y-85592709D01*
X120300500Y-85500000D01*
X120300500Y-85499500D01*
X120300500Y-84499901D01*
X120300500Y-84407290D01*
X120266429Y-84225027D01*
X120199448Y-84052128D01*
X120101837Y-83894481D01*
X119976920Y-83757454D01*
X119828952Y-83645714D01*
X119662971Y-83563065D01*
X119484629Y-83512322D01*
X119300000Y-83495214D01*
X119115371Y-83512322D01*
X118937029Y-83563065D01*
X118937028Y-83563065D01*
X118937026Y-83563066D01*
X118771055Y-83645710D01*
X118771046Y-83645715D01*
X118706686Y-83694318D01*
X118623080Y-83757454D01*
X118498163Y-83894481D01*
X118498161Y-83894483D01*
X118498160Y-83894485D01*
X118400555Y-84052122D01*
X118400552Y-84052127D01*
X118333570Y-84225029D01*
X118299500Y-84407290D01*
X118299500Y-85592709D01*
X112000500Y-85592709D01*
X112000500Y-68385879D01*
X113094621Y-68385879D01*
X113099025Y-68417452D01*
X113099500Y-68424298D01*
X113099500Y-80734835D01*
X113097280Y-80748513D01*
X113098494Y-80748683D01*
X113097226Y-80757766D01*
X113099447Y-80805783D01*
X113099500Y-80808069D01*
X113099500Y-80827842D01*
X113100152Y-80831332D01*
X113100943Y-80838149D01*
X113102414Y-80869987D01*
X113102415Y-80869994D01*
X113106384Y-80878982D01*
X113113133Y-80900773D01*
X113114939Y-80910433D01*
X113131717Y-80937533D01*
X113134915Y-80943600D01*
X113145062Y-80966579D01*
X113147794Y-80972765D01*
X113154745Y-80979716D01*
X113168907Y-80997596D01*
X113174081Y-81005952D01*
X113199511Y-81025156D01*
X113204690Y-81029662D01*
X115041436Y-82866407D01*
X115049537Y-82877647D01*
X115050516Y-82876909D01*
X115056044Y-82884230D01*
X115091569Y-82916616D01*
X115093223Y-82918195D01*
X115107201Y-82932172D01*
X115107203Y-82932174D01*
X115110128Y-82934178D01*
X115115505Y-82938437D01*
X115139063Y-82959913D01*
X115139064Y-82959913D01*
X115139067Y-82959916D01*
X115148233Y-82963467D01*
X115168412Y-82974103D01*
X115176520Y-82979657D01*
X115207558Y-82986957D01*
X115214096Y-82988982D01*
X115243827Y-83000500D01*
X115253652Y-83000500D01*
X115276316Y-83003129D01*
X115285881Y-83005379D01*
X115310494Y-83001945D01*
X115317453Y-83000975D01*
X115324299Y-83000500D01*
X117424846Y-83000500D01*
X117483037Y-83019407D01*
X117503388Y-83039233D01*
X117571718Y-83128282D01*
X117697159Y-83224536D01*
X117843238Y-83285044D01*
X117960809Y-83300522D01*
X117999999Y-83305682D01*
X118000000Y-83305682D01*
X118000001Y-83305682D01*
X118031352Y-83301554D01*
X118156762Y-83285044D01*
X118302841Y-83224536D01*
X118428282Y-83128282D01*
X118524536Y-83002841D01*
X118585044Y-82856762D01*
X118605682Y-82700000D01*
X118585044Y-82543238D01*
X118524537Y-82397161D01*
X118524537Y-82397160D01*
X118428286Y-82271723D01*
X118428285Y-82271722D01*
X118428282Y-82271718D01*
X118428277Y-82271714D01*
X118428276Y-82271713D01*
X118302838Y-82175462D01*
X118156766Y-82114957D01*
X118156758Y-82114955D01*
X118000001Y-82094318D01*
X117999999Y-82094318D01*
X117843241Y-82114955D01*
X117843233Y-82114957D01*
X117697161Y-82175462D01*
X117697160Y-82175462D01*
X117571723Y-82271713D01*
X117571713Y-82271723D01*
X117503388Y-82360767D01*
X117452963Y-82395423D01*
X117424846Y-82399500D01*
X115465479Y-82399500D01*
X115407288Y-82380593D01*
X115395475Y-82370504D01*
X113729496Y-80704525D01*
X113701719Y-80650008D01*
X113700500Y-80634521D01*
X113700500Y-80067765D01*
X128145788Y-80067765D01*
X128175414Y-80337020D01*
X128209997Y-80469301D01*
X128243928Y-80599088D01*
X128349870Y-80848390D01*
X128446029Y-81005952D01*
X128490983Y-81079612D01*
X128580252Y-81186880D01*
X128664255Y-81287820D01*
X128865998Y-81468582D01*
X129088624Y-81615870D01*
X129091913Y-81618046D01*
X129224100Y-81680012D01*
X129337176Y-81733020D01*
X129482628Y-81776780D01*
X129596555Y-81811056D01*
X129596559Y-81811057D01*
X129596569Y-81811060D01*
X129763840Y-81835677D01*
X129864560Y-81850500D01*
X129864561Y-81850500D01*
X130067633Y-81850500D01*
X130125495Y-81846264D01*
X130270156Y-81835677D01*
X130534553Y-81776780D01*
X130787558Y-81680014D01*
X131023777Y-81547441D01*
X131238177Y-81381888D01*
X131426186Y-81186881D01*
X131583799Y-80966579D01*
X131707656Y-80725675D01*
X131795118Y-80469305D01*
X131844319Y-80202933D01*
X131854212Y-79932235D01*
X131824586Y-79662982D01*
X131756072Y-79400912D01*
X131650130Y-79151610D01*
X131509018Y-78920390D01*
X131335745Y-78712180D01*
X131230754Y-78618108D01*
X131134007Y-78531422D01*
X131134004Y-78531420D01*
X131134002Y-78531418D01*
X130984489Y-78432501D01*
X130908086Y-78381953D01*
X130662822Y-78266979D01*
X130403444Y-78188943D01*
X130403428Y-78188939D01*
X130135440Y-78149500D01*
X130135439Y-78149500D01*
X129932369Y-78149500D01*
X129932367Y-78149500D01*
X129729848Y-78164322D01*
X129465450Y-78223219D01*
X129212439Y-78319987D01*
X128976219Y-78452561D01*
X128761826Y-78618108D01*
X128573814Y-78813119D01*
X128416199Y-79033422D01*
X128292342Y-79274328D01*
X128204884Y-79530687D01*
X128204881Y-79530698D01*
X128155680Y-79797069D01*
X128145788Y-80067765D01*
X113700500Y-80067765D01*
X113700500Y-74700003D01*
X114294532Y-74700003D01*
X114314363Y-74926684D01*
X114373262Y-75146500D01*
X114469426Y-75352723D01*
X114469434Y-75352737D01*
X114599946Y-75539130D01*
X114599947Y-75539132D01*
X114599950Y-75539135D01*
X114599953Y-75539139D01*
X114760861Y-75700047D01*
X114760864Y-75700049D01*
X114760867Y-75700052D01*
X114760869Y-75700053D01*
X114769497Y-75706094D01*
X114947266Y-75830568D01*
X114947272Y-75830571D01*
X114947276Y-75830573D01*
X115153500Y-75926737D01*
X115153504Y-75926739D01*
X115373308Y-75985635D01*
X115373312Y-75985635D01*
X115373315Y-75985636D01*
X115599997Y-76005468D01*
X115600000Y-76005468D01*
X115600003Y-76005468D01*
X115826684Y-75985636D01*
X115826685Y-75985635D01*
X115826692Y-75985635D01*
X116046496Y-75926739D01*
X116252734Y-75830568D01*
X116367794Y-75750003D01*
X121295034Y-75750003D01*
X121314857Y-75976597D01*
X121373733Y-76196323D01*
X121469865Y-76402481D01*
X121600334Y-76588811D01*
X121610050Y-76598527D01*
X122003656Y-76204919D01*
X122050756Y-76268185D01*
X122144540Y-76346880D01*
X121751472Y-76739949D01*
X121761188Y-76749665D01*
X121947518Y-76880134D01*
X122153676Y-76976266D01*
X122373402Y-77035142D01*
X122599997Y-77054966D01*
X122600003Y-77054966D01*
X122826597Y-77035142D01*
X123046323Y-76976266D01*
X123252481Y-76880134D01*
X123438814Y-76749663D01*
X123448527Y-76739949D01*
X123056206Y-76347628D01*
X123085373Y-76328445D01*
X123199208Y-76207786D01*
X123589949Y-76598527D01*
X123599663Y-76588814D01*
X123730134Y-76402481D01*
X123826266Y-76196323D01*
X123885142Y-75976597D01*
X123904966Y-75750003D01*
X123904966Y-75749996D01*
X123885142Y-75523402D01*
X123826266Y-75303676D01*
X123730134Y-75097518D01*
X123599665Y-74911188D01*
X123589949Y-74901472D01*
X123196342Y-75295078D01*
X123149244Y-75231815D01*
X123055457Y-75153118D01*
X123448527Y-74760050D01*
X123438811Y-74750334D01*
X123366931Y-74700003D01*
X134294532Y-74700003D01*
X134314363Y-74926684D01*
X134373262Y-75146500D01*
X134469426Y-75352723D01*
X134469434Y-75352737D01*
X134599946Y-75539130D01*
X134599947Y-75539132D01*
X134599950Y-75539135D01*
X134599953Y-75539139D01*
X134760861Y-75700047D01*
X134760864Y-75700049D01*
X134760867Y-75700052D01*
X134760869Y-75700053D01*
X134769497Y-75706094D01*
X134947266Y-75830568D01*
X134947272Y-75830571D01*
X134947276Y-75830573D01*
X135153500Y-75926737D01*
X135153504Y-75926739D01*
X135373308Y-75985635D01*
X135373312Y-75985635D01*
X135373315Y-75985636D01*
X135599997Y-76005468D01*
X135600000Y-76005468D01*
X135600003Y-76005468D01*
X135826684Y-75985636D01*
X135826685Y-75985635D01*
X135826692Y-75985635D01*
X136046496Y-75926739D01*
X136252734Y-75830568D01*
X136367794Y-75750003D01*
X141295034Y-75750003D01*
X141314857Y-75976597D01*
X141373733Y-76196323D01*
X141469865Y-76402481D01*
X141600334Y-76588811D01*
X141610050Y-76598527D01*
X142003656Y-76204919D01*
X142050756Y-76268185D01*
X142144540Y-76346880D01*
X141751472Y-76739949D01*
X141761188Y-76749665D01*
X141947518Y-76880134D01*
X142153676Y-76976266D01*
X142373402Y-77035142D01*
X142599997Y-77054966D01*
X142600003Y-77054966D01*
X142826597Y-77035142D01*
X143046323Y-76976266D01*
X143252481Y-76880134D01*
X143438814Y-76749663D01*
X143448527Y-76739949D01*
X143056206Y-76347628D01*
X143085373Y-76328445D01*
X143199208Y-76207786D01*
X143589949Y-76598527D01*
X143599663Y-76588814D01*
X143730134Y-76402481D01*
X143826266Y-76196323D01*
X143885142Y-75976597D01*
X143904966Y-75750003D01*
X143904966Y-75749996D01*
X143885142Y-75523402D01*
X143826266Y-75303676D01*
X143730134Y-75097518D01*
X143599665Y-74911188D01*
X143589949Y-74901472D01*
X143196342Y-75295078D01*
X143149244Y-75231815D01*
X143055457Y-75153118D01*
X143448527Y-74760050D01*
X143438811Y-74750334D01*
X143366931Y-74700003D01*
X154294532Y-74700003D01*
X154314363Y-74926684D01*
X154373262Y-75146500D01*
X154469426Y-75352723D01*
X154469434Y-75352737D01*
X154599946Y-75539130D01*
X154599947Y-75539132D01*
X154599950Y-75539135D01*
X154599953Y-75539139D01*
X154760861Y-75700047D01*
X154760864Y-75700049D01*
X154760867Y-75700052D01*
X154760869Y-75700053D01*
X154769497Y-75706094D01*
X154947266Y-75830568D01*
X154947272Y-75830571D01*
X154947276Y-75830573D01*
X155153500Y-75926737D01*
X155153504Y-75926739D01*
X155373308Y-75985635D01*
X155373312Y-75985635D01*
X155373315Y-75985636D01*
X155599997Y-76005468D01*
X155600000Y-76005468D01*
X155600003Y-76005468D01*
X155826684Y-75985636D01*
X155826685Y-75985635D01*
X155826692Y-75985635D01*
X156046496Y-75926739D01*
X156252734Y-75830568D01*
X156367794Y-75750003D01*
X161295034Y-75750003D01*
X161314857Y-75976597D01*
X161373733Y-76196323D01*
X161469865Y-76402481D01*
X161600334Y-76588811D01*
X161610050Y-76598527D01*
X162003656Y-76204919D01*
X162050756Y-76268185D01*
X162144540Y-76346880D01*
X161751472Y-76739949D01*
X161761188Y-76749665D01*
X161947518Y-76880134D01*
X162153676Y-76976266D01*
X162373402Y-77035142D01*
X162599997Y-77054966D01*
X162600003Y-77054966D01*
X162826597Y-77035142D01*
X163046323Y-76976266D01*
X163252481Y-76880134D01*
X163438814Y-76749663D01*
X163448527Y-76739949D01*
X163056206Y-76347628D01*
X163085373Y-76328445D01*
X163199208Y-76207786D01*
X163589949Y-76598527D01*
X163599663Y-76588814D01*
X163730134Y-76402481D01*
X163826266Y-76196323D01*
X163885142Y-75976597D01*
X163904966Y-75750003D01*
X163904966Y-75749996D01*
X163885142Y-75523402D01*
X163826266Y-75303676D01*
X163730134Y-75097518D01*
X163599665Y-74911188D01*
X163589949Y-74901472D01*
X163196342Y-75295078D01*
X163149244Y-75231815D01*
X163055457Y-75153118D01*
X163448527Y-74760050D01*
X163438811Y-74750334D01*
X163366931Y-74700003D01*
X174294532Y-74700003D01*
X174314363Y-74926684D01*
X174373262Y-75146500D01*
X174469426Y-75352723D01*
X174469434Y-75352737D01*
X174599946Y-75539130D01*
X174599947Y-75539132D01*
X174599950Y-75539135D01*
X174599953Y-75539139D01*
X174760861Y-75700047D01*
X174760864Y-75700049D01*
X174760867Y-75700052D01*
X174760869Y-75700053D01*
X174769497Y-75706094D01*
X174947266Y-75830568D01*
X174947272Y-75830571D01*
X174947276Y-75830573D01*
X175153500Y-75926737D01*
X175153504Y-75926739D01*
X175373308Y-75985635D01*
X175373312Y-75985635D01*
X175373315Y-75985636D01*
X175599997Y-76005468D01*
X175600000Y-76005468D01*
X175600003Y-76005468D01*
X175826684Y-75985636D01*
X175826685Y-75985635D01*
X175826692Y-75985635D01*
X176046496Y-75926739D01*
X176252734Y-75830568D01*
X176367794Y-75750003D01*
X181295034Y-75750003D01*
X181314857Y-75976597D01*
X181373733Y-76196323D01*
X181469865Y-76402481D01*
X181600334Y-76588811D01*
X181610050Y-76598527D01*
X182003656Y-76204919D01*
X182050756Y-76268185D01*
X182144540Y-76346880D01*
X181751472Y-76739949D01*
X181761188Y-76749665D01*
X181947518Y-76880134D01*
X182153676Y-76976266D01*
X182373402Y-77035142D01*
X182599997Y-77054966D01*
X182600003Y-77054966D01*
X182826597Y-77035142D01*
X183046323Y-76976266D01*
X183252481Y-76880134D01*
X183438814Y-76749663D01*
X183448527Y-76739949D01*
X183056206Y-76347628D01*
X183085373Y-76328445D01*
X183199208Y-76207786D01*
X183589949Y-76598527D01*
X183599663Y-76588814D01*
X183730134Y-76402481D01*
X183826266Y-76196323D01*
X183885142Y-75976597D01*
X183904966Y-75750003D01*
X183904966Y-75749996D01*
X183885142Y-75523402D01*
X183826266Y-75303676D01*
X183730134Y-75097518D01*
X183599665Y-74911188D01*
X183589949Y-74901472D01*
X183196342Y-75295078D01*
X183149244Y-75231815D01*
X183055457Y-75153118D01*
X183448527Y-74760050D01*
X183438811Y-74750334D01*
X183252481Y-74619865D01*
X183046323Y-74523733D01*
X182826597Y-74464857D01*
X182600003Y-74445034D01*
X182599997Y-74445034D01*
X182373402Y-74464857D01*
X182153676Y-74523733D01*
X181947518Y-74619865D01*
X181761185Y-74750336D01*
X181751471Y-74760049D01*
X182143793Y-75152371D01*
X182114627Y-75171555D01*
X182000791Y-75292213D01*
X181610049Y-74901471D01*
X181600336Y-74911185D01*
X181469865Y-75097518D01*
X181373733Y-75303676D01*
X181314857Y-75523402D01*
X181295034Y-75749996D01*
X181295034Y-75750003D01*
X176367794Y-75750003D01*
X176439139Y-75700047D01*
X176600047Y-75539139D01*
X176730568Y-75352734D01*
X176826739Y-75146496D01*
X176885635Y-74926692D01*
X176886992Y-74911188D01*
X176905468Y-74700003D01*
X176905468Y-74699996D01*
X176885636Y-74473315D01*
X176885635Y-74473312D01*
X176885635Y-74473308D01*
X176826739Y-74253504D01*
X176730568Y-74047266D01*
X176600053Y-73860869D01*
X176600052Y-73860867D01*
X176600049Y-73860864D01*
X176600047Y-73860861D01*
X176439139Y-73699953D01*
X176439135Y-73699950D01*
X176439132Y-73699947D01*
X176439130Y-73699946D01*
X176252737Y-73569434D01*
X176252736Y-73569433D01*
X176252734Y-73569432D01*
X176252731Y-73569430D01*
X176252723Y-73569426D01*
X176046499Y-73473262D01*
X176046500Y-73473262D01*
X175973228Y-73453629D01*
X175826692Y-73414365D01*
X175826691Y-73414364D01*
X175826684Y-73414363D01*
X175600003Y-73394532D01*
X175599997Y-73394532D01*
X175373315Y-73414363D01*
X175153499Y-73473262D01*
X174947276Y-73569426D01*
X174947262Y-73569434D01*
X174760869Y-73699946D01*
X174760867Y-73699947D01*
X174599947Y-73860867D01*
X174599946Y-73860869D01*
X174469434Y-74047262D01*
X174469426Y-74047276D01*
X174373262Y-74253499D01*
X174314363Y-74473315D01*
X174294532Y-74699996D01*
X174294532Y-74700003D01*
X163366931Y-74700003D01*
X163252481Y-74619865D01*
X163046323Y-74523733D01*
X162826597Y-74464857D01*
X162600003Y-74445034D01*
X162599997Y-74445034D01*
X162373402Y-74464857D01*
X162153676Y-74523733D01*
X161947518Y-74619865D01*
X161761185Y-74750336D01*
X161751471Y-74760049D01*
X162143793Y-75152371D01*
X162114627Y-75171555D01*
X162000791Y-75292213D01*
X161610049Y-74901471D01*
X161600336Y-74911185D01*
X161469865Y-75097518D01*
X161373733Y-75303676D01*
X161314857Y-75523402D01*
X161295034Y-75749996D01*
X161295034Y-75750003D01*
X156367794Y-75750003D01*
X156439139Y-75700047D01*
X156600047Y-75539139D01*
X156730568Y-75352734D01*
X156826739Y-75146496D01*
X156885635Y-74926692D01*
X156886992Y-74911188D01*
X156905468Y-74700003D01*
X156905468Y-74699996D01*
X156885636Y-74473315D01*
X156885635Y-74473312D01*
X156885635Y-74473308D01*
X156826739Y-74253504D01*
X156730568Y-74047266D01*
X156600053Y-73860869D01*
X156600052Y-73860867D01*
X156600049Y-73860864D01*
X156600047Y-73860861D01*
X156439139Y-73699953D01*
X156439135Y-73699950D01*
X156439132Y-73699947D01*
X156439130Y-73699946D01*
X156252737Y-73569434D01*
X156252736Y-73569433D01*
X156252734Y-73569432D01*
X156252731Y-73569430D01*
X156252723Y-73569426D01*
X156046499Y-73473262D01*
X156046500Y-73473262D01*
X155973228Y-73453629D01*
X155826692Y-73414365D01*
X155826691Y-73414364D01*
X155826684Y-73414363D01*
X155600003Y-73394532D01*
X155599997Y-73394532D01*
X155373315Y-73414363D01*
X155153499Y-73473262D01*
X154947276Y-73569426D01*
X154947262Y-73569434D01*
X154760869Y-73699946D01*
X154760867Y-73699947D01*
X154599947Y-73860867D01*
X154599946Y-73860869D01*
X154469434Y-74047262D01*
X154469426Y-74047276D01*
X154373262Y-74253499D01*
X154314363Y-74473315D01*
X154294532Y-74699996D01*
X154294532Y-74700003D01*
X143366931Y-74700003D01*
X143252481Y-74619865D01*
X143046323Y-74523733D01*
X142826597Y-74464857D01*
X142600003Y-74445034D01*
X142599997Y-74445034D01*
X142373402Y-74464857D01*
X142153676Y-74523733D01*
X141947518Y-74619865D01*
X141761185Y-74750336D01*
X141751471Y-74760049D01*
X142143793Y-75152371D01*
X142114627Y-75171555D01*
X142000791Y-75292213D01*
X141610049Y-74901471D01*
X141600336Y-74911185D01*
X141469865Y-75097518D01*
X141373733Y-75303676D01*
X141314857Y-75523402D01*
X141295034Y-75749996D01*
X141295034Y-75750003D01*
X136367794Y-75750003D01*
X136439139Y-75700047D01*
X136600047Y-75539139D01*
X136730568Y-75352734D01*
X136826739Y-75146496D01*
X136885635Y-74926692D01*
X136886992Y-74911188D01*
X136905468Y-74700003D01*
X136905468Y-74699996D01*
X136885636Y-74473315D01*
X136885635Y-74473312D01*
X136885635Y-74473308D01*
X136826739Y-74253504D01*
X136730568Y-74047266D01*
X136600053Y-73860869D01*
X136600052Y-73860867D01*
X136600049Y-73860864D01*
X136600047Y-73860861D01*
X136439139Y-73699953D01*
X136439135Y-73699950D01*
X136439132Y-73699947D01*
X136439130Y-73699946D01*
X136252737Y-73569434D01*
X136252736Y-73569433D01*
X136252734Y-73569432D01*
X136252731Y-73569430D01*
X136252723Y-73569426D01*
X136046499Y-73473262D01*
X136046500Y-73473262D01*
X135973228Y-73453629D01*
X135826692Y-73414365D01*
X135826691Y-73414364D01*
X135826684Y-73414363D01*
X135600003Y-73394532D01*
X135599997Y-73394532D01*
X135373315Y-73414363D01*
X135153499Y-73473262D01*
X134947276Y-73569426D01*
X134947262Y-73569434D01*
X134760869Y-73699946D01*
X134760867Y-73699947D01*
X134599947Y-73860867D01*
X134599946Y-73860869D01*
X134469434Y-74047262D01*
X134469426Y-74047276D01*
X134373262Y-74253499D01*
X134314363Y-74473315D01*
X134294532Y-74699996D01*
X134294532Y-74700003D01*
X123366931Y-74700003D01*
X123252481Y-74619865D01*
X123046323Y-74523733D01*
X122826597Y-74464857D01*
X122600003Y-74445034D01*
X122599997Y-74445034D01*
X122373402Y-74464857D01*
X122153676Y-74523733D01*
X121947518Y-74619865D01*
X121761185Y-74750336D01*
X121751471Y-74760049D01*
X122143793Y-75152371D01*
X122114627Y-75171555D01*
X122000791Y-75292213D01*
X121610049Y-74901471D01*
X121600336Y-74911185D01*
X121469865Y-75097518D01*
X121373733Y-75303676D01*
X121314857Y-75523402D01*
X121295034Y-75749996D01*
X121295034Y-75750003D01*
X116367794Y-75750003D01*
X116439139Y-75700047D01*
X116600047Y-75539139D01*
X116730568Y-75352734D01*
X116826739Y-75146496D01*
X116885635Y-74926692D01*
X116886992Y-74911188D01*
X116905468Y-74700003D01*
X116905468Y-74699996D01*
X116885636Y-74473315D01*
X116885635Y-74473312D01*
X116885635Y-74473308D01*
X116826739Y-74253504D01*
X116730568Y-74047266D01*
X116600053Y-73860869D01*
X116600052Y-73860867D01*
X116600049Y-73860864D01*
X116600047Y-73860861D01*
X116439139Y-73699953D01*
X116439135Y-73699950D01*
X116439132Y-73699947D01*
X116439130Y-73699946D01*
X116252737Y-73569434D01*
X116252736Y-73569433D01*
X116252734Y-73569432D01*
X116252731Y-73569430D01*
X116252723Y-73569426D01*
X116046499Y-73473262D01*
X116046500Y-73473262D01*
X115973228Y-73453629D01*
X115826692Y-73414365D01*
X115826691Y-73414364D01*
X115826684Y-73414363D01*
X115600003Y-73394532D01*
X115599997Y-73394532D01*
X115373315Y-73414363D01*
X115153499Y-73473262D01*
X114947276Y-73569426D01*
X114947262Y-73569434D01*
X114760869Y-73699946D01*
X114760867Y-73699947D01*
X114599947Y-73860867D01*
X114599946Y-73860869D01*
X114469434Y-74047262D01*
X114469426Y-74047276D01*
X114373262Y-74253499D01*
X114314363Y-74473315D01*
X114294532Y-74699996D01*
X114294532Y-74700003D01*
X113700500Y-74700003D01*
X113700500Y-68565479D01*
X113719407Y-68507288D01*
X113729496Y-68495475D01*
X115095475Y-67129496D01*
X115149992Y-67101719D01*
X115165479Y-67100500D01*
X119071757Y-67100500D01*
X119129948Y-67119407D01*
X119165912Y-67168907D01*
X119165912Y-67230093D01*
X119129948Y-67279593D01*
X119100671Y-67294184D01*
X119005700Y-67323185D01*
X118696085Y-67459571D01*
X118404779Y-67631617D01*
X118404778Y-67631618D01*
X118135854Y-67836916D01*
X117893104Y-68072577D01*
X117893101Y-68072580D01*
X117679934Y-68335290D01*
X117499324Y-68621381D01*
X117353827Y-68926812D01*
X117353822Y-68926822D01*
X117245467Y-69247328D01*
X117175782Y-69578382D01*
X117175781Y-69578389D01*
X117145739Y-69915371D01*
X117155764Y-70253555D01*
X117205716Y-70588175D01*
X117250667Y-70752677D01*
X117294895Y-70914535D01*
X117422047Y-71228058D01*
X117585388Y-71524341D01*
X117666149Y-71636896D01*
X117782621Y-71799222D01*
X117782634Y-71799238D01*
X118010985Y-72048850D01*
X118010991Y-72048856D01*
X118267274Y-72269720D01*
X118547871Y-72458716D01*
X118547876Y-72458719D01*
X118547882Y-72458723D01*
X118848875Y-72613212D01*
X119166028Y-72731017D01*
X119350632Y-72775626D01*
X119494874Y-72810482D01*
X119494875Y-72810482D01*
X119494887Y-72810485D01*
X119830837Y-72850500D01*
X119830841Y-72850500D01*
X120084503Y-72850500D01*
X120084504Y-72850500D01*
X120337731Y-72835472D01*
X120670721Y-72775626D01*
X120994295Y-72676816D01*
X121303912Y-72540429D01*
X121595224Y-72368380D01*
X121864143Y-72163085D01*
X122106894Y-71927424D01*
X122320068Y-71664707D01*
X122500674Y-71378620D01*
X122646176Y-71073181D01*
X122754531Y-70752677D01*
X122824219Y-70421607D01*
X122854261Y-70084618D01*
X122844235Y-69746442D01*
X122794283Y-69411825D01*
X122705105Y-69085465D01*
X122577953Y-68771942D01*
X122414612Y-68475659D01*
X122265907Y-68268412D01*
X122217378Y-68200777D01*
X122217365Y-68200761D01*
X121989014Y-67951149D01*
X121989008Y-67951143D01*
X121732725Y-67730279D01*
X121452128Y-67541283D01*
X121452113Y-67541274D01*
X121151129Y-67386790D01*
X121151120Y-67386786D01*
X120896759Y-67292305D01*
X120848794Y-67254318D01*
X120832316Y-67195394D01*
X120853621Y-67138037D01*
X120904570Y-67104157D01*
X120931231Y-67100500D01*
X139071757Y-67100500D01*
X139129948Y-67119407D01*
X139165912Y-67168907D01*
X139165912Y-67230093D01*
X139129948Y-67279593D01*
X139100671Y-67294184D01*
X139005700Y-67323185D01*
X138696085Y-67459571D01*
X138404779Y-67631617D01*
X138404778Y-67631618D01*
X138135854Y-67836916D01*
X137893104Y-68072577D01*
X137893101Y-68072580D01*
X137679934Y-68335290D01*
X137499324Y-68621381D01*
X137353827Y-68926812D01*
X137353822Y-68926822D01*
X137245467Y-69247328D01*
X137175782Y-69578382D01*
X137175781Y-69578389D01*
X137145739Y-69915371D01*
X137155764Y-70253555D01*
X137205716Y-70588175D01*
X137250667Y-70752677D01*
X137294895Y-70914535D01*
X137422047Y-71228058D01*
X137585388Y-71524341D01*
X137666149Y-71636896D01*
X137782621Y-71799222D01*
X137782634Y-71799238D01*
X138010985Y-72048850D01*
X138010991Y-72048856D01*
X138267274Y-72269720D01*
X138547871Y-72458716D01*
X138547876Y-72458719D01*
X138547882Y-72458723D01*
X138848875Y-72613212D01*
X139166028Y-72731017D01*
X139350632Y-72775626D01*
X139494874Y-72810482D01*
X139494875Y-72810482D01*
X139494887Y-72810485D01*
X139830837Y-72850500D01*
X139830841Y-72850500D01*
X140084503Y-72850500D01*
X140084504Y-72850500D01*
X140337731Y-72835472D01*
X140670721Y-72775626D01*
X140994295Y-72676816D01*
X141303912Y-72540429D01*
X141595224Y-72368380D01*
X141864143Y-72163085D01*
X142106894Y-71927424D01*
X142320068Y-71664707D01*
X142500674Y-71378620D01*
X142646176Y-71073181D01*
X142754531Y-70752677D01*
X142824219Y-70421607D01*
X142854261Y-70084618D01*
X142844235Y-69746442D01*
X142794283Y-69411825D01*
X142705105Y-69085465D01*
X142577953Y-68771942D01*
X142414612Y-68475659D01*
X142265907Y-68268412D01*
X142217378Y-68200777D01*
X142217365Y-68200761D01*
X141989014Y-67951149D01*
X141989008Y-67951143D01*
X141808898Y-67795925D01*
X145029500Y-67795925D01*
X145044927Y-67918053D01*
X145044928Y-67918056D01*
X145105432Y-68070870D01*
X145105434Y-68070874D01*
X145202037Y-68203837D01*
X145328674Y-68308600D01*
X145477387Y-68378579D01*
X145638823Y-68409375D01*
X145638828Y-68409376D01*
X145638829Y-68409375D01*
X145638830Y-68409376D01*
X145802860Y-68399056D01*
X145959171Y-68348268D01*
X146097940Y-68260202D01*
X146210448Y-68140393D01*
X146289627Y-67996368D01*
X146330500Y-67837177D01*
X146330500Y-67795925D01*
X153669500Y-67795925D01*
X153684927Y-67918053D01*
X153684928Y-67918056D01*
X153745432Y-68070870D01*
X153745434Y-68070874D01*
X153842037Y-68203837D01*
X153968674Y-68308600D01*
X154117387Y-68378579D01*
X154278823Y-68409375D01*
X154278828Y-68409376D01*
X154278829Y-68409375D01*
X154278830Y-68409376D01*
X154442860Y-68399056D01*
X154599171Y-68348268D01*
X154737940Y-68260202D01*
X154850448Y-68140393D01*
X154929627Y-67996368D01*
X154970500Y-67837177D01*
X154970500Y-66614075D01*
X154965448Y-66574081D01*
X154955072Y-66491946D01*
X154955071Y-66491943D01*
X154955071Y-66491942D01*
X154894568Y-66339129D01*
X154797963Y-66206163D01*
X154778340Y-66189929D01*
X154671325Y-66101399D01*
X154522612Y-66031420D01*
X154361176Y-66000624D01*
X154361171Y-66000623D01*
X154197142Y-66010943D01*
X154040826Y-66061732D01*
X153902060Y-66149797D01*
X153789551Y-66269606D01*
X153710373Y-66413630D01*
X153669500Y-66572820D01*
X153669500Y-67795925D01*
X146330500Y-67795925D01*
X146330500Y-66762921D01*
X146555619Y-66762921D01*
X146586406Y-66911079D01*
X146586406Y-66911081D01*
X146586407Y-66911084D01*
X146586408Y-66911085D01*
X146651723Y-67037137D01*
X146656030Y-67045448D01*
X146742502Y-67138037D01*
X146759320Y-67156044D01*
X146888618Y-67234672D01*
X147034335Y-67275500D01*
X147034336Y-67275500D01*
X147147652Y-67275500D01*
X147147658Y-67275500D01*
X147259920Y-67260070D01*
X147398720Y-67199780D01*
X147516108Y-67104278D01*
X147603377Y-66980647D01*
X147654054Y-66838056D01*
X147659193Y-66762921D01*
X152335619Y-66762921D01*
X152366406Y-66911079D01*
X152366406Y-66911081D01*
X152366407Y-66911084D01*
X152366408Y-66911085D01*
X152431723Y-67037137D01*
X152436030Y-67045448D01*
X152522502Y-67138037D01*
X152539320Y-67156044D01*
X152668618Y-67234672D01*
X152814335Y-67275500D01*
X152814336Y-67275500D01*
X152927652Y-67275500D01*
X152927658Y-67275500D01*
X153039920Y-67260070D01*
X153178720Y-67199780D01*
X153296108Y-67104278D01*
X153383377Y-66980647D01*
X153434054Y-66838056D01*
X153444381Y-66687079D01*
X153428767Y-66611943D01*
X153416235Y-66551635D01*
X153413592Y-66538915D01*
X153343971Y-66404553D01*
X153240680Y-66293956D01*
X153111382Y-66215328D01*
X153111381Y-66215327D01*
X153111380Y-66215327D01*
X152965665Y-66174500D01*
X152852342Y-66174500D01*
X152740079Y-66189929D01*
X152601281Y-66250219D01*
X152483889Y-66345724D01*
X152396623Y-66469352D01*
X152345945Y-66611943D01*
X152335619Y-66762921D01*
X147659193Y-66762921D01*
X147664381Y-66687079D01*
X147648767Y-66611943D01*
X147636235Y-66551635D01*
X147633592Y-66538915D01*
X147563971Y-66404553D01*
X147460680Y-66293956D01*
X147331382Y-66215328D01*
X147331381Y-66215327D01*
X147331380Y-66215327D01*
X147185665Y-66174500D01*
X147072342Y-66174500D01*
X146960079Y-66189929D01*
X146821281Y-66250219D01*
X146703889Y-66345724D01*
X146616623Y-66469352D01*
X146565945Y-66611943D01*
X146555619Y-66762921D01*
X146330500Y-66762921D01*
X146330500Y-66614075D01*
X146325448Y-66574081D01*
X146315072Y-66491946D01*
X146315071Y-66491943D01*
X146315071Y-66491942D01*
X146254568Y-66339129D01*
X146157963Y-66206163D01*
X146138340Y-66189929D01*
X146031325Y-66101399D01*
X145882612Y-66031420D01*
X145721176Y-66000624D01*
X145721171Y-66000623D01*
X145557142Y-66010943D01*
X145400826Y-66061732D01*
X145262060Y-66149797D01*
X145149551Y-66269606D01*
X145070373Y-66413630D01*
X145029500Y-66572820D01*
X145029500Y-67795925D01*
X141808898Y-67795925D01*
X141732725Y-67730279D01*
X141452128Y-67541283D01*
X141452113Y-67541274D01*
X141151129Y-67386790D01*
X141151120Y-67386786D01*
X140896759Y-67292305D01*
X140848794Y-67254318D01*
X140832316Y-67195394D01*
X140853621Y-67138037D01*
X140904570Y-67104157D01*
X140931231Y-67100500D01*
X142484836Y-67100500D01*
X142498511Y-67102732D01*
X142498683Y-67101506D01*
X142507764Y-67102772D01*
X142507765Y-67102773D01*
X142507765Y-67102772D01*
X142507766Y-67102773D01*
X142516507Y-67102368D01*
X142555793Y-67100552D01*
X142558070Y-67100500D01*
X142577841Y-67100500D01*
X142577844Y-67100500D01*
X142581337Y-67099846D01*
X142588141Y-67099056D01*
X142619992Y-67097585D01*
X142628976Y-67093617D01*
X142650777Y-67086865D01*
X142660433Y-67085061D01*
X142687543Y-67068274D01*
X142693589Y-67065088D01*
X142722765Y-67052206D01*
X142729709Y-67045260D01*
X142747601Y-67031089D01*
X142755952Y-67025919D01*
X142775165Y-67000474D01*
X142779662Y-66995308D01*
X144345475Y-65429496D01*
X144399992Y-65401719D01*
X144415479Y-65400500D01*
X155084521Y-65400500D01*
X155142712Y-65419407D01*
X155154525Y-65429496D01*
X156691436Y-66966407D01*
X156699537Y-66977647D01*
X156700516Y-66976909D01*
X156706044Y-66984230D01*
X156741569Y-67016616D01*
X156743223Y-67018195D01*
X156750947Y-67025918D01*
X156757203Y-67032174D01*
X156760128Y-67034178D01*
X156765505Y-67038437D01*
X156789064Y-67059914D01*
X156789065Y-67059914D01*
X156789067Y-67059916D01*
X156798230Y-67063466D01*
X156818416Y-67074105D01*
X156826519Y-67079656D01*
X156857553Y-67086955D01*
X156864090Y-67088979D01*
X156893827Y-67100500D01*
X156903652Y-67100500D01*
X156926316Y-67103129D01*
X156935881Y-67105379D01*
X156963645Y-67101506D01*
X156967453Y-67100975D01*
X156974299Y-67100500D01*
X159071757Y-67100500D01*
X159129948Y-67119407D01*
X159165912Y-67168907D01*
X159165912Y-67230093D01*
X159129948Y-67279593D01*
X159100671Y-67294184D01*
X159005700Y-67323185D01*
X158696085Y-67459571D01*
X158404779Y-67631617D01*
X158404778Y-67631618D01*
X158135854Y-67836916D01*
X157893104Y-68072577D01*
X157893101Y-68072580D01*
X157679934Y-68335290D01*
X157499324Y-68621381D01*
X157353827Y-68926812D01*
X157353822Y-68926822D01*
X157245467Y-69247328D01*
X157175782Y-69578382D01*
X157175781Y-69578389D01*
X157145739Y-69915371D01*
X157155764Y-70253555D01*
X157205716Y-70588175D01*
X157250667Y-70752677D01*
X157294895Y-70914535D01*
X157422047Y-71228058D01*
X157585388Y-71524341D01*
X157666149Y-71636896D01*
X157782621Y-71799222D01*
X157782634Y-71799238D01*
X158010985Y-72048850D01*
X158010991Y-72048856D01*
X158267274Y-72269720D01*
X158547871Y-72458716D01*
X158547876Y-72458719D01*
X158547882Y-72458723D01*
X158848875Y-72613212D01*
X159166028Y-72731017D01*
X159350632Y-72775626D01*
X159494874Y-72810482D01*
X159494875Y-72810482D01*
X159494887Y-72810485D01*
X159830837Y-72850500D01*
X159830841Y-72850500D01*
X160084503Y-72850500D01*
X160084504Y-72850500D01*
X160337731Y-72835472D01*
X160670721Y-72775626D01*
X160994295Y-72676816D01*
X161303912Y-72540429D01*
X161595224Y-72368380D01*
X161864143Y-72163085D01*
X162106894Y-71927424D01*
X162320068Y-71664707D01*
X162500674Y-71378620D01*
X162646176Y-71073181D01*
X162754531Y-70752677D01*
X162824219Y-70421607D01*
X162854261Y-70084618D01*
X162844235Y-69746442D01*
X162794283Y-69411825D01*
X162705105Y-69085465D01*
X162577953Y-68771942D01*
X162414612Y-68475659D01*
X162265907Y-68268412D01*
X162217378Y-68200777D01*
X162217365Y-68200761D01*
X161989014Y-67951149D01*
X161989008Y-67951143D01*
X161732725Y-67730279D01*
X161452128Y-67541283D01*
X161452113Y-67541274D01*
X161151129Y-67386790D01*
X161151120Y-67386786D01*
X160896759Y-67292305D01*
X160848794Y-67254318D01*
X160832316Y-67195394D01*
X160853621Y-67138037D01*
X160904570Y-67104157D01*
X160931231Y-67100500D01*
X179071757Y-67100500D01*
X179129948Y-67119407D01*
X179165912Y-67168907D01*
X179165912Y-67230093D01*
X179129948Y-67279593D01*
X179100671Y-67294184D01*
X179005700Y-67323185D01*
X178696085Y-67459571D01*
X178404779Y-67631617D01*
X178404778Y-67631618D01*
X178135854Y-67836916D01*
X177893104Y-68072577D01*
X177893101Y-68072580D01*
X177679934Y-68335290D01*
X177499324Y-68621381D01*
X177353827Y-68926812D01*
X177353822Y-68926822D01*
X177245467Y-69247328D01*
X177175782Y-69578382D01*
X177175781Y-69578389D01*
X177145739Y-69915371D01*
X177155764Y-70253555D01*
X177205716Y-70588175D01*
X177250667Y-70752677D01*
X177294895Y-70914535D01*
X177422047Y-71228058D01*
X177585388Y-71524341D01*
X177666149Y-71636896D01*
X177782621Y-71799222D01*
X177782634Y-71799238D01*
X178010985Y-72048850D01*
X178010991Y-72048856D01*
X178267274Y-72269720D01*
X178547871Y-72458716D01*
X178547876Y-72458719D01*
X178547882Y-72458723D01*
X178848875Y-72613212D01*
X179166028Y-72731017D01*
X179350632Y-72775626D01*
X179494874Y-72810482D01*
X179494875Y-72810482D01*
X179494887Y-72810485D01*
X179830837Y-72850500D01*
X179830841Y-72850500D01*
X180084503Y-72850500D01*
X180084504Y-72850500D01*
X180337731Y-72835472D01*
X180670721Y-72775626D01*
X180994295Y-72676816D01*
X181303912Y-72540429D01*
X181595224Y-72368380D01*
X181864143Y-72163085D01*
X182106894Y-71927424D01*
X182320068Y-71664707D01*
X182500674Y-71378620D01*
X182646176Y-71073181D01*
X182754531Y-70752677D01*
X182824219Y-70421607D01*
X182854261Y-70084618D01*
X182844235Y-69746442D01*
X182794283Y-69411825D01*
X182705105Y-69085465D01*
X182577953Y-68771942D01*
X182414612Y-68475659D01*
X182265907Y-68268412D01*
X182217378Y-68200777D01*
X182217365Y-68200761D01*
X181989014Y-67951149D01*
X181989008Y-67951143D01*
X181732725Y-67730279D01*
X181452128Y-67541283D01*
X181452113Y-67541274D01*
X181151129Y-67386790D01*
X181151120Y-67386786D01*
X180833969Y-67268982D01*
X180505125Y-67189517D01*
X180505109Y-67189514D01*
X180471973Y-67185567D01*
X180416427Y-67159909D01*
X180386572Y-67106502D01*
X180393809Y-67045746D01*
X180404680Y-67027602D01*
X180405949Y-67025920D01*
X180405952Y-67025919D01*
X180425163Y-67000477D01*
X180429663Y-66995307D01*
X181251611Y-66173359D01*
X182105791Y-65319178D01*
X182160306Y-65291403D01*
X182188714Y-65291031D01*
X182221384Y-65295332D01*
X182299999Y-65305682D01*
X182300000Y-65305682D01*
X182300001Y-65305682D01*
X182331352Y-65301554D01*
X182456762Y-65285044D01*
X182602841Y-65224536D01*
X182728282Y-65128282D01*
X182824536Y-65002841D01*
X182885044Y-64856762D01*
X182905682Y-64700000D01*
X182885044Y-64543238D01*
X182843828Y-64443733D01*
X182824537Y-64397161D01*
X182824537Y-64397160D01*
X182728286Y-64271723D01*
X182728285Y-64271722D01*
X182728282Y-64271718D01*
X182728277Y-64271714D01*
X182728276Y-64271713D01*
X182668788Y-64226067D01*
X184889535Y-64226067D01*
X184889535Y-74337558D01*
X184889536Y-74337558D01*
X186050101Y-74337558D01*
X186050102Y-74337558D01*
X186050102Y-64226067D01*
X184889535Y-64226067D01*
X182668788Y-64226067D01*
X182602838Y-64175462D01*
X182456766Y-64114957D01*
X182456758Y-64114955D01*
X182300001Y-64094318D01*
X182299999Y-64094318D01*
X182143241Y-64114955D01*
X182143233Y-64114957D01*
X181997161Y-64175462D01*
X181997160Y-64175462D01*
X181871723Y-64271713D01*
X181871713Y-64271723D01*
X181775462Y-64397160D01*
X181775462Y-64397161D01*
X181714957Y-64543233D01*
X181714955Y-64543241D01*
X181694318Y-64699999D01*
X181694318Y-64700000D01*
X181708968Y-64811281D01*
X181697818Y-64871442D01*
X181680819Y-64894207D01*
X180104525Y-66470504D01*
X180050008Y-66498281D01*
X180034521Y-66499500D01*
X179932033Y-66499500D01*
X179873842Y-66480593D01*
X179837878Y-66431093D01*
X179837878Y-66369907D01*
X179872370Y-66321497D01*
X179976920Y-66242546D01*
X180101837Y-66105519D01*
X180199448Y-65947872D01*
X180266429Y-65774973D01*
X180300500Y-65592710D01*
X180300500Y-65500000D01*
X180300500Y-65499500D01*
X180300500Y-64499901D01*
X180300500Y-64407290D01*
X180266429Y-64225027D01*
X180199448Y-64052128D01*
X180101837Y-63894481D01*
X179976920Y-63757454D01*
X179828952Y-63645714D01*
X179662971Y-63563065D01*
X179484629Y-63512322D01*
X179300000Y-63495214D01*
X179115371Y-63512322D01*
X178937029Y-63563065D01*
X178937028Y-63563065D01*
X178937026Y-63563066D01*
X178771055Y-63645710D01*
X178771046Y-63645715D01*
X178730455Y-63676368D01*
X178623080Y-63757454D01*
X178498163Y-63894481D01*
X178498161Y-63894483D01*
X178498160Y-63894485D01*
X178400555Y-64052122D01*
X178400552Y-64052127D01*
X178333570Y-64225029D01*
X178301718Y-64395423D01*
X178299500Y-64407290D01*
X178299500Y-64499901D01*
X178299500Y-65499500D01*
X178299500Y-65500000D01*
X178299500Y-65592710D01*
X178333571Y-65774973D01*
X178400552Y-65947872D01*
X178498163Y-66105519D01*
X178623080Y-66242546D01*
X178727629Y-66321497D01*
X178762671Y-66371653D01*
X178761540Y-66432827D01*
X178724668Y-66481654D01*
X178667967Y-66499500D01*
X159932033Y-66499500D01*
X159873842Y-66480593D01*
X159837878Y-66431093D01*
X159837878Y-66369907D01*
X159872370Y-66321497D01*
X159976920Y-66242546D01*
X160101837Y-66105519D01*
X160199448Y-65947872D01*
X160266429Y-65774973D01*
X160300500Y-65592710D01*
X160300500Y-65500000D01*
X160300500Y-65499500D01*
X160300500Y-64499901D01*
X160300500Y-64407290D01*
X160266429Y-64225027D01*
X160199448Y-64052128D01*
X160101837Y-63894481D01*
X159976920Y-63757454D01*
X159828952Y-63645714D01*
X159662971Y-63563065D01*
X159484629Y-63512322D01*
X159300000Y-63495214D01*
X159115371Y-63512322D01*
X158937029Y-63563065D01*
X158937028Y-63563065D01*
X158937026Y-63563066D01*
X158771055Y-63645710D01*
X158771046Y-63645715D01*
X158730455Y-63676368D01*
X158623080Y-63757454D01*
X158498163Y-63894481D01*
X158498161Y-63894483D01*
X158498160Y-63894485D01*
X158400555Y-64052122D01*
X158400552Y-64052127D01*
X158333570Y-64225029D01*
X158301718Y-64395423D01*
X158299500Y-64407290D01*
X158299500Y-64499901D01*
X158299500Y-65499500D01*
X158299500Y-65500000D01*
X158299500Y-65592710D01*
X158333571Y-65774973D01*
X158400552Y-65947872D01*
X158498163Y-66105519D01*
X158623080Y-66242546D01*
X158727629Y-66321497D01*
X158762671Y-66371653D01*
X158761540Y-66432827D01*
X158724668Y-66481654D01*
X158667967Y-66499500D01*
X157115479Y-66499500D01*
X157057288Y-66480593D01*
X157045475Y-66470504D01*
X156038460Y-65463489D01*
X156010683Y-65408972D01*
X156020254Y-65348540D01*
X156063519Y-65305275D01*
X156121384Y-65295332D01*
X156200000Y-65305682D01*
X156200001Y-65305682D01*
X156231352Y-65301554D01*
X156356762Y-65285044D01*
X156502841Y-65224536D01*
X156628282Y-65128282D01*
X156724536Y-65002841D01*
X156785044Y-64856762D01*
X156805682Y-64700000D01*
X156785044Y-64543238D01*
X156743828Y-64443733D01*
X156724537Y-64397161D01*
X156724537Y-64397160D01*
X156628286Y-64271723D01*
X156628285Y-64271722D01*
X156628282Y-64271718D01*
X156628277Y-64271714D01*
X156628276Y-64271713D01*
X156502838Y-64175462D01*
X156356766Y-64114957D01*
X156356758Y-64114955D01*
X156200001Y-64094318D01*
X156199999Y-64094318D01*
X156043241Y-64114955D01*
X156043233Y-64114957D01*
X155897161Y-64175462D01*
X155897160Y-64175462D01*
X155771723Y-64271713D01*
X155771713Y-64271723D01*
X155703388Y-64360767D01*
X155652963Y-64395423D01*
X155624846Y-64399500D01*
X143183882Y-64399500D01*
X143125691Y-64380593D01*
X143092418Y-64338386D01*
X143083287Y-64316342D01*
X143075548Y-64297659D01*
X142979294Y-64172218D01*
X142979289Y-64172214D01*
X142979288Y-64172213D01*
X142904670Y-64114957D01*
X142853853Y-64075964D01*
X142853852Y-64075963D01*
X142853850Y-64075962D01*
X142707778Y-64015457D01*
X142707770Y-64015455D01*
X142551013Y-63994818D01*
X142551011Y-63994818D01*
X142394253Y-64015455D01*
X142394245Y-64015457D01*
X142248173Y-64075962D01*
X142248172Y-64075962D01*
X142122735Y-64172213D01*
X142122725Y-64172223D01*
X142026474Y-64297660D01*
X142026474Y-64297661D01*
X141965969Y-64443733D01*
X141965967Y-64443741D01*
X141945330Y-64600499D01*
X141945330Y-64600500D01*
X141965967Y-64757258D01*
X141965969Y-64757266D01*
X142026474Y-64903338D01*
X142026474Y-64903339D01*
X142122725Y-65028776D01*
X142122730Y-65028782D01*
X142248171Y-65125036D01*
X142248172Y-65125036D01*
X142248173Y-65125037D01*
X142355526Y-65169504D01*
X142394250Y-65185544D01*
X142511821Y-65201022D01*
X142551011Y-65206182D01*
X142551012Y-65206182D01*
X142551013Y-65206182D01*
X142582364Y-65202054D01*
X142707774Y-65185544D01*
X142853853Y-65125036D01*
X142979294Y-65028782D01*
X142979293Y-65028782D01*
X142984442Y-65024832D01*
X142985366Y-65026037D01*
X143033096Y-65001719D01*
X143048583Y-65000500D01*
X143685521Y-65000500D01*
X143743712Y-65019407D01*
X143779676Y-65068907D01*
X143779676Y-65130093D01*
X143755525Y-65169504D01*
X142454525Y-66470504D01*
X142400008Y-66498281D01*
X142384521Y-66499500D01*
X139932033Y-66499500D01*
X139873842Y-66480593D01*
X139837878Y-66431093D01*
X139837878Y-66369907D01*
X139872370Y-66321497D01*
X139976920Y-66242546D01*
X140101837Y-66105519D01*
X140199448Y-65947872D01*
X140266429Y-65774973D01*
X140300500Y-65592710D01*
X140300500Y-65500000D01*
X140300500Y-65499500D01*
X140300500Y-64499901D01*
X140300500Y-64407290D01*
X140266429Y-64225027D01*
X140199448Y-64052128D01*
X140101837Y-63894481D01*
X139976920Y-63757454D01*
X139828952Y-63645714D01*
X139662971Y-63563065D01*
X139484629Y-63512322D01*
X139300000Y-63495214D01*
X139115371Y-63512322D01*
X138937029Y-63563065D01*
X138937028Y-63563065D01*
X138937026Y-63563066D01*
X138771055Y-63645710D01*
X138771046Y-63645715D01*
X138730455Y-63676368D01*
X138623080Y-63757454D01*
X138498163Y-63894481D01*
X138498161Y-63894483D01*
X138498160Y-63894485D01*
X138400555Y-64052122D01*
X138400552Y-64052127D01*
X138333570Y-64225029D01*
X138301718Y-64395423D01*
X138299500Y-64407290D01*
X138299500Y-64499901D01*
X138299500Y-65499500D01*
X138299500Y-65500000D01*
X138299500Y-65592710D01*
X138333571Y-65774973D01*
X138400552Y-65947872D01*
X138498163Y-66105519D01*
X138623080Y-66242546D01*
X138727629Y-66321497D01*
X138762671Y-66371653D01*
X138761540Y-66432827D01*
X138724668Y-66481654D01*
X138667967Y-66499500D01*
X119932033Y-66499500D01*
X119873842Y-66480593D01*
X119837878Y-66431093D01*
X119837878Y-66369907D01*
X119872370Y-66321497D01*
X119976920Y-66242546D01*
X120101837Y-66105519D01*
X120199448Y-65947872D01*
X120266429Y-65774973D01*
X120300500Y-65592710D01*
X120300500Y-65500000D01*
X120300500Y-65499500D01*
X120300500Y-64499901D01*
X120300500Y-64407290D01*
X120266429Y-64225027D01*
X120199448Y-64052128D01*
X120101837Y-63894481D01*
X119976920Y-63757454D01*
X119828952Y-63645714D01*
X119662971Y-63563065D01*
X119484629Y-63512322D01*
X119300000Y-63495214D01*
X119115371Y-63512322D01*
X118937029Y-63563065D01*
X118937028Y-63563065D01*
X118937026Y-63563066D01*
X118771055Y-63645710D01*
X118771046Y-63645715D01*
X118730455Y-63676368D01*
X118623080Y-63757454D01*
X118498163Y-63894481D01*
X118498161Y-63894483D01*
X118498160Y-63894485D01*
X118400555Y-64052122D01*
X118400552Y-64052127D01*
X118333570Y-64225029D01*
X118301718Y-64395423D01*
X118299500Y-64407290D01*
X118299500Y-64499901D01*
X118299500Y-65499500D01*
X118299500Y-65500000D01*
X118299500Y-65592710D01*
X118333571Y-65774973D01*
X118400552Y-65947872D01*
X118498163Y-66105519D01*
X118623080Y-66242546D01*
X118727629Y-66321497D01*
X118762671Y-66371653D01*
X118761540Y-66432827D01*
X118724668Y-66481654D01*
X118667967Y-66499500D01*
X115065165Y-66499500D01*
X115051489Y-66497267D01*
X115051318Y-66498494D01*
X115042234Y-66497226D01*
X115001887Y-66499092D01*
X114994207Y-66499447D01*
X114991931Y-66499500D01*
X114972153Y-66499500D01*
X114968658Y-66500153D01*
X114961845Y-66500943D01*
X114930011Y-66502414D01*
X114930007Y-66502415D01*
X114921013Y-66506386D01*
X114899228Y-66513132D01*
X114889571Y-66514937D01*
X114889565Y-66514940D01*
X114862465Y-66531718D01*
X114856396Y-66534917D01*
X114827238Y-66547792D01*
X114827231Y-66547796D01*
X114820286Y-66554742D01*
X114802406Y-66568905D01*
X114794048Y-66574080D01*
X114774839Y-66599515D01*
X114770335Y-66604692D01*
X113233590Y-68141437D01*
X113222361Y-68149550D01*
X113223090Y-68150515D01*
X113215771Y-68156041D01*
X113183372Y-68191580D01*
X113181796Y-68193231D01*
X113167830Y-68207198D01*
X113167817Y-68207213D01*
X113165813Y-68210138D01*
X113161561Y-68215504D01*
X113140084Y-68239065D01*
X113140083Y-68239067D01*
X113136529Y-68248240D01*
X113125896Y-68268412D01*
X113120346Y-68276515D01*
X113120342Y-68276524D01*
X113113045Y-68307545D01*
X113111016Y-68314098D01*
X113099500Y-68343824D01*
X113099500Y-68353651D01*
X113096870Y-68376318D01*
X113094621Y-68385879D01*
X112000500Y-68385879D01*
X112000500Y-64001619D01*
X112000606Y-63998381D01*
X112005991Y-63916208D01*
X112019040Y-63733779D01*
X112019866Y-63727651D01*
X112024892Y-63702382D01*
X112043155Y-63610567D01*
X112074685Y-63465625D01*
X112076163Y-63460302D01*
X112116813Y-63340551D01*
X112166385Y-63207643D01*
X112168348Y-63203098D01*
X112225583Y-63087036D01*
X112292453Y-62964574D01*
X112294713Y-62960841D01*
X112366742Y-62853044D01*
X112368216Y-62850959D01*
X112450555Y-62740968D01*
X112452932Y-62738034D01*
X112538765Y-62640160D01*
X112540942Y-62637837D01*
X112637844Y-62540934D01*
X112640159Y-62538766D01*
X112738034Y-62452932D01*
X112740973Y-62450551D01*
X112850959Y-62368216D01*
X112853044Y-62366742D01*
X112960841Y-62294713D01*
X112964574Y-62292453D01*
X113087036Y-62225583D01*
X113203098Y-62168348D01*
X113207643Y-62166385D01*
X113340551Y-62116813D01*
X113460302Y-62076163D01*
X113465625Y-62074685D01*
X113610567Y-62043155D01*
X113727651Y-62019865D01*
X113733779Y-62019040D01*
X113916208Y-62005991D01*
X113998384Y-62000605D01*
X114001619Y-62000500D01*
X145154703Y-62000500D01*
X145212894Y-62019407D01*
G37*
%TD.AperFunction*%
%TD*%
M02*
