%TF.GenerationSoftware,KiCad,Pcbnew,6.0.2+dfsg-1*%
%TF.CreationDate,2023-01-25T11:44:22-08:00*%
%TF.ProjectId,buttons,62757474-6f6e-4732-9e6b-696361645f70,rev?*%
%TF.SameCoordinates,Original*%
%TF.FileFunction,Soldermask,Bot*%
%TF.FilePolarity,Negative*%
%FSLAX46Y46*%
G04 Gerber Fmt 4.6, Leading zero omitted, Abs format (unit mm)*
G04 Created by KiCad (PCBNEW 6.0.2+dfsg-1) date 2023-01-25 11:44:22*
%MOMM*%
%LPD*%
G01*
G04 APERTURE LIST*
G04 Aperture macros list*
%AMRoundRect*
0 Rectangle with rounded corners*
0 $1 Rounding radius*
0 $2 $3 $4 $5 $6 $7 $8 $9 X,Y pos of 4 corners*
0 Add a 4 corners polygon primitive as box body*
4,1,4,$2,$3,$4,$5,$6,$7,$8,$9,$2,$3,0*
0 Add four circle primitives for the rounded corners*
1,1,$1+$1,$2,$3*
1,1,$1+$1,$4,$5*
1,1,$1+$1,$6,$7*
1,1,$1+$1,$8,$9*
0 Add four rect primitives between the rounded corners*
20,1,$1+$1,$2,$3,$4,$5,0*
20,1,$1+$1,$4,$5,$6,$7,0*
20,1,$1+$1,$6,$7,$8,$9,0*
20,1,$1+$1,$8,$9,$2,$3,0*%
G04 Aperture macros list end*
%ADD10C,3.500000*%
%ADD11O,1.700000X1.700000*%
%ADD12R,1.700000X1.700000*%
%ADD13RoundRect,0.250000X-0.600000X-0.725000X0.600000X-0.725000X0.600000X0.725000X-0.600000X0.725000X0*%
%ADD14O,1.700000X1.950000*%
G04 APERTURE END LIST*
D10*
%TO.C,H2*%
X251000000Y-59500000D03*
%TD*%
%TO.C,H3*%
X201000000Y-116500000D03*
%TD*%
%TO.C,H1*%
X201000000Y-59500000D03*
%TD*%
%TO.C,H4*%
X251000000Y-116500000D03*
%TD*%
D11*
%TO.C,U1*%
X181870000Y-66610000D03*
X184410000Y-66610000D03*
D12*
X186950000Y-66610000D03*
D11*
X189490000Y-66610000D03*
X192030000Y-66610000D03*
X194570000Y-66610000D03*
X197110000Y-66610000D03*
D12*
X199650000Y-66610000D03*
D11*
X202190000Y-66610000D03*
X204730000Y-66610000D03*
X207270000Y-66610000D03*
X209810000Y-66610000D03*
D12*
X212350000Y-66610000D03*
D11*
X214890000Y-66610000D03*
X217430000Y-66610000D03*
X219970000Y-66610000D03*
X222510000Y-66610000D03*
D12*
X225050000Y-66610000D03*
D11*
X227590000Y-66610000D03*
X230130000Y-66610000D03*
X230130000Y-84390000D03*
X227590000Y-84390000D03*
D12*
X225050000Y-84390000D03*
D11*
X222510000Y-84390000D03*
X219970000Y-84390000D03*
X217430000Y-84390000D03*
X214890000Y-84390000D03*
D12*
X212350000Y-84390000D03*
D11*
X209810000Y-84390000D03*
X207270000Y-84390000D03*
X204730000Y-84390000D03*
X202190000Y-84390000D03*
D12*
X199650000Y-84390000D03*
D11*
X197110000Y-84390000D03*
X194570000Y-84390000D03*
X192030000Y-84390000D03*
X189490000Y-84390000D03*
D12*
X186950000Y-84390000D03*
D11*
X184410000Y-84390000D03*
X181870000Y-84390000D03*
%TD*%
D13*
%TO.C,J1*%
X234750000Y-44467500D03*
D14*
X237250000Y-44467500D03*
X239750000Y-44467500D03*
X242250000Y-44467500D03*
%TD*%
M02*
