%TF.GenerationSoftware,KiCad,Pcbnew,7.0.8-7.0.8~ubuntu22.04.1*%
%TF.CreationDate,2023-10-30T19:30:09-07:00*%
%TF.ProjectId,buttons,62757474-6f6e-4732-9e6b-696361645f70,rev?*%
%TF.SameCoordinates,Original*%
%TF.FileFunction,Legend,Top*%
%TF.FilePolarity,Positive*%
%FSLAX46Y46*%
G04 Gerber Fmt 4.6, Leading zero omitted, Abs format (unit mm)*
G04 Created by KiCad (PCBNEW 7.0.8-7.0.8~ubuntu22.04.1) date 2023-10-30 19:30:09*
%MOMM*%
%LPD*%
G01*
G04 APERTURE LIST*
%ADD10C,0.100000*%
%ADD11C,0.120000*%
G04 APERTURE END LIST*
D10*
X118933332Y-118792800D02*
X119047618Y-118830895D01*
X119047618Y-118830895D02*
X119238094Y-118830895D01*
X119238094Y-118830895D02*
X119314285Y-118792800D01*
X119314285Y-118792800D02*
X119352380Y-118754704D01*
X119352380Y-118754704D02*
X119390475Y-118678514D01*
X119390475Y-118678514D02*
X119390475Y-118602323D01*
X119390475Y-118602323D02*
X119352380Y-118526133D01*
X119352380Y-118526133D02*
X119314285Y-118488038D01*
X119314285Y-118488038D02*
X119238094Y-118449942D01*
X119238094Y-118449942D02*
X119085713Y-118411847D01*
X119085713Y-118411847D02*
X119009523Y-118373752D01*
X119009523Y-118373752D02*
X118971428Y-118335657D01*
X118971428Y-118335657D02*
X118933332Y-118259466D01*
X118933332Y-118259466D02*
X118933332Y-118183276D01*
X118933332Y-118183276D02*
X118971428Y-118107085D01*
X118971428Y-118107085D02*
X119009523Y-118068990D01*
X119009523Y-118068990D02*
X119085713Y-118030895D01*
X119085713Y-118030895D02*
X119276190Y-118030895D01*
X119276190Y-118030895D02*
X119390475Y-118068990D01*
X119657142Y-118030895D02*
X119847618Y-118830895D01*
X119847618Y-118830895D02*
X119999999Y-118259466D01*
X119999999Y-118259466D02*
X120152380Y-118830895D01*
X120152380Y-118830895D02*
X120342857Y-118030895D01*
X120685714Y-118830895D02*
X120838095Y-118830895D01*
X120838095Y-118830895D02*
X120914285Y-118792800D01*
X120914285Y-118792800D02*
X120952381Y-118754704D01*
X120952381Y-118754704D02*
X121028571Y-118640419D01*
X121028571Y-118640419D02*
X121066666Y-118488038D01*
X121066666Y-118488038D02*
X121066666Y-118183276D01*
X121066666Y-118183276D02*
X121028571Y-118107085D01*
X121028571Y-118107085D02*
X120990476Y-118068990D01*
X120990476Y-118068990D02*
X120914285Y-118030895D01*
X120914285Y-118030895D02*
X120761904Y-118030895D01*
X120761904Y-118030895D02*
X120685714Y-118068990D01*
X120685714Y-118068990D02*
X120647619Y-118107085D01*
X120647619Y-118107085D02*
X120609523Y-118183276D01*
X120609523Y-118183276D02*
X120609523Y-118373752D01*
X120609523Y-118373752D02*
X120647619Y-118449942D01*
X120647619Y-118449942D02*
X120685714Y-118488038D01*
X120685714Y-118488038D02*
X120761904Y-118526133D01*
X120761904Y-118526133D02*
X120914285Y-118526133D01*
X120914285Y-118526133D02*
X120990476Y-118488038D01*
X120990476Y-118488038D02*
X121028571Y-118449942D01*
X121028571Y-118449942D02*
X121066666Y-118373752D01*
X158652380Y-122126800D02*
X158766666Y-122164895D01*
X158766666Y-122164895D02*
X158957142Y-122164895D01*
X158957142Y-122164895D02*
X159033333Y-122126800D01*
X159033333Y-122126800D02*
X159071428Y-122088704D01*
X159071428Y-122088704D02*
X159109523Y-122012514D01*
X159109523Y-122012514D02*
X159109523Y-121936323D01*
X159109523Y-121936323D02*
X159071428Y-121860133D01*
X159071428Y-121860133D02*
X159033333Y-121822038D01*
X159033333Y-121822038D02*
X158957142Y-121783942D01*
X158957142Y-121783942D02*
X158804761Y-121745847D01*
X158804761Y-121745847D02*
X158728571Y-121707752D01*
X158728571Y-121707752D02*
X158690476Y-121669657D01*
X158690476Y-121669657D02*
X158652380Y-121593466D01*
X158652380Y-121593466D02*
X158652380Y-121517276D01*
X158652380Y-121517276D02*
X158690476Y-121441085D01*
X158690476Y-121441085D02*
X158728571Y-121402990D01*
X158728571Y-121402990D02*
X158804761Y-121364895D01*
X158804761Y-121364895D02*
X158995238Y-121364895D01*
X158995238Y-121364895D02*
X159109523Y-121402990D01*
X159376190Y-121364895D02*
X159566666Y-122164895D01*
X159566666Y-122164895D02*
X159719047Y-121593466D01*
X159719047Y-121593466D02*
X159871428Y-122164895D01*
X159871428Y-122164895D02*
X160061905Y-121364895D01*
X160785714Y-122164895D02*
X160328571Y-122164895D01*
X160557143Y-122164895D02*
X160557143Y-121364895D01*
X160557143Y-121364895D02*
X160480952Y-121479180D01*
X160480952Y-121479180D02*
X160404762Y-121555371D01*
X160404762Y-121555371D02*
X160328571Y-121593466D01*
X161509524Y-121364895D02*
X161128572Y-121364895D01*
X161128572Y-121364895D02*
X161090476Y-121745847D01*
X161090476Y-121745847D02*
X161128572Y-121707752D01*
X161128572Y-121707752D02*
X161204762Y-121669657D01*
X161204762Y-121669657D02*
X161395238Y-121669657D01*
X161395238Y-121669657D02*
X161471429Y-121707752D01*
X161471429Y-121707752D02*
X161509524Y-121745847D01*
X161509524Y-121745847D02*
X161547619Y-121822038D01*
X161547619Y-121822038D02*
X161547619Y-122012514D01*
X161547619Y-122012514D02*
X161509524Y-122088704D01*
X161509524Y-122088704D02*
X161471429Y-122126800D01*
X161471429Y-122126800D02*
X161395238Y-122164895D01*
X161395238Y-122164895D02*
X161204762Y-122164895D01*
X161204762Y-122164895D02*
X161128572Y-122126800D01*
X161128572Y-122126800D02*
X161090476Y-122088704D01*
X138933332Y-98516800D02*
X139047618Y-98554895D01*
X139047618Y-98554895D02*
X139238094Y-98554895D01*
X139238094Y-98554895D02*
X139314285Y-98516800D01*
X139314285Y-98516800D02*
X139352380Y-98478704D01*
X139352380Y-98478704D02*
X139390475Y-98402514D01*
X139390475Y-98402514D02*
X139390475Y-98326323D01*
X139390475Y-98326323D02*
X139352380Y-98250133D01*
X139352380Y-98250133D02*
X139314285Y-98212038D01*
X139314285Y-98212038D02*
X139238094Y-98173942D01*
X139238094Y-98173942D02*
X139085713Y-98135847D01*
X139085713Y-98135847D02*
X139009523Y-98097752D01*
X139009523Y-98097752D02*
X138971428Y-98059657D01*
X138971428Y-98059657D02*
X138933332Y-97983466D01*
X138933332Y-97983466D02*
X138933332Y-97907276D01*
X138933332Y-97907276D02*
X138971428Y-97831085D01*
X138971428Y-97831085D02*
X139009523Y-97792990D01*
X139009523Y-97792990D02*
X139085713Y-97754895D01*
X139085713Y-97754895D02*
X139276190Y-97754895D01*
X139276190Y-97754895D02*
X139390475Y-97792990D01*
X139657142Y-97754895D02*
X139847618Y-98554895D01*
X139847618Y-98554895D02*
X139999999Y-97983466D01*
X139999999Y-97983466D02*
X140152380Y-98554895D01*
X140152380Y-98554895D02*
X140342857Y-97754895D01*
X140990476Y-97754895D02*
X140838095Y-97754895D01*
X140838095Y-97754895D02*
X140761904Y-97792990D01*
X140761904Y-97792990D02*
X140723809Y-97831085D01*
X140723809Y-97831085D02*
X140647619Y-97945371D01*
X140647619Y-97945371D02*
X140609523Y-98097752D01*
X140609523Y-98097752D02*
X140609523Y-98402514D01*
X140609523Y-98402514D02*
X140647619Y-98478704D01*
X140647619Y-98478704D02*
X140685714Y-98516800D01*
X140685714Y-98516800D02*
X140761904Y-98554895D01*
X140761904Y-98554895D02*
X140914285Y-98554895D01*
X140914285Y-98554895D02*
X140990476Y-98516800D01*
X140990476Y-98516800D02*
X141028571Y-98478704D01*
X141028571Y-98478704D02*
X141066666Y-98402514D01*
X141066666Y-98402514D02*
X141066666Y-98212038D01*
X141066666Y-98212038D02*
X141028571Y-98135847D01*
X141028571Y-98135847D02*
X140990476Y-98097752D01*
X140990476Y-98097752D02*
X140914285Y-98059657D01*
X140914285Y-98059657D02*
X140761904Y-98059657D01*
X140761904Y-98059657D02*
X140685714Y-98097752D01*
X140685714Y-98097752D02*
X140647619Y-98135847D01*
X140647619Y-98135847D02*
X140609523Y-98212038D01*
X118933332Y-99326800D02*
X119047618Y-99364895D01*
X119047618Y-99364895D02*
X119238094Y-99364895D01*
X119238094Y-99364895D02*
X119314285Y-99326800D01*
X119314285Y-99326800D02*
X119352380Y-99288704D01*
X119352380Y-99288704D02*
X119390475Y-99212514D01*
X119390475Y-99212514D02*
X119390475Y-99136323D01*
X119390475Y-99136323D02*
X119352380Y-99060133D01*
X119352380Y-99060133D02*
X119314285Y-99022038D01*
X119314285Y-99022038D02*
X119238094Y-98983942D01*
X119238094Y-98983942D02*
X119085713Y-98945847D01*
X119085713Y-98945847D02*
X119009523Y-98907752D01*
X119009523Y-98907752D02*
X118971428Y-98869657D01*
X118971428Y-98869657D02*
X118933332Y-98793466D01*
X118933332Y-98793466D02*
X118933332Y-98717276D01*
X118933332Y-98717276D02*
X118971428Y-98641085D01*
X118971428Y-98641085D02*
X119009523Y-98602990D01*
X119009523Y-98602990D02*
X119085713Y-98564895D01*
X119085713Y-98564895D02*
X119276190Y-98564895D01*
X119276190Y-98564895D02*
X119390475Y-98602990D01*
X119657142Y-98564895D02*
X119847618Y-99364895D01*
X119847618Y-99364895D02*
X119999999Y-98793466D01*
X119999999Y-98793466D02*
X120152380Y-99364895D01*
X120152380Y-99364895D02*
X120342857Y-98564895D01*
X121028571Y-98564895D02*
X120647619Y-98564895D01*
X120647619Y-98564895D02*
X120609523Y-98945847D01*
X120609523Y-98945847D02*
X120647619Y-98907752D01*
X120647619Y-98907752D02*
X120723809Y-98869657D01*
X120723809Y-98869657D02*
X120914285Y-98869657D01*
X120914285Y-98869657D02*
X120990476Y-98907752D01*
X120990476Y-98907752D02*
X121028571Y-98945847D01*
X121028571Y-98945847D02*
X121066666Y-99022038D01*
X121066666Y-99022038D02*
X121066666Y-99212514D01*
X121066666Y-99212514D02*
X121028571Y-99288704D01*
X121028571Y-99288704D02*
X120990476Y-99326800D01*
X120990476Y-99326800D02*
X120914285Y-99364895D01*
X120914285Y-99364895D02*
X120723809Y-99364895D01*
X120723809Y-99364895D02*
X120647619Y-99326800D01*
X120647619Y-99326800D02*
X120609523Y-99288704D01*
X118933332Y-78408800D02*
X119047618Y-78446895D01*
X119047618Y-78446895D02*
X119238094Y-78446895D01*
X119238094Y-78446895D02*
X119314285Y-78408800D01*
X119314285Y-78408800D02*
X119352380Y-78370704D01*
X119352380Y-78370704D02*
X119390475Y-78294514D01*
X119390475Y-78294514D02*
X119390475Y-78218323D01*
X119390475Y-78218323D02*
X119352380Y-78142133D01*
X119352380Y-78142133D02*
X119314285Y-78104038D01*
X119314285Y-78104038D02*
X119238094Y-78065942D01*
X119238094Y-78065942D02*
X119085713Y-78027847D01*
X119085713Y-78027847D02*
X119009523Y-77989752D01*
X119009523Y-77989752D02*
X118971428Y-77951657D01*
X118971428Y-77951657D02*
X118933332Y-77875466D01*
X118933332Y-77875466D02*
X118933332Y-77799276D01*
X118933332Y-77799276D02*
X118971428Y-77723085D01*
X118971428Y-77723085D02*
X119009523Y-77684990D01*
X119009523Y-77684990D02*
X119085713Y-77646895D01*
X119085713Y-77646895D02*
X119276190Y-77646895D01*
X119276190Y-77646895D02*
X119390475Y-77684990D01*
X119657142Y-77646895D02*
X119847618Y-78446895D01*
X119847618Y-78446895D02*
X119999999Y-77875466D01*
X119999999Y-77875466D02*
X120152380Y-78446895D01*
X120152380Y-78446895D02*
X120342857Y-77646895D01*
X121066666Y-78446895D02*
X120609523Y-78446895D01*
X120838095Y-78446895D02*
X120838095Y-77646895D01*
X120838095Y-77646895D02*
X120761904Y-77761180D01*
X120761904Y-77761180D02*
X120685714Y-77837371D01*
X120685714Y-77837371D02*
X120609523Y-77875466D01*
X158933332Y-98516800D02*
X159047618Y-98554895D01*
X159047618Y-98554895D02*
X159238094Y-98554895D01*
X159238094Y-98554895D02*
X159314285Y-98516800D01*
X159314285Y-98516800D02*
X159352380Y-98478704D01*
X159352380Y-98478704D02*
X159390475Y-98402514D01*
X159390475Y-98402514D02*
X159390475Y-98326323D01*
X159390475Y-98326323D02*
X159352380Y-98250133D01*
X159352380Y-98250133D02*
X159314285Y-98212038D01*
X159314285Y-98212038D02*
X159238094Y-98173942D01*
X159238094Y-98173942D02*
X159085713Y-98135847D01*
X159085713Y-98135847D02*
X159009523Y-98097752D01*
X159009523Y-98097752D02*
X158971428Y-98059657D01*
X158971428Y-98059657D02*
X158933332Y-97983466D01*
X158933332Y-97983466D02*
X158933332Y-97907276D01*
X158933332Y-97907276D02*
X158971428Y-97831085D01*
X158971428Y-97831085D02*
X159009523Y-97792990D01*
X159009523Y-97792990D02*
X159085713Y-97754895D01*
X159085713Y-97754895D02*
X159276190Y-97754895D01*
X159276190Y-97754895D02*
X159390475Y-97792990D01*
X159657142Y-97754895D02*
X159847618Y-98554895D01*
X159847618Y-98554895D02*
X159999999Y-97983466D01*
X159999999Y-97983466D02*
X160152380Y-98554895D01*
X160152380Y-98554895D02*
X160342857Y-97754895D01*
X160571428Y-97754895D02*
X161104762Y-97754895D01*
X161104762Y-97754895D02*
X160761904Y-98554895D01*
X138552380Y-122226800D02*
X138666666Y-122264895D01*
X138666666Y-122264895D02*
X138857142Y-122264895D01*
X138857142Y-122264895D02*
X138933333Y-122226800D01*
X138933333Y-122226800D02*
X138971428Y-122188704D01*
X138971428Y-122188704D02*
X139009523Y-122112514D01*
X139009523Y-122112514D02*
X139009523Y-122036323D01*
X139009523Y-122036323D02*
X138971428Y-121960133D01*
X138971428Y-121960133D02*
X138933333Y-121922038D01*
X138933333Y-121922038D02*
X138857142Y-121883942D01*
X138857142Y-121883942D02*
X138704761Y-121845847D01*
X138704761Y-121845847D02*
X138628571Y-121807752D01*
X138628571Y-121807752D02*
X138590476Y-121769657D01*
X138590476Y-121769657D02*
X138552380Y-121693466D01*
X138552380Y-121693466D02*
X138552380Y-121617276D01*
X138552380Y-121617276D02*
X138590476Y-121541085D01*
X138590476Y-121541085D02*
X138628571Y-121502990D01*
X138628571Y-121502990D02*
X138704761Y-121464895D01*
X138704761Y-121464895D02*
X138895238Y-121464895D01*
X138895238Y-121464895D02*
X139009523Y-121502990D01*
X139276190Y-121464895D02*
X139466666Y-122264895D01*
X139466666Y-122264895D02*
X139619047Y-121693466D01*
X139619047Y-121693466D02*
X139771428Y-122264895D01*
X139771428Y-122264895D02*
X139961905Y-121464895D01*
X140685714Y-122264895D02*
X140228571Y-122264895D01*
X140457143Y-122264895D02*
X140457143Y-121464895D01*
X140457143Y-121464895D02*
X140380952Y-121579180D01*
X140380952Y-121579180D02*
X140304762Y-121655371D01*
X140304762Y-121655371D02*
X140228571Y-121693466D01*
X141371429Y-121731561D02*
X141371429Y-122264895D01*
X141180953Y-121426800D02*
X140990476Y-121998228D01*
X140990476Y-121998228D02*
X141485715Y-121998228D01*
X178552380Y-118624800D02*
X178666666Y-118662895D01*
X178666666Y-118662895D02*
X178857142Y-118662895D01*
X178857142Y-118662895D02*
X178933333Y-118624800D01*
X178933333Y-118624800D02*
X178971428Y-118586704D01*
X178971428Y-118586704D02*
X179009523Y-118510514D01*
X179009523Y-118510514D02*
X179009523Y-118434323D01*
X179009523Y-118434323D02*
X178971428Y-118358133D01*
X178971428Y-118358133D02*
X178933333Y-118320038D01*
X178933333Y-118320038D02*
X178857142Y-118281942D01*
X178857142Y-118281942D02*
X178704761Y-118243847D01*
X178704761Y-118243847D02*
X178628571Y-118205752D01*
X178628571Y-118205752D02*
X178590476Y-118167657D01*
X178590476Y-118167657D02*
X178552380Y-118091466D01*
X178552380Y-118091466D02*
X178552380Y-118015276D01*
X178552380Y-118015276D02*
X178590476Y-117939085D01*
X178590476Y-117939085D02*
X178628571Y-117900990D01*
X178628571Y-117900990D02*
X178704761Y-117862895D01*
X178704761Y-117862895D02*
X178895238Y-117862895D01*
X178895238Y-117862895D02*
X179009523Y-117900990D01*
X179276190Y-117862895D02*
X179466666Y-118662895D01*
X179466666Y-118662895D02*
X179619047Y-118091466D01*
X179619047Y-118091466D02*
X179771428Y-118662895D01*
X179771428Y-118662895D02*
X179961905Y-117862895D01*
X180685714Y-118662895D02*
X180228571Y-118662895D01*
X180457143Y-118662895D02*
X180457143Y-117862895D01*
X180457143Y-117862895D02*
X180380952Y-117977180D01*
X180380952Y-117977180D02*
X180304762Y-118053371D01*
X180304762Y-118053371D02*
X180228571Y-118091466D01*
X180990476Y-117939085D02*
X181028572Y-117900990D01*
X181028572Y-117900990D02*
X181104762Y-117862895D01*
X181104762Y-117862895D02*
X181295238Y-117862895D01*
X181295238Y-117862895D02*
X181371429Y-117900990D01*
X181371429Y-117900990D02*
X181409524Y-117939085D01*
X181409524Y-117939085D02*
X181447619Y-118015276D01*
X181447619Y-118015276D02*
X181447619Y-118091466D01*
X181447619Y-118091466D02*
X181409524Y-118205752D01*
X181409524Y-118205752D02*
X180952381Y-118662895D01*
X180952381Y-118662895D02*
X181447619Y-118662895D01*
X178933332Y-98516800D02*
X179047618Y-98554895D01*
X179047618Y-98554895D02*
X179238094Y-98554895D01*
X179238094Y-98554895D02*
X179314285Y-98516800D01*
X179314285Y-98516800D02*
X179352380Y-98478704D01*
X179352380Y-98478704D02*
X179390475Y-98402514D01*
X179390475Y-98402514D02*
X179390475Y-98326323D01*
X179390475Y-98326323D02*
X179352380Y-98250133D01*
X179352380Y-98250133D02*
X179314285Y-98212038D01*
X179314285Y-98212038D02*
X179238094Y-98173942D01*
X179238094Y-98173942D02*
X179085713Y-98135847D01*
X179085713Y-98135847D02*
X179009523Y-98097752D01*
X179009523Y-98097752D02*
X178971428Y-98059657D01*
X178971428Y-98059657D02*
X178933332Y-97983466D01*
X178933332Y-97983466D02*
X178933332Y-97907276D01*
X178933332Y-97907276D02*
X178971428Y-97831085D01*
X178971428Y-97831085D02*
X179009523Y-97792990D01*
X179009523Y-97792990D02*
X179085713Y-97754895D01*
X179085713Y-97754895D02*
X179276190Y-97754895D01*
X179276190Y-97754895D02*
X179390475Y-97792990D01*
X179657142Y-97754895D02*
X179847618Y-98554895D01*
X179847618Y-98554895D02*
X179999999Y-97983466D01*
X179999999Y-97983466D02*
X180152380Y-98554895D01*
X180152380Y-98554895D02*
X180342857Y-97754895D01*
X180761904Y-98097752D02*
X180685714Y-98059657D01*
X180685714Y-98059657D02*
X180647619Y-98021561D01*
X180647619Y-98021561D02*
X180609523Y-97945371D01*
X180609523Y-97945371D02*
X180609523Y-97907276D01*
X180609523Y-97907276D02*
X180647619Y-97831085D01*
X180647619Y-97831085D02*
X180685714Y-97792990D01*
X180685714Y-97792990D02*
X180761904Y-97754895D01*
X180761904Y-97754895D02*
X180914285Y-97754895D01*
X180914285Y-97754895D02*
X180990476Y-97792990D01*
X180990476Y-97792990D02*
X181028571Y-97831085D01*
X181028571Y-97831085D02*
X181066666Y-97907276D01*
X181066666Y-97907276D02*
X181066666Y-97945371D01*
X181066666Y-97945371D02*
X181028571Y-98021561D01*
X181028571Y-98021561D02*
X180990476Y-98059657D01*
X180990476Y-98059657D02*
X180914285Y-98097752D01*
X180914285Y-98097752D02*
X180761904Y-98097752D01*
X180761904Y-98097752D02*
X180685714Y-98135847D01*
X180685714Y-98135847D02*
X180647619Y-98173942D01*
X180647619Y-98173942D02*
X180609523Y-98250133D01*
X180609523Y-98250133D02*
X180609523Y-98402514D01*
X180609523Y-98402514D02*
X180647619Y-98478704D01*
X180647619Y-98478704D02*
X180685714Y-98516800D01*
X180685714Y-98516800D02*
X180761904Y-98554895D01*
X180761904Y-98554895D02*
X180914285Y-98554895D01*
X180914285Y-98554895D02*
X180990476Y-98516800D01*
X180990476Y-98516800D02*
X181028571Y-98478704D01*
X181028571Y-98478704D02*
X181066666Y-98402514D01*
X181066666Y-98402514D02*
X181066666Y-98250133D01*
X181066666Y-98250133D02*
X181028571Y-98173942D01*
X181028571Y-98173942D02*
X180990476Y-98135847D01*
X180990476Y-98135847D02*
X180914285Y-98097752D01*
X158552380Y-118624800D02*
X158666666Y-118662895D01*
X158666666Y-118662895D02*
X158857142Y-118662895D01*
X158857142Y-118662895D02*
X158933333Y-118624800D01*
X158933333Y-118624800D02*
X158971428Y-118586704D01*
X158971428Y-118586704D02*
X159009523Y-118510514D01*
X159009523Y-118510514D02*
X159009523Y-118434323D01*
X159009523Y-118434323D02*
X158971428Y-118358133D01*
X158971428Y-118358133D02*
X158933333Y-118320038D01*
X158933333Y-118320038D02*
X158857142Y-118281942D01*
X158857142Y-118281942D02*
X158704761Y-118243847D01*
X158704761Y-118243847D02*
X158628571Y-118205752D01*
X158628571Y-118205752D02*
X158590476Y-118167657D01*
X158590476Y-118167657D02*
X158552380Y-118091466D01*
X158552380Y-118091466D02*
X158552380Y-118015276D01*
X158552380Y-118015276D02*
X158590476Y-117939085D01*
X158590476Y-117939085D02*
X158628571Y-117900990D01*
X158628571Y-117900990D02*
X158704761Y-117862895D01*
X158704761Y-117862895D02*
X158895238Y-117862895D01*
X158895238Y-117862895D02*
X159009523Y-117900990D01*
X159276190Y-117862895D02*
X159466666Y-118662895D01*
X159466666Y-118662895D02*
X159619047Y-118091466D01*
X159619047Y-118091466D02*
X159771428Y-118662895D01*
X159771428Y-118662895D02*
X159961905Y-117862895D01*
X160685714Y-118662895D02*
X160228571Y-118662895D01*
X160457143Y-118662895D02*
X160457143Y-117862895D01*
X160457143Y-117862895D02*
X160380952Y-117977180D01*
X160380952Y-117977180D02*
X160304762Y-118053371D01*
X160304762Y-118053371D02*
X160228571Y-118091466D01*
X161447619Y-118662895D02*
X160990476Y-118662895D01*
X161219048Y-118662895D02*
X161219048Y-117862895D01*
X161219048Y-117862895D02*
X161142857Y-117977180D01*
X161142857Y-117977180D02*
X161066667Y-118053371D01*
X161066667Y-118053371D02*
X160990476Y-118091466D01*
X178552380Y-122126800D02*
X178666666Y-122164895D01*
X178666666Y-122164895D02*
X178857142Y-122164895D01*
X178857142Y-122164895D02*
X178933333Y-122126800D01*
X178933333Y-122126800D02*
X178971428Y-122088704D01*
X178971428Y-122088704D02*
X179009523Y-122012514D01*
X179009523Y-122012514D02*
X179009523Y-121936323D01*
X179009523Y-121936323D02*
X178971428Y-121860133D01*
X178971428Y-121860133D02*
X178933333Y-121822038D01*
X178933333Y-121822038D02*
X178857142Y-121783942D01*
X178857142Y-121783942D02*
X178704761Y-121745847D01*
X178704761Y-121745847D02*
X178628571Y-121707752D01*
X178628571Y-121707752D02*
X178590476Y-121669657D01*
X178590476Y-121669657D02*
X178552380Y-121593466D01*
X178552380Y-121593466D02*
X178552380Y-121517276D01*
X178552380Y-121517276D02*
X178590476Y-121441085D01*
X178590476Y-121441085D02*
X178628571Y-121402990D01*
X178628571Y-121402990D02*
X178704761Y-121364895D01*
X178704761Y-121364895D02*
X178895238Y-121364895D01*
X178895238Y-121364895D02*
X179009523Y-121402990D01*
X179276190Y-121364895D02*
X179466666Y-122164895D01*
X179466666Y-122164895D02*
X179619047Y-121593466D01*
X179619047Y-121593466D02*
X179771428Y-122164895D01*
X179771428Y-122164895D02*
X179961905Y-121364895D01*
X180685714Y-122164895D02*
X180228571Y-122164895D01*
X180457143Y-122164895D02*
X180457143Y-121364895D01*
X180457143Y-121364895D02*
X180380952Y-121479180D01*
X180380952Y-121479180D02*
X180304762Y-121555371D01*
X180304762Y-121555371D02*
X180228571Y-121593466D01*
X181371429Y-121364895D02*
X181219048Y-121364895D01*
X181219048Y-121364895D02*
X181142857Y-121402990D01*
X181142857Y-121402990D02*
X181104762Y-121441085D01*
X181104762Y-121441085D02*
X181028572Y-121555371D01*
X181028572Y-121555371D02*
X180990476Y-121707752D01*
X180990476Y-121707752D02*
X180990476Y-122012514D01*
X180990476Y-122012514D02*
X181028572Y-122088704D01*
X181028572Y-122088704D02*
X181066667Y-122126800D01*
X181066667Y-122126800D02*
X181142857Y-122164895D01*
X181142857Y-122164895D02*
X181295238Y-122164895D01*
X181295238Y-122164895D02*
X181371429Y-122126800D01*
X181371429Y-122126800D02*
X181409524Y-122088704D01*
X181409524Y-122088704D02*
X181447619Y-122012514D01*
X181447619Y-122012514D02*
X181447619Y-121822038D01*
X181447619Y-121822038D02*
X181409524Y-121745847D01*
X181409524Y-121745847D02*
X181371429Y-121707752D01*
X181371429Y-121707752D02*
X181295238Y-121669657D01*
X181295238Y-121669657D02*
X181142857Y-121669657D01*
X181142857Y-121669657D02*
X181066667Y-121707752D01*
X181066667Y-121707752D02*
X181028572Y-121745847D01*
X181028572Y-121745847D02*
X180990476Y-121822038D01*
X178933332Y-78408800D02*
X179047618Y-78446895D01*
X179047618Y-78446895D02*
X179238094Y-78446895D01*
X179238094Y-78446895D02*
X179314285Y-78408800D01*
X179314285Y-78408800D02*
X179352380Y-78370704D01*
X179352380Y-78370704D02*
X179390475Y-78294514D01*
X179390475Y-78294514D02*
X179390475Y-78218323D01*
X179390475Y-78218323D02*
X179352380Y-78142133D01*
X179352380Y-78142133D02*
X179314285Y-78104038D01*
X179314285Y-78104038D02*
X179238094Y-78065942D01*
X179238094Y-78065942D02*
X179085713Y-78027847D01*
X179085713Y-78027847D02*
X179009523Y-77989752D01*
X179009523Y-77989752D02*
X178971428Y-77951657D01*
X178971428Y-77951657D02*
X178933332Y-77875466D01*
X178933332Y-77875466D02*
X178933332Y-77799276D01*
X178933332Y-77799276D02*
X178971428Y-77723085D01*
X178971428Y-77723085D02*
X179009523Y-77684990D01*
X179009523Y-77684990D02*
X179085713Y-77646895D01*
X179085713Y-77646895D02*
X179276190Y-77646895D01*
X179276190Y-77646895D02*
X179390475Y-77684990D01*
X179657142Y-77646895D02*
X179847618Y-78446895D01*
X179847618Y-78446895D02*
X179999999Y-77875466D01*
X179999999Y-77875466D02*
X180152380Y-78446895D01*
X180152380Y-78446895D02*
X180342857Y-77646895D01*
X180990476Y-77913561D02*
X180990476Y-78446895D01*
X180800000Y-77608800D02*
X180609523Y-78180228D01*
X180609523Y-78180228D02*
X181104762Y-78180228D01*
X138552380Y-118792800D02*
X138666666Y-118830895D01*
X138666666Y-118830895D02*
X138857142Y-118830895D01*
X138857142Y-118830895D02*
X138933333Y-118792800D01*
X138933333Y-118792800D02*
X138971428Y-118754704D01*
X138971428Y-118754704D02*
X139009523Y-118678514D01*
X139009523Y-118678514D02*
X139009523Y-118602323D01*
X139009523Y-118602323D02*
X138971428Y-118526133D01*
X138971428Y-118526133D02*
X138933333Y-118488038D01*
X138933333Y-118488038D02*
X138857142Y-118449942D01*
X138857142Y-118449942D02*
X138704761Y-118411847D01*
X138704761Y-118411847D02*
X138628571Y-118373752D01*
X138628571Y-118373752D02*
X138590476Y-118335657D01*
X138590476Y-118335657D02*
X138552380Y-118259466D01*
X138552380Y-118259466D02*
X138552380Y-118183276D01*
X138552380Y-118183276D02*
X138590476Y-118107085D01*
X138590476Y-118107085D02*
X138628571Y-118068990D01*
X138628571Y-118068990D02*
X138704761Y-118030895D01*
X138704761Y-118030895D02*
X138895238Y-118030895D01*
X138895238Y-118030895D02*
X139009523Y-118068990D01*
X139276190Y-118030895D02*
X139466666Y-118830895D01*
X139466666Y-118830895D02*
X139619047Y-118259466D01*
X139619047Y-118259466D02*
X139771428Y-118830895D01*
X139771428Y-118830895D02*
X139961905Y-118030895D01*
X140685714Y-118830895D02*
X140228571Y-118830895D01*
X140457143Y-118830895D02*
X140457143Y-118030895D01*
X140457143Y-118030895D02*
X140380952Y-118145180D01*
X140380952Y-118145180D02*
X140304762Y-118221371D01*
X140304762Y-118221371D02*
X140228571Y-118259466D01*
X141180953Y-118030895D02*
X141257143Y-118030895D01*
X141257143Y-118030895D02*
X141333334Y-118068990D01*
X141333334Y-118068990D02*
X141371429Y-118107085D01*
X141371429Y-118107085D02*
X141409524Y-118183276D01*
X141409524Y-118183276D02*
X141447619Y-118335657D01*
X141447619Y-118335657D02*
X141447619Y-118526133D01*
X141447619Y-118526133D02*
X141409524Y-118678514D01*
X141409524Y-118678514D02*
X141371429Y-118754704D01*
X141371429Y-118754704D02*
X141333334Y-118792800D01*
X141333334Y-118792800D02*
X141257143Y-118830895D01*
X141257143Y-118830895D02*
X141180953Y-118830895D01*
X141180953Y-118830895D02*
X141104762Y-118792800D01*
X141104762Y-118792800D02*
X141066667Y-118754704D01*
X141066667Y-118754704D02*
X141028572Y-118678514D01*
X141028572Y-118678514D02*
X140990476Y-118526133D01*
X140990476Y-118526133D02*
X140990476Y-118335657D01*
X140990476Y-118335657D02*
X141028572Y-118183276D01*
X141028572Y-118183276D02*
X141066667Y-118107085D01*
X141066667Y-118107085D02*
X141104762Y-118068990D01*
X141104762Y-118068990D02*
X141180953Y-118030895D01*
X158933332Y-78408800D02*
X159047618Y-78446895D01*
X159047618Y-78446895D02*
X159238094Y-78446895D01*
X159238094Y-78446895D02*
X159314285Y-78408800D01*
X159314285Y-78408800D02*
X159352380Y-78370704D01*
X159352380Y-78370704D02*
X159390475Y-78294514D01*
X159390475Y-78294514D02*
X159390475Y-78218323D01*
X159390475Y-78218323D02*
X159352380Y-78142133D01*
X159352380Y-78142133D02*
X159314285Y-78104038D01*
X159314285Y-78104038D02*
X159238094Y-78065942D01*
X159238094Y-78065942D02*
X159085713Y-78027847D01*
X159085713Y-78027847D02*
X159009523Y-77989752D01*
X159009523Y-77989752D02*
X158971428Y-77951657D01*
X158971428Y-77951657D02*
X158933332Y-77875466D01*
X158933332Y-77875466D02*
X158933332Y-77799276D01*
X158933332Y-77799276D02*
X158971428Y-77723085D01*
X158971428Y-77723085D02*
X159009523Y-77684990D01*
X159009523Y-77684990D02*
X159085713Y-77646895D01*
X159085713Y-77646895D02*
X159276190Y-77646895D01*
X159276190Y-77646895D02*
X159390475Y-77684990D01*
X159657142Y-77646895D02*
X159847618Y-78446895D01*
X159847618Y-78446895D02*
X159999999Y-77875466D01*
X159999999Y-77875466D02*
X160152380Y-78446895D01*
X160152380Y-78446895D02*
X160342857Y-77646895D01*
X160571428Y-77646895D02*
X161066666Y-77646895D01*
X161066666Y-77646895D02*
X160800000Y-77951657D01*
X160800000Y-77951657D02*
X160914285Y-77951657D01*
X160914285Y-77951657D02*
X160990476Y-77989752D01*
X160990476Y-77989752D02*
X161028571Y-78027847D01*
X161028571Y-78027847D02*
X161066666Y-78104038D01*
X161066666Y-78104038D02*
X161066666Y-78294514D01*
X161066666Y-78294514D02*
X161028571Y-78370704D01*
X161028571Y-78370704D02*
X160990476Y-78408800D01*
X160990476Y-78408800D02*
X160914285Y-78446895D01*
X160914285Y-78446895D02*
X160685714Y-78446895D01*
X160685714Y-78446895D02*
X160609523Y-78408800D01*
X160609523Y-78408800D02*
X160571428Y-78370704D01*
X138933332Y-78408800D02*
X139047618Y-78446895D01*
X139047618Y-78446895D02*
X139238094Y-78446895D01*
X139238094Y-78446895D02*
X139314285Y-78408800D01*
X139314285Y-78408800D02*
X139352380Y-78370704D01*
X139352380Y-78370704D02*
X139390475Y-78294514D01*
X139390475Y-78294514D02*
X139390475Y-78218323D01*
X139390475Y-78218323D02*
X139352380Y-78142133D01*
X139352380Y-78142133D02*
X139314285Y-78104038D01*
X139314285Y-78104038D02*
X139238094Y-78065942D01*
X139238094Y-78065942D02*
X139085713Y-78027847D01*
X139085713Y-78027847D02*
X139009523Y-77989752D01*
X139009523Y-77989752D02*
X138971428Y-77951657D01*
X138971428Y-77951657D02*
X138933332Y-77875466D01*
X138933332Y-77875466D02*
X138933332Y-77799276D01*
X138933332Y-77799276D02*
X138971428Y-77723085D01*
X138971428Y-77723085D02*
X139009523Y-77684990D01*
X139009523Y-77684990D02*
X139085713Y-77646895D01*
X139085713Y-77646895D02*
X139276190Y-77646895D01*
X139276190Y-77646895D02*
X139390475Y-77684990D01*
X139657142Y-77646895D02*
X139847618Y-78446895D01*
X139847618Y-78446895D02*
X139999999Y-77875466D01*
X139999999Y-77875466D02*
X140152380Y-78446895D01*
X140152380Y-78446895D02*
X140342857Y-77646895D01*
X140609523Y-77723085D02*
X140647619Y-77684990D01*
X140647619Y-77684990D02*
X140723809Y-77646895D01*
X140723809Y-77646895D02*
X140914285Y-77646895D01*
X140914285Y-77646895D02*
X140990476Y-77684990D01*
X140990476Y-77684990D02*
X141028571Y-77723085D01*
X141028571Y-77723085D02*
X141066666Y-77799276D01*
X141066666Y-77799276D02*
X141066666Y-77875466D01*
X141066666Y-77875466D02*
X141028571Y-77989752D01*
X141028571Y-77989752D02*
X140571428Y-78446895D01*
X140571428Y-78446895D02*
X141066666Y-78446895D01*
X118952380Y-122226800D02*
X119066666Y-122264895D01*
X119066666Y-122264895D02*
X119257142Y-122264895D01*
X119257142Y-122264895D02*
X119333333Y-122226800D01*
X119333333Y-122226800D02*
X119371428Y-122188704D01*
X119371428Y-122188704D02*
X119409523Y-122112514D01*
X119409523Y-122112514D02*
X119409523Y-122036323D01*
X119409523Y-122036323D02*
X119371428Y-121960133D01*
X119371428Y-121960133D02*
X119333333Y-121922038D01*
X119333333Y-121922038D02*
X119257142Y-121883942D01*
X119257142Y-121883942D02*
X119104761Y-121845847D01*
X119104761Y-121845847D02*
X119028571Y-121807752D01*
X119028571Y-121807752D02*
X118990476Y-121769657D01*
X118990476Y-121769657D02*
X118952380Y-121693466D01*
X118952380Y-121693466D02*
X118952380Y-121617276D01*
X118952380Y-121617276D02*
X118990476Y-121541085D01*
X118990476Y-121541085D02*
X119028571Y-121502990D01*
X119028571Y-121502990D02*
X119104761Y-121464895D01*
X119104761Y-121464895D02*
X119295238Y-121464895D01*
X119295238Y-121464895D02*
X119409523Y-121502990D01*
X119676190Y-121464895D02*
X119866666Y-122264895D01*
X119866666Y-122264895D02*
X120019047Y-121693466D01*
X120019047Y-121693466D02*
X120171428Y-122264895D01*
X120171428Y-122264895D02*
X120361905Y-121464895D01*
X121085714Y-122264895D02*
X120628571Y-122264895D01*
X120857143Y-122264895D02*
X120857143Y-121464895D01*
X120857143Y-121464895D02*
X120780952Y-121579180D01*
X120780952Y-121579180D02*
X120704762Y-121655371D01*
X120704762Y-121655371D02*
X120628571Y-121693466D01*
X121352381Y-121464895D02*
X121847619Y-121464895D01*
X121847619Y-121464895D02*
X121580953Y-121769657D01*
X121580953Y-121769657D02*
X121695238Y-121769657D01*
X121695238Y-121769657D02*
X121771429Y-121807752D01*
X121771429Y-121807752D02*
X121809524Y-121845847D01*
X121809524Y-121845847D02*
X121847619Y-121922038D01*
X121847619Y-121922038D02*
X121847619Y-122112514D01*
X121847619Y-122112514D02*
X121809524Y-122188704D01*
X121809524Y-122188704D02*
X121771429Y-122226800D01*
X121771429Y-122226800D02*
X121695238Y-122264895D01*
X121695238Y-122264895D02*
X121466667Y-122264895D01*
X121466667Y-122264895D02*
X121390476Y-122226800D01*
X121390476Y-122226800D02*
X121352381Y-122188704D01*
D11*
%TO.C,SW9*%
X127500000Y-117500000D02*
X112500000Y-117500000D01*
X127500000Y-102500000D02*
X127500000Y-117500000D01*
X112500000Y-117500000D02*
X112500000Y-102500000D01*
X112500000Y-102500000D02*
X127500000Y-102500000D01*
%TO.C,SW15*%
X167500000Y-137500000D02*
X152500000Y-137500000D01*
X167500000Y-122500000D02*
X167500000Y-137500000D01*
X152500000Y-137500000D02*
X152500000Y-122500000D01*
X152500000Y-122500000D02*
X167500000Y-122500000D01*
%TO.C,SW6*%
X147500000Y-97500000D02*
X132500000Y-97500000D01*
X147500000Y-82500000D02*
X147500000Y-97500000D01*
X132500000Y-97500000D02*
X132500000Y-82500000D01*
X132500000Y-82500000D02*
X147500000Y-82500000D01*
%TO.C,SW5*%
X127500000Y-97500000D02*
X112500000Y-97500000D01*
X127500000Y-82500000D02*
X127500000Y-97500000D01*
X112500000Y-97500000D02*
X112500000Y-82500000D01*
X112500000Y-82500000D02*
X127500000Y-82500000D01*
%TO.C,SW1*%
X127500000Y-77500000D02*
X112500000Y-77500000D01*
X127500000Y-62500000D02*
X127500000Y-77500000D01*
X112500000Y-77500000D02*
X112500000Y-62500000D01*
X112500000Y-62500000D02*
X127500000Y-62500000D01*
%TO.C,SW7*%
X167500000Y-97500000D02*
X152500000Y-97500000D01*
X167500000Y-82500000D02*
X167500000Y-97500000D01*
X152500000Y-97500000D02*
X152500000Y-82500000D01*
X152500000Y-82500000D02*
X167500000Y-82500000D01*
%TO.C,SW14*%
X147500000Y-137500000D02*
X132500000Y-137500000D01*
X147500000Y-122500000D02*
X147500000Y-137500000D01*
X132500000Y-137500000D02*
X132500000Y-122500000D01*
X132500000Y-122500000D02*
X147500000Y-122500000D01*
%TO.C,SW12*%
X187500000Y-117500000D02*
X172500000Y-117500000D01*
X187500000Y-102500000D02*
X187500000Y-117500000D01*
X172500000Y-117500000D02*
X172500000Y-102500000D01*
X172500000Y-102500000D02*
X187500000Y-102500000D01*
%TO.C,SW8*%
X187500000Y-97500000D02*
X172500000Y-97500000D01*
X187500000Y-82500000D02*
X187500000Y-97500000D01*
X172500000Y-97500000D02*
X172500000Y-82500000D01*
X172500000Y-82500000D02*
X187500000Y-82500000D01*
%TO.C,SW11*%
X167500000Y-117500000D02*
X152500000Y-117500000D01*
X167500000Y-102500000D02*
X167500000Y-117500000D01*
X152500000Y-117500000D02*
X152500000Y-102500000D01*
X152500000Y-102500000D02*
X167500000Y-102500000D01*
%TO.C,SW16*%
X187500000Y-137500000D02*
X172500000Y-137500000D01*
X187500000Y-122500000D02*
X187500000Y-137500000D01*
X172500000Y-137500000D02*
X172500000Y-122500000D01*
X172500000Y-122500000D02*
X187500000Y-122500000D01*
%TO.C,SW4*%
X187500000Y-77500000D02*
X172500000Y-77500000D01*
X187500000Y-62500000D02*
X187500000Y-77500000D01*
X172500000Y-77500000D02*
X172500000Y-62500000D01*
X172500000Y-62500000D02*
X187500000Y-62500000D01*
%TO.C,SW10*%
X147500000Y-117500000D02*
X132500000Y-117500000D01*
X147500000Y-102500000D02*
X147500000Y-117500000D01*
X132500000Y-117500000D02*
X132500000Y-102500000D01*
X132500000Y-102500000D02*
X147500000Y-102500000D01*
%TO.C,SW3*%
X167500000Y-77500000D02*
X152500000Y-77500000D01*
X167500000Y-62500000D02*
X167500000Y-77500000D01*
X152500000Y-77500000D02*
X152500000Y-62500000D01*
X152500000Y-62500000D02*
X167500000Y-62500000D01*
%TO.C,SW2*%
X147500000Y-77500000D02*
X132500000Y-77500000D01*
X147500000Y-62500000D02*
X147500000Y-77500000D01*
X132500000Y-77500000D02*
X132500000Y-62500000D01*
X132500000Y-62500000D02*
X147500000Y-62500000D01*
%TO.C,SW13*%
X127500000Y-137500000D02*
X112500000Y-137500000D01*
X127500000Y-122500000D02*
X127500000Y-137500000D01*
X112500000Y-137500000D02*
X112500000Y-122500000D01*
X112500000Y-122500000D02*
X127500000Y-122500000D01*
%TD*%
M02*
