%TF.GenerationSoftware,KiCad,Pcbnew,6.0.2+dfsg-1*%
%TF.CreationDate,2023-01-25T11:44:21-08:00*%
%TF.ProjectId,buttons,62757474-6f6e-4732-9e6b-696361645f70,rev?*%
%TF.SameCoordinates,Original*%
%TF.FileFunction,Copper,L2,Bot*%
%TF.FilePolarity,Positive*%
%FSLAX46Y46*%
G04 Gerber Fmt 4.6, Leading zero omitted, Abs format (unit mm)*
G04 Created by KiCad (PCBNEW 6.0.2+dfsg-1) date 2023-01-25 11:44:21*
%MOMM*%
%LPD*%
G01*
G04 APERTURE LIST*
G04 Aperture macros list*
%AMRoundRect*
0 Rectangle with rounded corners*
0 $1 Rounding radius*
0 $2 $3 $4 $5 $6 $7 $8 $9 X,Y pos of 4 corners*
0 Add a 4 corners polygon primitive as box body*
4,1,4,$2,$3,$4,$5,$6,$7,$8,$9,$2,$3,0*
0 Add four circle primitives for the rounded corners*
1,1,$1+$1,$2,$3*
1,1,$1+$1,$4,$5*
1,1,$1+$1,$6,$7*
1,1,$1+$1,$8,$9*
0 Add four rect primitives between the rounded corners*
20,1,$1+$1,$2,$3,$4,$5,0*
20,1,$1+$1,$4,$5,$6,$7,0*
20,1,$1+$1,$6,$7,$8,$9,0*
20,1,$1+$1,$8,$9,$2,$3,0*%
G04 Aperture macros list end*
%TA.AperFunction,NonConductor*%
%ADD10C,0.200000*%
%TD*%
%TA.AperFunction,ComponentPad*%
%ADD11O,1.700000X1.700000*%
%TD*%
%TA.AperFunction,ComponentPad*%
%ADD12R,1.700000X1.700000*%
%TD*%
%TA.AperFunction,ComponentPad*%
%ADD13RoundRect,0.250000X-0.600000X-0.725000X0.600000X-0.725000X0.600000X0.725000X-0.600000X0.725000X0*%
%TD*%
%TA.AperFunction,ComponentPad*%
%ADD14O,1.700000X1.950000*%
%TD*%
G04 APERTURE END LIST*
D10*
X181000000Y-77500000D02*
X181000000Y-78000000D01*
X181000000Y-77000000D02*
X181000000Y-76500000D01*
X183000000Y-76000000D02*
X183000000Y-76500000D01*
X182000000Y-77500000D02*
X182000000Y-78250000D01*
X183000000Y-77500000D02*
X183000000Y-78250000D01*
X182500000Y-75500000D02*
G75*
G03*
X182500000Y-74500000I0J500000D01*
G01*
X181000000Y-75500000D02*
X182500000Y-75500000D01*
X182000000Y-76500000D02*
G75*
G03*
X183000000Y-76500000I500000J0D01*
G01*
X183000000Y-77500000D02*
X181000000Y-77500000D01*
X182000000Y-78250000D02*
G75*
G03*
X183000000Y-78250000I500000J0D01*
G01*
X182000000Y-76500000D02*
G75*
G03*
X181000000Y-76500000I-500000J0D01*
G01*
X181000000Y-78000000D02*
G75*
G03*
X182000000Y-78000000I500000J0D01*
G01*
X182500000Y-74500000D02*
X181000000Y-74500000D01*
D11*
%TO.P,U1,1,GPIO0*%
%TO.N,tx*%
X181870000Y-66610000D03*
%TO.P,U1,2,GPIO1*%
%TO.N,rx*%
X184410000Y-66610000D03*
D12*
%TO.P,U1,3,GND*%
%TO.N,unconnected-(U1-Pad3)*%
X186950000Y-66610000D03*
D11*
%TO.P,U1,4,GPIO2*%
%TO.N,Net-(SW1-Pad1)*%
X189490000Y-66610000D03*
%TO.P,U1,5,GPIO3*%
%TO.N,Net-(SW2-Pad1)*%
X192030000Y-66610000D03*
%TO.P,U1,6,GPIO4*%
%TO.N,Net-(SW3-Pad1)*%
X194570000Y-66610000D03*
%TO.P,U1,7,GPIO5*%
%TO.N,Net-(SW4-Pad1)*%
X197110000Y-66610000D03*
D12*
%TO.P,U1,8,GND*%
%TO.N,unconnected-(U1-Pad8)*%
X199650000Y-66610000D03*
D11*
%TO.P,U1,9,GPIO6*%
%TO.N,led_data*%
X202190000Y-66610000D03*
%TO.P,U1,10,GPIO7*%
%TO.N,unconnected-(U1-Pad10)*%
X204730000Y-66610000D03*
%TO.P,U1,11,GPIO8*%
%TO.N,Net-(SW5-Pad1)*%
X207270000Y-66610000D03*
%TO.P,U1,12,GPIO9*%
%TO.N,Net-(SW6-Pad1)*%
X209810000Y-66610000D03*
D12*
%TO.P,U1,13,GND*%
%TO.N,GND*%
X212350000Y-66610000D03*
D11*
%TO.P,U1,14,GPIO10*%
%TO.N,Net-(SW7-Pad1)*%
X214890000Y-66610000D03*
%TO.P,U1,15,GPIO11*%
%TO.N,Net-(SW8-Pad1)*%
X217430000Y-66610000D03*
%TO.P,U1,16,GPIO12*%
%TO.N,unconnected-(U1-Pad16)*%
X219970000Y-66610000D03*
%TO.P,U1,17,GPIO13*%
%TO.N,unconnected-(U1-Pad17)*%
X222510000Y-66610000D03*
D12*
%TO.P,U1,18,GND*%
%TO.N,GND*%
X225050000Y-66610000D03*
D11*
%TO.P,U1,19,GPIO14*%
%TO.N,unconnected-(U1-Pad19)*%
X227590000Y-66610000D03*
%TO.P,U1,20,GPIO15*%
%TO.N,unconnected-(U1-Pad20)*%
X230130000Y-66610000D03*
%TO.P,U1,21,GPIO16*%
%TO.N,Net-(SW12-Pad1)*%
X230130000Y-84390000D03*
%TO.P,U1,22,GPIO17*%
%TO.N,Net-(SW11-Pad1)*%
X227590000Y-84390000D03*
D12*
%TO.P,U1,23,GND*%
%TO.N,GND*%
X225050000Y-84390000D03*
D11*
%TO.P,U1,24,GPIO18*%
%TO.N,unconnected-(U1-Pad24)*%
X222510000Y-84390000D03*
%TO.P,U1,25,GPIO19*%
%TO.N,unconnected-(U1-Pad25)*%
X219970000Y-84390000D03*
%TO.P,U1,26,GPIO20*%
%TO.N,Net-(SW10-Pad1)*%
X217430000Y-84390000D03*
%TO.P,U1,27,GPIO21*%
%TO.N,Net-(SW9-Pad1)*%
X214890000Y-84390000D03*
D12*
%TO.P,U1,28,GND*%
%TO.N,unconnected-(U1-Pad28)*%
X212350000Y-84390000D03*
D11*
%TO.P,U1,29,GPIO22*%
%TO.N,Net-(SW16-Pad1)*%
X209810000Y-84390000D03*
%TO.P,U1,30,RUN*%
%TO.N,unconnected-(U1-Pad30)*%
X207270000Y-84390000D03*
%TO.P,U1,31,GPIO26_ADC0*%
%TO.N,Net-(SW15-Pad1)*%
X204730000Y-84390000D03*
%TO.P,U1,32,GPIO27_ADC1*%
%TO.N,Net-(SW14-Pad1)*%
X202190000Y-84390000D03*
D12*
%TO.P,U1,33,AGND*%
%TO.N,unconnected-(U1-Pad33)*%
X199650000Y-84390000D03*
D11*
%TO.P,U1,34,GPIO28_ADC2*%
%TO.N,Net-(SW13-Pad1)*%
X197110000Y-84390000D03*
%TO.P,U1,35,ADC_VREF*%
%TO.N,unconnected-(U1-Pad35)*%
X194570000Y-84390000D03*
%TO.P,U1,36,3V3*%
%TO.N,unconnected-(U1-Pad36)*%
X192030000Y-84390000D03*
%TO.P,U1,37,3V3_EN*%
%TO.N,unconnected-(U1-Pad37)*%
X189490000Y-84390000D03*
D12*
%TO.P,U1,38,GND*%
%TO.N,GND*%
X186950000Y-84390000D03*
D11*
%TO.P,U1,39,VSYS*%
%TO.N,+5V*%
X184410000Y-84390000D03*
%TO.P,U1,40,VBUS*%
%TO.N,unconnected-(U1-Pad40)*%
X181870000Y-84390000D03*
%TD*%
D13*
%TO.P,J1,1,Pin_1*%
%TO.N,GND*%
X234750000Y-44467500D03*
D14*
%TO.P,J1,2,Pin_2*%
%TO.N,tx*%
X237250000Y-44467500D03*
%TO.P,J1,3,Pin_3*%
%TO.N,rx*%
X239750000Y-44467500D03*
%TO.P,J1,4,Pin_4*%
%TO.N,Net-(D17-Pad2)*%
X242250000Y-44467500D03*
%TD*%
M02*
