0
SECTION
2
HEADER
9
$INSUNITS
70
4
9
$ACADVER
1
AC1014
9
$HANDSEED
5
FFFF
0
ENDSEC
0
SECTION
2
TABLES
0
TABLE
2
VPORT
5
8
100
AcDbSymbolTable
0
ENDTAB
0
TABLE
2
LTYPE
5
5
100
AcDbSymbolTable
0
LTYPE
5
14
100
AcDbSymbolTableRecord
100
AcDbLinetypeTableRecord
2
BYBLOCK
70
0
0
LTYPE
5
15
100
AcDbSymbolTableRecord
100
AcDbLinetypeTableRecord
2
BYLAYER
70
0
0
ENDTAB
0
TABLE
2
LAYER
5
2
100
AcDbSymbolTable
70
2
0
LAYER
5
50
100
AcDbSymbolTableRecord
100
AcDbLayerTableRecord
2
0
70
0
6
CONTINUOUS
0
ENDTAB
0
TABLE
2
STYLE
5
3
100
AcDbSymbolTable
70
1
0
STYLE
5
11
100
AcDbSymbolTableRecord
100
AcDbTextStyleTableRecord
2
STANDARD
70
0
0
ENDTAB
0
TABLE
2
VIEW
5
6
100
AcDbSymbolTable
70
0
0
ENDTAB
0
TABLE
2
UCS
5
7
100
AcDbSymbolTable
70
0
0
ENDTAB
0
TABLE
2
APPID
5
9
100
AcDbSymbolTable
70
2
0
APPID
5
12
100
AcDbSymbolTableRecord
100
AcDbRegAppTableRecord
2
ACAD
70
0
0
ENDTAB
0
TABLE
2
DIMSTYLE
5
A
100
AcDbSymbolTable
70
1
0
ENDTAB
0
TABLE
2
BLOCK_RECORD
5
1
100
AcDbSymbolTable
70
1
0
BLOCK_RECORD
5
1F
100
AcDbSymbolTableRecord
100
AcDbBlockTableRecord
2
*MODEL_SPACE
0
BLOCK_RECORD
5
1B
100
AcDbSymbolTableRecord
100
AcDbBlockTableRecord
2
*PAPER_SPACE
0
ENDTAB
0
ENDSEC
0
SECTION
2
BLOCKS
0
BLOCK
5
20
100
AcDbEntity
100
AcDbBlockBegin
2
*MODEL_SPACE
0
ENDBLK
5
21
100
AcDbEntity
100
AcDbBlockEnd
0
BLOCK
5
1C
100
AcDbEntity
100
AcDbBlockBegin
2
*PAPER_SPACE
0
ENDBLK
5
1D
100
AcDbEntity
100
AcDbBlockEnd
0
ENDSEC
0
SECTION
2
ENTITIES
0
LWPOLYLINE
5
100
100
AcDbEntity
8
0
100
AcDbPolyline
90
4
70
1
43
0.0
10
-9.0717952902531209
20
9.1390878974768306
10
18.928204709746879
20
9.1390878974768306
10
18.928204709746879
20
-18.860912102523169
10
-9.0717952902531209
20
-18.860912102523169
0
LWPOLYLINE
5
101
100
AcDbEntity
8
0
100
AcDbPolyline
90
4
70
1
43
0.0
10
78.678204709746879
20
2.1390878974768297
10
91.178204709746865
20
2.1390878974768288
10
91.178204709746865
20
-11.860912102523171
10
78.678204709746879
20
-11.860912102523171
0
LINE
5
102
100
AcDbEntity
8
0
100
AcDbLine
10
-9.0717952902531209
20
9.1390878974768306
30
0
11
18.928204709746879
21
-18.860912102523169
31
0
0
LINE
5
103
100
AcDbEntity
8
0
100
AcDbLine
10
78.678204709746879
20
2.1390878974768297
30
0
11
91.178204709746865
21
-11.860912102523171
31
0
0
LINE
5
104
100
AcDbEntity
8
0
100
AcDbLine
10
84.928204709746893
20
-4.8609121025231712
30
0
11
4.9282047097468791
21
-4.8609121025231703
31
0
0
CIRCLE
5
105
100
AcDbEntity
8
0
100
AcDbCircle
10
4.9282047097468791
20
-4.8609121025231703
30
0
40
11
210
0
220
0
230
1
0
CIRCLE
5
106
100
AcDbEntity
8
0
100
AcDbCircle
10
84.928204709746893
20
-4.8609121025231712
30
0
40
3.4500000000000002
210
0
220
0
230
1
0
LWPOLYLINE
5
107
100
AcDbEntity
8
0
100
AcDbPolyline
90
4
70
1
43
0.0
10
84.200210272503028
20
-11.860912102523171
10
85.700210272503028
20
-11.860912102523171
10
85.700210272503028
20
-10.560912102523172
10
84.200210272503028
20
-10.560912102523172
0
LINE
5
108
100
AcDbEntity
8
0
100
AcDbLine
10
84.950210272503028
20
-11.860912102523171
30
0
11
84.950210272503028
21
-10.560912102523172
31
0
0
LWPOLYLINE
5
109
100
AcDbEntity
8
0
100
AcDbPolyline
90
4
70
1
43
0.0
10
-14.071795290253119
20
14.139087897476831
10
96.178204709746865
20
14.139087897476831
10
96.178204709746865
20
-23.860912102523173
10
-14.071795290253119
20
-23.860912102523173
0
CIRCLE
5
110
100
AcDbEntity
8
0
100
AcDbCircle
10
-6.8217952902531023
20
6.8890878974768102
30
0
40
1.3999999999999999
210
0
220
0
230
1
0
CIRCLE
5
111
100
AcDbEntity
8
0
100
AcDbCircle
10
16.678204709746865
20
-16.610912102523152
30
0
40
1.3999999999999999
210
0
220
0
230
1
0
LWPOLYLINE
5
112
100
AcDbEntity
8
0
100
AcDbPolyline
90
4
70
1
43
0.0
10
-6.8217952902531023
20
6.8890878974768102
10
16.678204709746865
20
6.8890878974768119
10
16.678204709746865
20
-16.610912102523152
10
-6.8217952902531209
20
-16.610912102523152
0
CIRCLE
5
113
100
AcDbEntity
8
0
100
AcDbCircle
10
16.678204709746865
20
6.8890878974768119
30
0
40
1.3999999999999999
210
0
220
0
230
1
0
CIRCLE
5
114
100
AcDbEntity
8
0
100
AcDbCircle
10
-6.8217952902531209
20
-16.610912102523152
30
0
40
1.3999999999999999
210
0
220
0
230
1
0
LINE
5
115
100
AcDbEntity
8
0
100
AcDbLine
10
-9.0717952902531209
20
-4.8609121025231712
30
0
11
-6.821795290253112
21
-4.8609121025231703
31
0
0
ENDSEC
0
SECTION
2
OBJECTS
0
DICTIONARY
5
C
100
AcDbDictionary
3
ACAD_GROUP
350
D
3
ACAD_MLINESTYLE
350
17
0
DICTIONARY
5
D
100
AcDbDictionary
0
DICTIONARY
5
1A
330
C
100
AcDbDictionary
0
DICTIONARY
5
17
100
AcDbDictionary
0
ENDSEC
0
EOF
